%TF.GenerationSoftware,KiCad,Pcbnew,7.0.2*%
%TF.CreationDate,2024-10-16T20:37:04+05:30*%
%TF.ProjectId,digitalClock,64696769-7461-46c4-936c-6f636b2e6b69,rev?*%
%TF.SameCoordinates,Original*%
%TF.FileFunction,Copper,L1,Top*%
%TF.FilePolarity,Positive*%
%FSLAX46Y46*%
G04 Gerber Fmt 4.6, Leading zero omitted, Abs format (unit mm)*
G04 Created by KiCad (PCBNEW 7.0.2) date 2024-10-16 20:37:04*
%MOMM*%
%LPD*%
G01*
G04 APERTURE LIST*
G04 Aperture macros list*
%AMRoundRect*
0 Rectangle with rounded corners*
0 $1 Rounding radius*
0 $2 $3 $4 $5 $6 $7 $8 $9 X,Y pos of 4 corners*
0 Add a 4 corners polygon primitive as box body*
4,1,4,$2,$3,$4,$5,$6,$7,$8,$9,$2,$3,0*
0 Add four circle primitives for the rounded corners*
1,1,$1+$1,$2,$3*
1,1,$1+$1,$4,$5*
1,1,$1+$1,$6,$7*
1,1,$1+$1,$8,$9*
0 Add four rect primitives between the rounded corners*
20,1,$1+$1,$2,$3,$4,$5,0*
20,1,$1+$1,$4,$5,$6,$7,0*
20,1,$1+$1,$6,$7,$8,$9,0*
20,1,$1+$1,$8,$9,$2,$3,0*%
%AMRotRect*
0 Rectangle, with rotation*
0 The origin of the aperture is its center*
0 $1 length*
0 $2 width*
0 $3 Rotation angle, in degrees counterclockwise*
0 Add horizontal line*
21,1,$1,$2,0,0,$3*%
G04 Aperture macros list end*
%TA.AperFunction,SMDPad,CuDef*%
%ADD10RoundRect,0.250000X0.412500X0.650000X-0.412500X0.650000X-0.412500X-0.650000X0.412500X-0.650000X0*%
%TD*%
%TA.AperFunction,SMDPad,CuDef*%
%ADD11RoundRect,0.250000X0.400000X0.625000X-0.400000X0.625000X-0.400000X-0.625000X0.400000X-0.625000X0*%
%TD*%
%TA.AperFunction,ComponentPad*%
%ADD12C,2.000000*%
%TD*%
%TA.AperFunction,SMDPad,CuDef*%
%ADD13R,1.150000X0.600000*%
%TD*%
%TA.AperFunction,SMDPad,CuDef*%
%ADD14R,1.150000X0.300000*%
%TD*%
%TA.AperFunction,ComponentPad*%
%ADD15O,1.800000X1.000000*%
%TD*%
%TA.AperFunction,ComponentPad*%
%ADD16O,2.100000X1.000000*%
%TD*%
%TA.AperFunction,SMDPad,CuDef*%
%ADD17RotRect,1.600000X0.550000X45.000000*%
%TD*%
%TA.AperFunction,SMDPad,CuDef*%
%ADD18RotRect,1.600000X0.550000X135.000000*%
%TD*%
%TA.AperFunction,ComponentPad*%
%ADD19R,1.700000X1.700000*%
%TD*%
%TA.AperFunction,ComponentPad*%
%ADD20O,1.700000X1.700000*%
%TD*%
%TA.AperFunction,ComponentPad*%
%ADD21C,1.500000*%
%TD*%
%TA.AperFunction,SMDPad,CuDef*%
%ADD22RoundRect,0.250000X-0.412500X-0.650000X0.412500X-0.650000X0.412500X0.650000X-0.412500X0.650000X0*%
%TD*%
%TA.AperFunction,SMDPad,CuDef*%
%ADD23RoundRect,0.250000X-0.650000X0.412500X-0.650000X-0.412500X0.650000X-0.412500X0.650000X0.412500X0*%
%TD*%
%TA.AperFunction,ComponentPad*%
%ADD24R,1.600000X1.600000*%
%TD*%
%TA.AperFunction,ComponentPad*%
%ADD25C,1.600000*%
%TD*%
%TA.AperFunction,ViaPad*%
%ADD26C,0.800000*%
%TD*%
%TA.AperFunction,Conductor*%
%ADD27C,0.800000*%
%TD*%
%TA.AperFunction,Conductor*%
%ADD28C,0.400000*%
%TD*%
G04 APERTURE END LIST*
D10*
%TO.P,C1,1*%
%TO.N,Net-(U1-XTAL1{slash}PB6)*%
X131125000Y-105000000D03*
%TO.P,C1,2*%
%TO.N,GND*%
X128000000Y-105000000D03*
%TD*%
D11*
%TO.P,R2,1*%
%TO.N,GND*%
X86500000Y-89000000D03*
%TO.P,R2,2*%
%TO.N,/UP*%
X83400000Y-89000000D03*
%TD*%
D12*
%TO.P,SW3,1,A*%
%TO.N,/DWN*%
X77500000Y-110500000D03*
X71000000Y-110500000D03*
%TO.P,SW3,2,B*%
%TO.N,+5V*%
X77500000Y-106000000D03*
X71000000Y-106000000D03*
%TD*%
D13*
%TO.P,J7,A1_B12,GND*%
%TO.N,GND*%
X215935000Y-96520000D03*
%TO.P,J7,A4_B9,VBUS*%
%TO.N,+5V*%
X215935000Y-95720000D03*
D14*
%TO.P,J7,A5,CC1*%
%TO.N,unconnected-(J7-CC1-PadA5)*%
X215935000Y-94570000D03*
%TO.P,J7,A6,DP1*%
%TO.N,unconnected-(J7-DP1-PadA6)*%
X215935000Y-93570000D03*
%TO.P,J7,A7,DN1*%
%TO.N,unconnected-(J7-DN1-PadA7)*%
X215935000Y-93070000D03*
%TO.P,J7,A8,SBU1*%
%TO.N,unconnected-(J7-SBU1-PadA8)*%
X215935000Y-92070000D03*
D13*
%TO.P,J7,B1_A12,GND*%
%TO.N,GND*%
X215935000Y-90120000D03*
%TO.P,J7,B4_A9,VBUS*%
%TO.N,+5V*%
X215935000Y-90920000D03*
D14*
%TO.P,J7,B5,CC2*%
%TO.N,unconnected-(J7-CC2-PadB5)*%
X215935000Y-91570000D03*
%TO.P,J7,B6,DP2*%
%TO.N,unconnected-(J7-DP2-PadB6)*%
X215935000Y-92570000D03*
%TO.P,J7,B7,DN2*%
%TO.N,unconnected-(J7-DN2-PadB7)*%
X215935000Y-94070000D03*
%TO.P,J7,B8,SBU2*%
%TO.N,unconnected-(J7-SBU2-PadB8)*%
X215935000Y-95070000D03*
D15*
%TO.P,J7,S1,SHIELD*%
%TO.N,GND*%
X220680000Y-97640000D03*
%TO.P,J7,S2,SHIELD*%
X220680000Y-89000000D03*
D16*
%TO.P,J7,S3,SHIELD*%
X216500000Y-97640000D03*
%TO.P,J7,S4,SHIELD*%
X216500000Y-89000000D03*
%TD*%
D17*
%TO.P,U1,1,PD3*%
%TO.N,/SEL*%
X139514897Y-95025305D03*
%TO.P,U1,2,PD4*%
%TO.N,/DWN*%
X140080583Y-95590990D03*
%TO.P,U1,3,GND*%
%TO.N,GND*%
X140646268Y-96156676D03*
%TO.P,U1,4,VCC*%
%TO.N,+5V*%
X141211953Y-96722361D03*
%TO.P,U1,5,GND*%
%TO.N,GND*%
X141777639Y-97288047D03*
%TO.P,U1,6,VCC*%
%TO.N,+5V*%
X142343324Y-97853732D03*
%TO.P,U1,7,XTAL1/PB6*%
%TO.N,Net-(U1-XTAL1{slash}PB6)*%
X142909010Y-98419417D03*
%TO.P,U1,8,XTAL2/PB7*%
%TO.N,Net-(U1-XTAL2{slash}PB7)*%
X143474695Y-98985103D03*
D18*
%TO.P,U1,9,PD5*%
%TO.N,unconnected-(U1-PD5-Pad9)*%
X145525305Y-98985103D03*
%TO.P,U1,10,PD6*%
%TO.N,unconnected-(U1-PD6-Pad10)*%
X146090990Y-98419417D03*
%TO.P,U1,11,PD7*%
%TO.N,unconnected-(U1-PD7-Pad11)*%
X146656676Y-97853732D03*
%TO.P,U1,12,PB0*%
%TO.N,unconnected-(U1-PB0-Pad12)*%
X147222361Y-97288047D03*
%TO.P,U1,13,PB1*%
%TO.N,unconnected-(U1-PB1-Pad13)*%
X147788047Y-96722361D03*
%TO.P,U1,14,PB2*%
%TO.N,/CS*%
X148353732Y-96156676D03*
%TO.P,U1,15,PB3*%
%TO.N,/MOSI*%
X148919417Y-95590990D03*
%TO.P,U1,16,PB4*%
%TO.N,/MISO*%
X149485103Y-95025305D03*
D17*
%TO.P,U1,17,PB5*%
%TO.N,/SCK*%
X149485103Y-92974695D03*
%TO.P,U1,18,AVCC*%
%TO.N,+5V*%
X148919417Y-92409010D03*
%TO.P,U1,19,ADC6*%
%TO.N,unconnected-(U1-ADC6-Pad19)*%
X148353732Y-91843324D03*
%TO.P,U1,20,AREF*%
%TO.N,Net-(U1-AREF)*%
X147788047Y-91277639D03*
%TO.P,U1,21,GND*%
%TO.N,GND*%
X147222361Y-90711953D03*
%TO.P,U1,22,ADC7*%
%TO.N,unconnected-(U1-ADC7-Pad22)*%
X146656676Y-90146268D03*
%TO.P,U1,23,PC0*%
%TO.N,unconnected-(U1-PC0-Pad23)*%
X146090990Y-89580583D03*
%TO.P,U1,24,PC1*%
%TO.N,unconnected-(U1-PC1-Pad24)*%
X145525305Y-89014897D03*
D18*
%TO.P,U1,25,PC2*%
%TO.N,unconnected-(U1-PC2-Pad25)*%
X143474695Y-89014897D03*
%TO.P,U1,26,PC3*%
%TO.N,unconnected-(U1-PC3-Pad26)*%
X142909010Y-89580583D03*
%TO.P,U1,27,PC4*%
%TO.N,/SDA*%
X142343324Y-90146268D03*
%TO.P,U1,28,PC5*%
%TO.N,/SCL*%
X141777639Y-90711953D03*
%TO.P,U1,29,~{RESET}/PC6*%
%TO.N,/RST*%
X141211953Y-91277639D03*
%TO.P,U1,30,PD0*%
%TO.N,/Rx*%
X140646268Y-91843324D03*
%TO.P,U1,31,PD1*%
%TO.N,/Tx*%
X140080583Y-92409010D03*
%TO.P,U1,32,PD2*%
%TO.N,/UP*%
X139514897Y-92974695D03*
%TD*%
D11*
%TO.P,R4,1*%
%TO.N,GND*%
X86600000Y-115000000D03*
%TO.P,R4,2*%
%TO.N,/DWN*%
X83500000Y-115000000D03*
%TD*%
D19*
%TO.P,J5,1,Pin_1*%
%TO.N,unconnected-(J5-Pin_1-Pad1)*%
X83500000Y-94340000D03*
D20*
%TO.P,J5,2,Pin_2*%
%TO.N,unconnected-(J5-Pin_2-Pad2)*%
X83500000Y-96880000D03*
%TO.P,J5,3,Pin_3*%
%TO.N,unconnected-(J5-Pin_3-Pad3)*%
X83500000Y-99420000D03*
%TO.P,J5,4,Pin_4*%
%TO.N,GND*%
X83500000Y-101960000D03*
%TO.P,J5,5,Pin_5*%
%TO.N,+5V*%
X83500000Y-104500000D03*
%TD*%
D12*
%TO.P,SW2,1,A*%
%TO.N,/SEL*%
X77500000Y-101000000D03*
X71000000Y-101000000D03*
%TO.P,SW2,2,B*%
%TO.N,+5V*%
X77500000Y-96500000D03*
X71000000Y-96500000D03*
%TD*%
D10*
%TO.P,C3,1*%
%TO.N,GND*%
X155125000Y-88000000D03*
%TO.P,C3,2*%
%TO.N,Net-(U1-AREF)*%
X152000000Y-88000000D03*
%TD*%
D21*
%TO.P,Y1,1,1*%
%TO.N,Net-(U1-XTAL2{slash}PB7)*%
X139800000Y-105000000D03*
%TO.P,Y1,2,2*%
%TO.N,Net-(U1-XTAL1{slash}PB6)*%
X136000000Y-105000000D03*
%TD*%
D11*
%TO.P,R3,1*%
%TO.N,GND*%
X86500000Y-111000000D03*
%TO.P,R3,2*%
%TO.N,/SEL*%
X83400000Y-111000000D03*
%TD*%
D19*
%TO.P,J3,1,Pin_1*%
%TO.N,/SCK*%
X208500000Y-94340000D03*
D20*
%TO.P,J3,2,Pin_2*%
%TO.N,/CS*%
X208500000Y-96880000D03*
%TO.P,J3,3,Pin_3*%
%TO.N,/MOSI*%
X208500000Y-99420000D03*
%TO.P,J3,4,Pin_4*%
%TO.N,GND*%
X208500000Y-101960000D03*
%TO.P,J3,5,Pin_5*%
%TO.N,+5V*%
X208500000Y-104500000D03*
%TD*%
D22*
%TO.P,C2,1*%
%TO.N,Net-(U1-XTAL2{slash}PB7)*%
X144437500Y-105000000D03*
%TO.P,C2,2*%
%TO.N,GND*%
X147562500Y-105000000D03*
%TD*%
D23*
%TO.P,C4,1*%
%TO.N,GND*%
X202000000Y-101875000D03*
%TO.P,C4,2*%
%TO.N,+5V*%
X202000000Y-105000000D03*
%TD*%
D12*
%TO.P,SW1,1,A*%
%TO.N,/UP*%
X77500000Y-91500000D03*
X71000000Y-91500000D03*
%TO.P,SW1,2,B*%
%TO.N,+5V*%
X77500000Y-87000000D03*
X71000000Y-87000000D03*
%TD*%
D11*
%TO.P,R1,1*%
%TO.N,/RST*%
X137600000Y-88000000D03*
%TO.P,R1,2*%
%TO.N,+5V*%
X134500000Y-88000000D03*
%TD*%
D24*
%TO.P,C5,1*%
%TO.N,+5V*%
X196000000Y-105000000D03*
D25*
%TO.P,C5,2*%
%TO.N,GND*%
X196000000Y-102500000D03*
%TD*%
D19*
%TO.P,J1,1,Pin_1*%
%TO.N,+5V*%
X217000000Y-101000000D03*
D20*
%TO.P,J1,2,Pin_2*%
%TO.N,GND*%
X217000000Y-103540000D03*
%TD*%
D19*
%TO.P,J6,1,MOSI*%
%TO.N,/MOSI*%
X140460000Y-113460000D03*
D20*
%TO.P,J6,2,VCC*%
%TO.N,+5V*%
X140460000Y-116000000D03*
%TO.P,J6,3,NC*%
%TO.N,unconnected-(J6-NC-Pad3)*%
X143000000Y-113460000D03*
%TO.P,J6,4,GND*%
%TO.N,GND*%
X143000000Y-116000000D03*
%TO.P,J6,5,~{RST}*%
%TO.N,/RST*%
X145540000Y-113460000D03*
%TO.P,J6,6,GND*%
%TO.N,GND*%
X145540000Y-116000000D03*
%TO.P,J6,7,SCK*%
%TO.N,/SCK*%
X148080000Y-113460000D03*
%TO.P,J6,8,GND*%
%TO.N,GND*%
X148080000Y-116000000D03*
%TO.P,J6,9,MISO*%
%TO.N,/MISO*%
X150620000Y-113460000D03*
%TO.P,J6,10,GND*%
%TO.N,GND*%
X150620000Y-116000000D03*
%TD*%
D19*
%TO.P,J4,1,Pin_1*%
%TO.N,GND*%
X167000000Y-115000000D03*
D20*
%TO.P,J4,2,Pin_2*%
%TO.N,+5V*%
X164460000Y-115000000D03*
%TO.P,J4,3,Pin_3*%
%TO.N,/Rx*%
X161920000Y-115000000D03*
%TO.P,J4,4,Pin_4*%
%TO.N,/Tx*%
X159380000Y-115000000D03*
%TD*%
D19*
%TO.P,J2,1,Pin_1*%
%TO.N,GND*%
X126580000Y-115000000D03*
D20*
%TO.P,J2,2,Pin_2*%
%TO.N,+5V*%
X124040000Y-115000000D03*
%TO.P,J2,3,Pin_3*%
%TO.N,/SDA*%
X121500000Y-115000000D03*
%TO.P,J2,4,Pin_4*%
%TO.N,/SCL*%
X118960000Y-115000000D03*
%TD*%
D26*
%TO.N,GND*%
X148000000Y-86500000D03*
X112000000Y-87000000D03*
X157000000Y-103000000D03*
X157000000Y-94500000D03*
X135000000Y-94000000D03*
X143500000Y-102000000D03*
X156000000Y-111000000D03*
X110500000Y-107000000D03*
%TO.N,+5V*%
X132000000Y-91000000D03*
X132000000Y-99000000D03*
%TO.N,/SDA*%
X122500000Y-87000000D03*
X141000000Y-87500000D03*
X122500000Y-85000000D03*
%TO.N,/SCL*%
X140000000Y-88000000D03*
%TO.N,/CS*%
X152500000Y-99000000D03*
X149500000Y-99000000D03*
%TO.N,/SCK*%
X151500000Y-91500000D03*
%TO.N,/Rx*%
X144500000Y-93000000D03*
X152500000Y-105000000D03*
%TO.N,/Tx*%
X143000000Y-94000000D03*
X152500000Y-107000000D03*
%TO.N,/MOSI*%
X152500000Y-100500000D03*
X150500000Y-100500000D03*
%TO.N,/RST*%
X138000000Y-84000000D03*
X137600000Y-90000000D03*
%TD*%
D27*
%TO.N,Net-(U1-XTAL1{slash}PB6)*%
X136000000Y-105000000D02*
X131125000Y-105000000D01*
D28*
X140828427Y-100500000D02*
X137000000Y-100500000D01*
X142909010Y-98419417D02*
X140828427Y-100500000D01*
X136000000Y-101500000D02*
X136000000Y-105000000D01*
X137000000Y-100500000D02*
X136000000Y-101500000D01*
%TO.N,Net-(U1-XTAL2{slash}PB7)*%
X143474695Y-98985103D02*
X139800000Y-102659798D01*
X139800000Y-102659798D02*
X139800000Y-105000000D01*
D27*
X139800000Y-105000000D02*
X144437500Y-105000000D01*
%TO.N,+5V*%
X69500000Y-87000000D02*
X68500000Y-88000000D01*
D28*
X214580000Y-90920000D02*
X215935000Y-90920000D01*
X134500000Y-88000000D02*
X133000000Y-88000000D01*
X148919417Y-92409010D02*
X146828427Y-94500000D01*
D27*
X124040000Y-100460000D02*
X125500000Y-99000000D01*
X77500000Y-96500000D02*
X79500000Y-96500000D01*
X71000000Y-87000000D02*
X77500000Y-87000000D01*
X202000000Y-105000000D02*
X208000000Y-105000000D01*
D28*
X214000000Y-95720000D02*
X214000000Y-101000000D01*
D27*
X194000000Y-119000000D02*
X196000000Y-117000000D01*
D28*
X144500000Y-94500000D02*
X142750000Y-96250000D01*
D27*
X196000000Y-105000000D02*
X202000000Y-105000000D01*
X208000000Y-105000000D02*
X208500000Y-104500000D01*
X212000000Y-102000000D02*
X213000000Y-101000000D01*
X165500000Y-119000000D02*
X194000000Y-119000000D01*
X214000000Y-101000000D02*
X217000000Y-101000000D01*
X164460000Y-115000000D02*
X164460000Y-117960000D01*
D28*
X214000000Y-95720000D02*
X214000000Y-91500000D01*
X142000000Y-96000000D02*
X142500000Y-96000000D01*
D27*
X211500000Y-104500000D02*
X212000000Y-104000000D01*
X68500000Y-88000000D02*
X68500000Y-96500000D01*
X213000000Y-101000000D02*
X214000000Y-101000000D01*
D28*
X143000000Y-96500000D02*
X143000000Y-97197056D01*
X142750000Y-96250000D02*
X143000000Y-96500000D01*
D27*
X125500000Y-99000000D02*
X132000000Y-99000000D01*
X212000000Y-104000000D02*
X212000000Y-102000000D01*
X68500000Y-96500000D02*
X68500000Y-105000000D01*
X71000000Y-96500000D02*
X77500000Y-96500000D01*
X80500000Y-97500000D02*
X80500000Y-101500000D01*
D28*
X146828427Y-94500000D02*
X144500000Y-94500000D01*
D27*
X196000000Y-117000000D02*
X196000000Y-105000000D01*
X124040000Y-115000000D02*
X124040000Y-100460000D01*
X71000000Y-87000000D02*
X69500000Y-87000000D01*
X68500000Y-105000000D02*
X69500000Y-106000000D01*
D28*
X142500000Y-96000000D02*
X142750000Y-96250000D01*
D27*
X71000000Y-96500000D02*
X68500000Y-96500000D01*
X79500000Y-96500000D02*
X80500000Y-97500000D01*
D28*
X138934314Y-99000000D02*
X141211953Y-96722361D01*
D27*
X69500000Y-106000000D02*
X71000000Y-106000000D01*
X164460000Y-117960000D02*
X165500000Y-119000000D01*
X71000000Y-106000000D02*
X77500000Y-106000000D01*
X80500000Y-101500000D02*
X83500000Y-104500000D01*
D28*
X133000000Y-88000000D02*
X132000000Y-89000000D01*
D27*
X208500000Y-104500000D02*
X211500000Y-104500000D01*
D28*
X132000000Y-99000000D02*
X138934314Y-99000000D01*
X132000000Y-89000000D02*
X132000000Y-91000000D01*
X143000000Y-97197056D02*
X142343324Y-97853732D01*
X141277639Y-96722361D02*
X142000000Y-96000000D01*
X141211953Y-96722361D02*
X141277639Y-96722361D01*
X214000000Y-91500000D02*
X214580000Y-90920000D01*
X215935000Y-95720000D02*
X214000000Y-95720000D01*
%TO.N,/SDA*%
X141500000Y-89302944D02*
X141500000Y-88000000D01*
X122500000Y-85000000D02*
X122500000Y-87000000D01*
X141500000Y-88000000D02*
X141000000Y-87500000D01*
X142343324Y-90146268D02*
X141500000Y-89302944D01*
%TO.N,/SCL*%
X141777639Y-90711953D02*
X140600000Y-89534314D01*
X140600000Y-88600000D02*
X140000000Y-88000000D01*
X140600000Y-89534314D02*
X140600000Y-88600000D01*
%TO.N,Net-(U1-AREF)*%
X147788047Y-91277639D02*
X151065686Y-88000000D01*
X151065686Y-88000000D02*
X152000000Y-88000000D01*
%TO.N,/CS*%
X193120000Y-96880000D02*
X208500000Y-96880000D01*
X191000000Y-99000000D02*
X193120000Y-96880000D01*
X152500000Y-99000000D02*
X191000000Y-99000000D01*
X149500000Y-97302944D02*
X149500000Y-99000000D01*
X148353732Y-96156676D02*
X149500000Y-97302944D01*
%TO.N,/SCK*%
X167500000Y-91500000D02*
X205500000Y-91500000D01*
X151500000Y-91500000D02*
X150959798Y-91500000D01*
X208340000Y-94340000D02*
X208500000Y-94340000D01*
X205500000Y-91500000D02*
X208340000Y-94340000D01*
X152500000Y-90500000D02*
X151500000Y-91500000D01*
X150959798Y-91500000D02*
X149485103Y-92974695D01*
X166500000Y-90500000D02*
X167500000Y-91500000D01*
X166500000Y-90500000D02*
X152500000Y-90500000D01*
%TO.N,/Rx*%
X140646268Y-91843324D02*
X141802944Y-93000000D01*
X141802944Y-93000000D02*
X144500000Y-93000000D01*
X160000000Y-105000000D02*
X161920000Y-106920000D01*
X161920000Y-106920000D02*
X161920000Y-115000000D01*
X152500000Y-105000000D02*
X160000000Y-105000000D01*
%TO.N,/Tx*%
X152500000Y-107000000D02*
X157500000Y-107000000D01*
X159380000Y-108880000D02*
X159380000Y-115000000D01*
X140080583Y-92409010D02*
X141671573Y-94000000D01*
X157500000Y-107000000D02*
X159380000Y-108880000D01*
X141671573Y-94000000D02*
X143000000Y-94000000D01*
%TO.N,/UP*%
X83500000Y-89100000D02*
X83400000Y-89000000D01*
X138500000Y-92000000D02*
X84500000Y-92000000D01*
D27*
X77500000Y-91500000D02*
X79500000Y-91500000D01*
D28*
X83500000Y-91000000D02*
X83500000Y-89100000D01*
X139514897Y-92974695D02*
X139474695Y-92974695D01*
D27*
X82000000Y-89000000D02*
X83400000Y-89000000D01*
D28*
X84500000Y-92000000D02*
X83500000Y-91000000D01*
D27*
X79500000Y-91500000D02*
X82000000Y-89000000D01*
X71000000Y-91500000D02*
X77500000Y-91500000D01*
D28*
X139474695Y-92974695D02*
X138500000Y-92000000D01*
%TO.N,/SEL*%
X139474695Y-95025305D02*
X138000000Y-96500000D01*
D27*
X81500000Y-111000000D02*
X83400000Y-111000000D01*
X80000000Y-109500000D02*
X81500000Y-111000000D01*
D28*
X84000000Y-108000000D02*
X83500000Y-108500000D01*
D27*
X71000000Y-101000000D02*
X77500000Y-101000000D01*
D28*
X139514897Y-95025305D02*
X139474695Y-95025305D01*
X89000000Y-96500000D02*
X87500000Y-98000000D01*
X87500000Y-98000000D02*
X87500000Y-106500000D01*
D27*
X77500000Y-101000000D02*
X78000000Y-101000000D01*
X80000000Y-103000000D02*
X80000000Y-109500000D01*
D28*
X138000000Y-96500000D02*
X89000000Y-96500000D01*
X83500000Y-110900000D02*
X83400000Y-111000000D01*
X86000000Y-108000000D02*
X84000000Y-108000000D01*
X83500000Y-108500000D02*
X83500000Y-110900000D01*
D27*
X78000000Y-101000000D02*
X80000000Y-103000000D01*
D28*
X87500000Y-106500000D02*
X86000000Y-108000000D01*
%TO.N,/DWN*%
X87500000Y-113000000D02*
X84000000Y-113000000D01*
D27*
X77500000Y-114000000D02*
X78500000Y-115000000D01*
D28*
X84000000Y-113000000D02*
X83500000Y-113500000D01*
D27*
X77500000Y-110500000D02*
X77500000Y-114000000D01*
X78500000Y-115000000D02*
X83500000Y-115000000D01*
D28*
X138171573Y-97500000D02*
X89500000Y-97500000D01*
X88500000Y-98500000D02*
X88500000Y-112000000D01*
X88500000Y-112000000D02*
X87500000Y-113000000D01*
X140080583Y-95590990D02*
X138171573Y-97500000D01*
X89500000Y-97500000D02*
X88500000Y-98500000D01*
X83500000Y-113500000D02*
X83500000Y-115000000D01*
D27*
X71000000Y-110500000D02*
X77500000Y-110500000D01*
D28*
%TO.N,/MOSI*%
X150500000Y-107000000D02*
X150500000Y-97171573D01*
X149500000Y-108000000D02*
X150500000Y-107000000D01*
X150500000Y-97171573D02*
X148919417Y-95590990D01*
X140460000Y-109540000D02*
X142000000Y-108000000D01*
X140460000Y-113460000D02*
X140460000Y-109540000D01*
X192500000Y-100500000D02*
X152500000Y-100500000D01*
X142000000Y-108000000D02*
X149500000Y-108000000D01*
X208500000Y-99420000D02*
X193580000Y-99420000D01*
X193580000Y-99420000D02*
X192500000Y-100500000D01*
%TO.N,/RST*%
X140000000Y-90065686D02*
X141211953Y-91277639D01*
X137600000Y-90000000D02*
X137600000Y-88000000D01*
X138500000Y-88000000D02*
X140000000Y-89500000D01*
X137600000Y-88000000D02*
X138500000Y-88000000D01*
X140000000Y-89500000D02*
X140000000Y-90065686D01*
X137600000Y-84400000D02*
X138000000Y-84000000D01*
X137600000Y-88000000D02*
X137600000Y-84400000D01*
%TO.N,/MISO*%
X151500000Y-97040202D02*
X151500000Y-112580000D01*
X149485103Y-95025305D02*
X151500000Y-97040202D01*
X151500000Y-112580000D02*
X150620000Y-113460000D01*
%TD*%
%TA.AperFunction,Conductor*%
%TO.N,GND*%
G36*
X145080507Y-115790156D02*
G01*
X145040000Y-115928111D01*
X145040000Y-116071889D01*
X145080507Y-116209844D01*
X145106314Y-116250000D01*
X143433686Y-116250000D01*
X143459493Y-116209844D01*
X143500000Y-116071889D01*
X143500000Y-115928111D01*
X143459493Y-115790156D01*
X143433686Y-115750000D01*
X145106314Y-115750000D01*
X145080507Y-115790156D01*
G37*
%TD.AperFunction*%
%TA.AperFunction,Conductor*%
G36*
X147620507Y-115790156D02*
G01*
X147580000Y-115928111D01*
X147580000Y-116071889D01*
X147620507Y-116209844D01*
X147646314Y-116250000D01*
X145973686Y-116250000D01*
X145999493Y-116209844D01*
X146040000Y-116071889D01*
X146040000Y-115928111D01*
X145999493Y-115790156D01*
X145973686Y-115750000D01*
X147646314Y-115750000D01*
X147620507Y-115790156D01*
G37*
%TD.AperFunction*%
%TA.AperFunction,Conductor*%
G36*
X150160507Y-115790156D02*
G01*
X150120000Y-115928111D01*
X150120000Y-116071889D01*
X150160507Y-116209844D01*
X150186314Y-116250000D01*
X148513686Y-116250000D01*
X148539493Y-116209844D01*
X148580000Y-116071889D01*
X148580000Y-115928111D01*
X148539493Y-115790156D01*
X148513686Y-115750000D01*
X150186314Y-115750000D01*
X150160507Y-115790156D01*
G37*
%TD.AperFunction*%
%TA.AperFunction,Conductor*%
G36*
X221942539Y-77020185D02*
G01*
X221988294Y-77072989D01*
X221999500Y-77124500D01*
X221999499Y-88205435D01*
X221979814Y-88272474D01*
X221927010Y-88318229D01*
X221857852Y-88328173D01*
X221794296Y-88299148D01*
X221785625Y-88290868D01*
X221734730Y-88237328D01*
X221567805Y-88121144D01*
X221380907Y-88040940D01*
X221181689Y-88000000D01*
X220930000Y-88000000D01*
X220930000Y-88700000D01*
X220430000Y-88700000D01*
X220430000Y-88000000D01*
X220232430Y-88000000D01*
X220226164Y-88000317D01*
X220077660Y-88015419D01*
X219883610Y-88076303D01*
X219705785Y-88175003D01*
X219551468Y-88307479D01*
X219426978Y-88468307D01*
X219337410Y-88650905D01*
X219311753Y-88749999D01*
X219311753Y-88750000D01*
X220113889Y-88750000D01*
X220074390Y-88774457D01*
X220006799Y-88863962D01*
X219976105Y-88971840D01*
X219986454Y-89083521D01*
X220036448Y-89183922D01*
X220108931Y-89250000D01*
X219306634Y-89250000D01*
X219306932Y-89251948D01*
X219377564Y-89442663D01*
X219485145Y-89615263D01*
X219625266Y-89762669D01*
X219792194Y-89878855D01*
X219979092Y-89959059D01*
X220178311Y-90000000D01*
X220430000Y-90000000D01*
X220430000Y-89300000D01*
X220930000Y-89300000D01*
X220930000Y-90000000D01*
X221127570Y-90000000D01*
X221133835Y-89999682D01*
X221282339Y-89984580D01*
X221476389Y-89923696D01*
X221654214Y-89824996D01*
X221794729Y-89704368D01*
X221858417Y-89675636D01*
X221927529Y-89685898D01*
X221980122Y-89731895D01*
X221999499Y-89798454D01*
X221999499Y-96845435D01*
X221979814Y-96912474D01*
X221927010Y-96958229D01*
X221857852Y-96968173D01*
X221794296Y-96939148D01*
X221785625Y-96930868D01*
X221734730Y-96877328D01*
X221567805Y-96761144D01*
X221380907Y-96680940D01*
X221181689Y-96640000D01*
X220930000Y-96640000D01*
X220930000Y-97340000D01*
X220430000Y-97340000D01*
X220430000Y-96640000D01*
X220232430Y-96640000D01*
X220226164Y-96640317D01*
X220077660Y-96655419D01*
X219883610Y-96716303D01*
X219705785Y-96815003D01*
X219551468Y-96947479D01*
X219426978Y-97108307D01*
X219337410Y-97290905D01*
X219311753Y-97389999D01*
X219311753Y-97390000D01*
X220113889Y-97390000D01*
X220074390Y-97414457D01*
X220006799Y-97503962D01*
X219976105Y-97611840D01*
X219986454Y-97723521D01*
X220036448Y-97823922D01*
X220108931Y-97890000D01*
X219306634Y-97890000D01*
X219306932Y-97891948D01*
X219377564Y-98082663D01*
X219485145Y-98255263D01*
X219625266Y-98402669D01*
X219792194Y-98518855D01*
X219979092Y-98599059D01*
X220178311Y-98640000D01*
X220430000Y-98640000D01*
X220430000Y-97940000D01*
X220930000Y-97940000D01*
X220930000Y-98640000D01*
X221127570Y-98640000D01*
X221133835Y-98639682D01*
X221282339Y-98624580D01*
X221476389Y-98563696D01*
X221654214Y-98464996D01*
X221794730Y-98344368D01*
X221858419Y-98315636D01*
X221927531Y-98325898D01*
X221980123Y-98371896D01*
X221999500Y-98438454D01*
X221999500Y-120375500D01*
X221979815Y-120442539D01*
X221927011Y-120488294D01*
X221875500Y-120499500D01*
X67624500Y-120499500D01*
X67557461Y-120479815D01*
X67511706Y-120427011D01*
X67500500Y-120375500D01*
X67500500Y-104999999D01*
X67894317Y-104999999D01*
X67908231Y-105105682D01*
X67911199Y-105128226D01*
X67914956Y-105156762D01*
X67953577Y-105250000D01*
X67975464Y-105302841D01*
X68071716Y-105428281D01*
X68096768Y-105447503D01*
X68108964Y-105458199D01*
X69041799Y-106391034D01*
X69052494Y-106403229D01*
X69071717Y-106428282D01*
X69133206Y-106475463D01*
X69133207Y-106475464D01*
X69197159Y-106524536D01*
X69343238Y-106585044D01*
X69500000Y-106605683D01*
X69531308Y-106601560D01*
X69547494Y-106600500D01*
X69887379Y-106600500D01*
X69954418Y-106620185D01*
X69986332Y-106649772D01*
X69993372Y-106659094D01*
X70109019Y-106812237D01*
X70273437Y-106962124D01*
X70462595Y-107079245D01*
X70462597Y-107079245D01*
X70462599Y-107079247D01*
X70670060Y-107159618D01*
X70888757Y-107200500D01*
X70888759Y-107200500D01*
X71111241Y-107200500D01*
X71111243Y-107200500D01*
X71329940Y-107159618D01*
X71537401Y-107079247D01*
X71726562Y-106962124D01*
X71849793Y-106849784D01*
X71890980Y-106812237D01*
X71904227Y-106794696D01*
X72013667Y-106649772D01*
X72069776Y-106608137D01*
X72112621Y-106600500D01*
X76387379Y-106600500D01*
X76454418Y-106620185D01*
X76486332Y-106649772D01*
X76493372Y-106659094D01*
X76609019Y-106812237D01*
X76773437Y-106962124D01*
X76962595Y-107079245D01*
X76962597Y-107079245D01*
X76962599Y-107079247D01*
X77170060Y-107159618D01*
X77388757Y-107200500D01*
X77388759Y-107200500D01*
X77611241Y-107200500D01*
X77611243Y-107200500D01*
X77829940Y-107159618D01*
X78037401Y-107079247D01*
X78226562Y-106962124D01*
X78349793Y-106849784D01*
X78390980Y-106812237D01*
X78390981Y-106812236D01*
X78525058Y-106634689D01*
X78624229Y-106435528D01*
X78630083Y-106414956D01*
X78653086Y-106334107D01*
X78685115Y-106221536D01*
X78705643Y-106000000D01*
X78685115Y-105778464D01*
X78647379Y-105645835D01*
X78624230Y-105564473D01*
X78525058Y-105365311D01*
X78390980Y-105187762D01*
X78226562Y-105037875D01*
X78037404Y-104920754D01*
X77908029Y-104870634D01*
X77829940Y-104840382D01*
X77611243Y-104799500D01*
X77388757Y-104799500D01*
X77170060Y-104840382D01*
X76962595Y-104920754D01*
X76773437Y-105037875D01*
X76609019Y-105187762D01*
X76486333Y-105350227D01*
X76430224Y-105391863D01*
X76387379Y-105399500D01*
X72112621Y-105399500D01*
X72045582Y-105379815D01*
X72013667Y-105350227D01*
X71890980Y-105187762D01*
X71726562Y-105037875D01*
X71537404Y-104920754D01*
X71408029Y-104870634D01*
X71329940Y-104840382D01*
X71111243Y-104799500D01*
X70888757Y-104799500D01*
X70670059Y-104840382D01*
X70670060Y-104840382D01*
X70462595Y-104920754D01*
X70273437Y-105037875D01*
X70109019Y-105187762D01*
X69986333Y-105350227D01*
X69930224Y-105391863D01*
X69887379Y-105399500D01*
X69800097Y-105399500D01*
X69733058Y-105379815D01*
X69712416Y-105363181D01*
X69136819Y-104787584D01*
X69103334Y-104726261D01*
X69100500Y-104699903D01*
X69100500Y-97224500D01*
X69120185Y-97157461D01*
X69172989Y-97111706D01*
X69224500Y-97100500D01*
X69887379Y-97100500D01*
X69954418Y-97120185D01*
X69986333Y-97149773D01*
X70109019Y-97312237D01*
X70273437Y-97462124D01*
X70462595Y-97579245D01*
X70462597Y-97579245D01*
X70462599Y-97579247D01*
X70670060Y-97659618D01*
X70888757Y-97700500D01*
X70888759Y-97700500D01*
X71111241Y-97700500D01*
X71111243Y-97700500D01*
X71329940Y-97659618D01*
X71537401Y-97579247D01*
X71726562Y-97462124D01*
X71810905Y-97385235D01*
X71890980Y-97312237D01*
X71909248Y-97288047D01*
X72013667Y-97149772D01*
X72069776Y-97108137D01*
X72112621Y-97100500D01*
X76387379Y-97100500D01*
X76454418Y-97120185D01*
X76486333Y-97149773D01*
X76609019Y-97312237D01*
X76773437Y-97462124D01*
X76962595Y-97579245D01*
X76962597Y-97579245D01*
X76962599Y-97579247D01*
X77170060Y-97659618D01*
X77388757Y-97700500D01*
X77388759Y-97700500D01*
X77611241Y-97700500D01*
X77611243Y-97700500D01*
X77829940Y-97659618D01*
X78037401Y-97579247D01*
X78226562Y-97462124D01*
X78310905Y-97385235D01*
X78390980Y-97312237D01*
X78409248Y-97288047D01*
X78513667Y-97149772D01*
X78569776Y-97108137D01*
X78612621Y-97100500D01*
X79199903Y-97100500D01*
X79266942Y-97120185D01*
X79287584Y-97136819D01*
X79863181Y-97712416D01*
X79896666Y-97773739D01*
X79899500Y-97800097D01*
X79899500Y-101452511D01*
X79898439Y-101468696D01*
X79894317Y-101499999D01*
X79898817Y-101534177D01*
X79899500Y-101539361D01*
X79911328Y-101629202D01*
X79914956Y-101656762D01*
X79965572Y-101778962D01*
X79973041Y-101848431D01*
X79941765Y-101910910D01*
X79881676Y-101946562D01*
X79811851Y-101944068D01*
X79763330Y-101914095D01*
X78722637Y-100873402D01*
X78689152Y-100812079D01*
X78686847Y-100797159D01*
X78685850Y-100786399D01*
X78685115Y-100778464D01*
X78639310Y-100617476D01*
X78624230Y-100564473D01*
X78525058Y-100365311D01*
X78390980Y-100187762D01*
X78226562Y-100037875D01*
X78037404Y-99920754D01*
X77969162Y-99894317D01*
X77829940Y-99840382D01*
X77611243Y-99799500D01*
X77388757Y-99799500D01*
X77171114Y-99840185D01*
X77170060Y-99840382D01*
X76962595Y-99920754D01*
X76773437Y-100037875D01*
X76609019Y-100187762D01*
X76521818Y-100303237D01*
X76491612Y-100343237D01*
X76486333Y-100350227D01*
X76430224Y-100391863D01*
X76387379Y-100399500D01*
X72112621Y-100399500D01*
X72045582Y-100379815D01*
X72013667Y-100350227D01*
X72008388Y-100343237D01*
X71896080Y-100194516D01*
X71890980Y-100187762D01*
X71726562Y-100037875D01*
X71537404Y-99920754D01*
X71469162Y-99894317D01*
X71329940Y-99840382D01*
X71111243Y-99799500D01*
X70888757Y-99799500D01*
X70671114Y-99840185D01*
X70670060Y-99840382D01*
X70462595Y-99920754D01*
X70273437Y-100037875D01*
X70109019Y-100187762D01*
X69974941Y-100365311D01*
X69875769Y-100564473D01*
X69814885Y-100778462D01*
X69794357Y-101000000D01*
X69814885Y-101221537D01*
X69875769Y-101435526D01*
X69974941Y-101634688D01*
X70109019Y-101812237D01*
X70273437Y-101962124D01*
X70462595Y-102079245D01*
X70462597Y-102079245D01*
X70462599Y-102079247D01*
X70670060Y-102159618D01*
X70888757Y-102200500D01*
X70888759Y-102200500D01*
X71111241Y-102200500D01*
X71111243Y-102200500D01*
X71329940Y-102159618D01*
X71537401Y-102079247D01*
X71726562Y-101962124D01*
X71807750Y-101888111D01*
X71890980Y-101812237D01*
X71937862Y-101750156D01*
X72013667Y-101649772D01*
X72069776Y-101608137D01*
X72112621Y-101600500D01*
X76387379Y-101600500D01*
X76454418Y-101620185D01*
X76486332Y-101649772D01*
X76491611Y-101656762D01*
X76609019Y-101812237D01*
X76773437Y-101962124D01*
X76962595Y-102079245D01*
X76962597Y-102079245D01*
X76962599Y-102079247D01*
X77170060Y-102159618D01*
X77388757Y-102200500D01*
X77388759Y-102200500D01*
X77611241Y-102200500D01*
X77611243Y-102200500D01*
X77829940Y-102159618D01*
X78037401Y-102079247D01*
X78072849Y-102057298D01*
X78140206Y-102038741D01*
X78206906Y-102059547D01*
X78225808Y-102075043D01*
X79363181Y-103212416D01*
X79396666Y-103273739D01*
X79399500Y-103300097D01*
X79399500Y-109452511D01*
X79398439Y-109468696D01*
X79394317Y-109499999D01*
X79398817Y-109534177D01*
X79399500Y-109539361D01*
X79410817Y-109625321D01*
X79414956Y-109656762D01*
X79475463Y-109802840D01*
X79571716Y-109928281D01*
X79596768Y-109947503D01*
X79608964Y-109958199D01*
X81041799Y-111391034D01*
X81052494Y-111403229D01*
X81071717Y-111428282D01*
X81115819Y-111462122D01*
X81115822Y-111462124D01*
X81197159Y-111524536D01*
X81343238Y-111585044D01*
X81468698Y-111601561D01*
X81499999Y-111605682D01*
X81499999Y-111605681D01*
X81500000Y-111605682D01*
X81531302Y-111601560D01*
X81547487Y-111600500D01*
X82429198Y-111600500D01*
X82496237Y-111620185D01*
X82541992Y-111672989D01*
X82549993Y-111702952D01*
X82597207Y-111837884D01*
X82677849Y-111947150D01*
X82787115Y-112027792D01*
X82787118Y-112027793D01*
X82915301Y-112072646D01*
X82945734Y-112075500D01*
X82948627Y-112075500D01*
X83851373Y-112075500D01*
X83854266Y-112075500D01*
X83884699Y-112072646D01*
X84012882Y-112027793D01*
X84012882Y-112027792D01*
X84012884Y-112027792D01*
X84122150Y-111947150D01*
X84202792Y-111837884D01*
X84222086Y-111782745D01*
X84247646Y-111709699D01*
X84250500Y-111679266D01*
X84250500Y-110750000D01*
X85350000Y-110750000D01*
X86250000Y-110750000D01*
X86250000Y-109625000D01*
X86750000Y-109625000D01*
X86750000Y-110750000D01*
X87649999Y-110750000D01*
X87649999Y-110328170D01*
X87649678Y-110321888D01*
X87639506Y-110222304D01*
X87584357Y-110055877D01*
X87492316Y-109906654D01*
X87368345Y-109782683D01*
X87219122Y-109690642D01*
X87052696Y-109635493D01*
X86953109Y-109625319D01*
X86946832Y-109625000D01*
X86750000Y-109625000D01*
X86250000Y-109625000D01*
X86053171Y-109625000D01*
X86046888Y-109625321D01*
X85947304Y-109635493D01*
X85780877Y-109690642D01*
X85631654Y-109782683D01*
X85507683Y-109906654D01*
X85415642Y-110055877D01*
X85360493Y-110222303D01*
X85350319Y-110321890D01*
X85350000Y-110328168D01*
X85350000Y-110750000D01*
X84250500Y-110750000D01*
X84250500Y-110320734D01*
X84247646Y-110290301D01*
X84202793Y-110162118D01*
X84202792Y-110162115D01*
X84122152Y-110052851D01*
X84067516Y-110012528D01*
X84012882Y-109972207D01*
X84012880Y-109972206D01*
X83983544Y-109961941D01*
X83926768Y-109921219D01*
X83901022Y-109856266D01*
X83900500Y-109844900D01*
X83900500Y-108717254D01*
X83920185Y-108650215D01*
X83936814Y-108629578D01*
X84129574Y-108436819D01*
X84190897Y-108403334D01*
X84217255Y-108400500D01*
X86063433Y-108400500D01*
X86084499Y-108393655D01*
X86103414Y-108389112D01*
X86125304Y-108385646D01*
X86145042Y-108375587D01*
X86163016Y-108368142D01*
X86184090Y-108361296D01*
X86202021Y-108348267D01*
X86218598Y-108338109D01*
X86238342Y-108328050D01*
X86246674Y-108319717D01*
X86246680Y-108319713D01*
X87805483Y-106760909D01*
X87809416Y-106756976D01*
X87828050Y-106738342D01*
X87838107Y-106718601D01*
X87848277Y-106702008D01*
X87872844Y-106668198D01*
X87875139Y-106669865D01*
X87896997Y-106637894D01*
X87961353Y-106610691D01*
X88030201Y-106622599D01*
X88081681Y-106669838D01*
X88099499Y-106733881D01*
X88099499Y-111782745D01*
X88079814Y-111849784D01*
X88063180Y-111870426D01*
X87682401Y-112251204D01*
X87621078Y-112284689D01*
X87553445Y-112279852D01*
X87560914Y-112339636D01*
X87530718Y-112402644D01*
X87526210Y-112407396D01*
X87370424Y-112563182D01*
X87309103Y-112596666D01*
X87282745Y-112599500D01*
X87111955Y-112599500D01*
X87044916Y-112579815D01*
X86999161Y-112527011D01*
X86989217Y-112457853D01*
X87018242Y-112394297D01*
X87072951Y-112357794D01*
X87219120Y-112309358D01*
X87373427Y-112214181D01*
X87440820Y-112195741D01*
X87484915Y-112209580D01*
X87471036Y-112172369D01*
X87485888Y-112104096D01*
X87489182Y-112098426D01*
X87584357Y-111944123D01*
X87639506Y-111777696D01*
X87649680Y-111678109D01*
X87650000Y-111671831D01*
X87650000Y-111250000D01*
X85350001Y-111250000D01*
X85350001Y-111671829D01*
X85350321Y-111678111D01*
X85360493Y-111777695D01*
X85415642Y-111944122D01*
X85507683Y-112093345D01*
X85631654Y-112217316D01*
X85780877Y-112309357D01*
X85927048Y-112357794D01*
X85984493Y-112397567D01*
X86011316Y-112462083D01*
X85999001Y-112530858D01*
X85951458Y-112582058D01*
X85888044Y-112599500D01*
X83936567Y-112599500D01*
X83915491Y-112606347D01*
X83896580Y-112610887D01*
X83874693Y-112614354D01*
X83854952Y-112624412D01*
X83836987Y-112631854D01*
X83815910Y-112638703D01*
X83797982Y-112651728D01*
X83781402Y-112661888D01*
X83761658Y-112671948D01*
X83739095Y-112694512D01*
X83194513Y-113239094D01*
X83171949Y-113261657D01*
X83161892Y-113281396D01*
X83151732Y-113297976D01*
X83146277Y-113305486D01*
X83138702Y-113315913D01*
X83131854Y-113336987D01*
X83124412Y-113354954D01*
X83114353Y-113374697D01*
X83110886Y-113396582D01*
X83106347Y-113415492D01*
X83099500Y-113436567D01*
X83099498Y-113493137D01*
X83099500Y-113493146D01*
X83099500Y-113809908D01*
X83079815Y-113876947D01*
X83027011Y-113922702D01*
X83016455Y-113926949D01*
X82887117Y-113972206D01*
X82777849Y-114052849D01*
X82697207Y-114162115D01*
X82647352Y-114304597D01*
X82645881Y-114304082D01*
X82626798Y-114351987D01*
X82569952Y-114392611D01*
X82529198Y-114399500D01*
X78800097Y-114399500D01*
X78733058Y-114379815D01*
X78712416Y-114363181D01*
X78136819Y-113787583D01*
X78103334Y-113726260D01*
X78100500Y-113699902D01*
X78100500Y-111609244D01*
X78120185Y-111542205D01*
X78159220Y-111503819D01*
X78226562Y-111462124D01*
X78390981Y-111312236D01*
X78525058Y-111134689D01*
X78624229Y-110935528D01*
X78685115Y-110721536D01*
X78705643Y-110500000D01*
X78685115Y-110278464D01*
X78652011Y-110162115D01*
X78624230Y-110064473D01*
X78525058Y-109865311D01*
X78390980Y-109687762D01*
X78226562Y-109537875D01*
X78037404Y-109420754D01*
X77924428Y-109376987D01*
X77829940Y-109340382D01*
X77611243Y-109299500D01*
X77388757Y-109299500D01*
X77225117Y-109330090D01*
X77170060Y-109340382D01*
X76962595Y-109420754D01*
X76773437Y-109537875D01*
X76609019Y-109687762D01*
X76486333Y-109850227D01*
X76430224Y-109891863D01*
X76387379Y-109899500D01*
X72112621Y-109899500D01*
X72045582Y-109879815D01*
X72013667Y-109850227D01*
X71890980Y-109687762D01*
X71726562Y-109537875D01*
X71537404Y-109420754D01*
X71424428Y-109376987D01*
X71329940Y-109340382D01*
X71111243Y-109299500D01*
X70888757Y-109299500D01*
X70725117Y-109330090D01*
X70670060Y-109340382D01*
X70462595Y-109420754D01*
X70273437Y-109537875D01*
X70109019Y-109687762D01*
X69974941Y-109865311D01*
X69875769Y-110064473D01*
X69814885Y-110278462D01*
X69794357Y-110499999D01*
X69814885Y-110721537D01*
X69875769Y-110935526D01*
X69974941Y-111134688D01*
X70109019Y-111312237D01*
X70273437Y-111462124D01*
X70462595Y-111579245D01*
X70462597Y-111579245D01*
X70462599Y-111579247D01*
X70670060Y-111659618D01*
X70888757Y-111700500D01*
X70888759Y-111700500D01*
X71111241Y-111700500D01*
X71111243Y-111700500D01*
X71329940Y-111659618D01*
X71537401Y-111579247D01*
X71726562Y-111462124D01*
X71890981Y-111312236D01*
X72013667Y-111149772D01*
X72069776Y-111108137D01*
X72112621Y-111100500D01*
X76387379Y-111100500D01*
X76454418Y-111120185D01*
X76486333Y-111149773D01*
X76609019Y-111312237D01*
X76773435Y-111462122D01*
X76773437Y-111462123D01*
X76773438Y-111462124D01*
X76840778Y-111503818D01*
X76887412Y-111555843D01*
X76899500Y-111609244D01*
X76899500Y-113952511D01*
X76898439Y-113968696D01*
X76894317Y-113999999D01*
X76899500Y-114039360D01*
X76914956Y-114156762D01*
X76975463Y-114302840D01*
X77071716Y-114428281D01*
X77096768Y-114447503D01*
X77108964Y-114458199D01*
X78041799Y-115391034D01*
X78052494Y-115403229D01*
X78071717Y-115428282D01*
X78103691Y-115452816D01*
X78141034Y-115481470D01*
X78197159Y-115524536D01*
X78343238Y-115585044D01*
X78500000Y-115605683D01*
X78531308Y-115601560D01*
X78547494Y-115600500D01*
X82529198Y-115600500D01*
X82596237Y-115620185D01*
X82641992Y-115672989D01*
X82649993Y-115702952D01*
X82697207Y-115837884D01*
X82777849Y-115947150D01*
X82887115Y-116027792D01*
X82887118Y-116027793D01*
X83015301Y-116072646D01*
X83045734Y-116075500D01*
X83048627Y-116075500D01*
X83951373Y-116075500D01*
X83954266Y-116075500D01*
X83984699Y-116072646D01*
X84112882Y-116027793D01*
X84112882Y-116027792D01*
X84112884Y-116027792D01*
X84222150Y-115947150D01*
X84302792Y-115837884D01*
X84305919Y-115828948D01*
X84347646Y-115709699D01*
X84350500Y-115679266D01*
X84350500Y-115250000D01*
X85450001Y-115250000D01*
X85450001Y-115671829D01*
X85450321Y-115678111D01*
X85460493Y-115777695D01*
X85515642Y-115944122D01*
X85607683Y-116093345D01*
X85731654Y-116217316D01*
X85880877Y-116309357D01*
X86047303Y-116364506D01*
X86146890Y-116374680D01*
X86153168Y-116374999D01*
X86349999Y-116374999D01*
X86350000Y-116374998D01*
X86350000Y-115250000D01*
X86850000Y-115250000D01*
X86850000Y-116374999D01*
X87046829Y-116374999D01*
X87053111Y-116374678D01*
X87152695Y-116364506D01*
X87319122Y-116309357D01*
X87468345Y-116217316D01*
X87592316Y-116093345D01*
X87684357Y-115944122D01*
X87739506Y-115777696D01*
X87749680Y-115678109D01*
X87750000Y-115671831D01*
X87750000Y-115250000D01*
X86850000Y-115250000D01*
X86350000Y-115250000D01*
X85450001Y-115250000D01*
X84350500Y-115250000D01*
X84350500Y-115000000D01*
X117904417Y-115000000D01*
X117924699Y-115205932D01*
X117984769Y-115403956D01*
X118026202Y-115481470D01*
X118082315Y-115586450D01*
X118133608Y-115648952D01*
X118213589Y-115746410D01*
X118287372Y-115806961D01*
X118373550Y-115877685D01*
X118556046Y-115975232D01*
X118754066Y-116035300D01*
X118960000Y-116055583D01*
X119165934Y-116035300D01*
X119363954Y-115975232D01*
X119546450Y-115877685D01*
X119706410Y-115746410D01*
X119837685Y-115586450D01*
X119935232Y-115403954D01*
X119995300Y-115205934D01*
X120015583Y-115000000D01*
X120015583Y-114999999D01*
X120444417Y-114999999D01*
X120464699Y-115205932D01*
X120524769Y-115403956D01*
X120566202Y-115481470D01*
X120622315Y-115586450D01*
X120673608Y-115648952D01*
X120753589Y-115746410D01*
X120827372Y-115806961D01*
X120913550Y-115877685D01*
X121096046Y-115975232D01*
X121294066Y-116035300D01*
X121500000Y-116055583D01*
X121705934Y-116035300D01*
X121903954Y-115975232D01*
X122086450Y-115877685D01*
X122246410Y-115746410D01*
X122377685Y-115586450D01*
X122475232Y-115403954D01*
X122535300Y-115205934D01*
X122555583Y-115000000D01*
X122555583Y-114999999D01*
X122984417Y-114999999D01*
X123004699Y-115205932D01*
X123064769Y-115403956D01*
X123106202Y-115481470D01*
X123162315Y-115586450D01*
X123213608Y-115648952D01*
X123293589Y-115746410D01*
X123367372Y-115806961D01*
X123453550Y-115877685D01*
X123636046Y-115975232D01*
X123834066Y-116035300D01*
X124040000Y-116055583D01*
X124245934Y-116035300D01*
X124443954Y-115975232D01*
X124626450Y-115877685D01*
X124786410Y-115746410D01*
X124917685Y-115586450D01*
X124996643Y-115438730D01*
X125045604Y-115388888D01*
X125113742Y-115373427D01*
X125179421Y-115397259D01*
X125221790Y-115452816D01*
X125230000Y-115497185D01*
X125230000Y-115894518D01*
X125230354Y-115901132D01*
X125236400Y-115957371D01*
X125286647Y-116092089D01*
X125372811Y-116207188D01*
X125487910Y-116293352D01*
X125622628Y-116343599D01*
X125678867Y-116349645D01*
X125685482Y-116350000D01*
X126329999Y-116350000D01*
X126329999Y-115435501D01*
X126437685Y-115484680D01*
X126544237Y-115500000D01*
X126615763Y-115500000D01*
X126722315Y-115484680D01*
X126830000Y-115435501D01*
X126830000Y-116350000D01*
X127474518Y-116350000D01*
X127481132Y-116349645D01*
X127537371Y-116343599D01*
X127672089Y-116293352D01*
X127787188Y-116207188D01*
X127873352Y-116092089D01*
X127923599Y-115957371D01*
X127929645Y-115901132D01*
X127930000Y-115894518D01*
X127930000Y-115250000D01*
X127013686Y-115250000D01*
X127039493Y-115209844D01*
X127080000Y-115071889D01*
X127080000Y-114928111D01*
X127039493Y-114790156D01*
X127013686Y-114750000D01*
X127930000Y-114750000D01*
X127930000Y-114105481D01*
X127929645Y-114098867D01*
X127923599Y-114042628D01*
X127873352Y-113907910D01*
X127787188Y-113792811D01*
X127672089Y-113706647D01*
X127537371Y-113656400D01*
X127481132Y-113650354D01*
X127474518Y-113650000D01*
X126830000Y-113650000D01*
X126830000Y-114564498D01*
X126722315Y-114515320D01*
X126615763Y-114500000D01*
X126544237Y-114500000D01*
X126437685Y-114515320D01*
X126329999Y-114564498D01*
X126330000Y-113650000D01*
X125685482Y-113650000D01*
X125678867Y-113650354D01*
X125622628Y-113656400D01*
X125487910Y-113706647D01*
X125372811Y-113792811D01*
X125286647Y-113907910D01*
X125236400Y-114042628D01*
X125230354Y-114098867D01*
X125230000Y-114105481D01*
X125230000Y-114502814D01*
X125210315Y-114569853D01*
X125157511Y-114615608D01*
X125088353Y-114625552D01*
X125024797Y-114596527D01*
X124996642Y-114561267D01*
X124917685Y-114413550D01*
X124786410Y-114253590D01*
X124685835Y-114171050D01*
X124646501Y-114113304D01*
X124640500Y-114075197D01*
X124640500Y-105250000D01*
X126837501Y-105250000D01*
X126837501Y-105696829D01*
X126837821Y-105703111D01*
X126847993Y-105802695D01*
X126903142Y-105969122D01*
X126995183Y-106118345D01*
X127119154Y-106242316D01*
X127268377Y-106334357D01*
X127434803Y-106389506D01*
X127534390Y-106399680D01*
X127540668Y-106399999D01*
X127749999Y-106399999D01*
X127750000Y-106399998D01*
X127750000Y-105250000D01*
X128250000Y-105250000D01*
X128250000Y-106399999D01*
X128459329Y-106399999D01*
X128465611Y-106399678D01*
X128565195Y-106389506D01*
X128731622Y-106334357D01*
X128880845Y-106242316D01*
X129004816Y-106118345D01*
X129096857Y-105969122D01*
X129152006Y-105802696D01*
X129162180Y-105703109D01*
X129162500Y-105696831D01*
X129162500Y-105250000D01*
X128250000Y-105250000D01*
X127750000Y-105250000D01*
X126837501Y-105250000D01*
X124640500Y-105250000D01*
X124640500Y-104749999D01*
X126837499Y-104749999D01*
X126837500Y-104750000D01*
X127750000Y-104750000D01*
X127750000Y-103600000D01*
X128250000Y-103600000D01*
X128250000Y-104750000D01*
X129162499Y-104750000D01*
X129162499Y-104303170D01*
X129162178Y-104296888D01*
X129152006Y-104197304D01*
X129096857Y-104030877D01*
X129004816Y-103881654D01*
X128880845Y-103757683D01*
X128731622Y-103665642D01*
X128565196Y-103610493D01*
X128465609Y-103600319D01*
X128459332Y-103600000D01*
X128250000Y-103600000D01*
X127750000Y-103600000D01*
X127540671Y-103600000D01*
X127534388Y-103600321D01*
X127434804Y-103610493D01*
X127268377Y-103665642D01*
X127119154Y-103757683D01*
X126995183Y-103881654D01*
X126903142Y-104030877D01*
X126847993Y-104197303D01*
X126837819Y-104296890D01*
X126837500Y-104303168D01*
X126837499Y-104749999D01*
X124640500Y-104749999D01*
X124640500Y-100760097D01*
X124660185Y-100693058D01*
X124676819Y-100672416D01*
X125712416Y-99636819D01*
X125773739Y-99603334D01*
X125800097Y-99600500D01*
X131952513Y-99600500D01*
X131968697Y-99601560D01*
X132000000Y-99605682D01*
X132156762Y-99585044D01*
X132302841Y-99524536D01*
X132400014Y-99449973D01*
X132431095Y-99426124D01*
X132496264Y-99400930D01*
X132506581Y-99400500D01*
X138997747Y-99400500D01*
X139018813Y-99393655D01*
X139037728Y-99389112D01*
X139059618Y-99385646D01*
X139079356Y-99375587D01*
X139097330Y-99368142D01*
X139118404Y-99361296D01*
X139136335Y-99348267D01*
X139152912Y-99338109D01*
X139172656Y-99328050D01*
X139180988Y-99319717D01*
X139180994Y-99319713D01*
X139386195Y-99114512D01*
X140488232Y-98012473D01*
X140549551Y-97978991D01*
X140619242Y-97983975D01*
X140663590Y-98012476D01*
X140681623Y-98030509D01*
X141424086Y-97288047D01*
X141424086Y-97236685D01*
X141427389Y-97236685D01*
X141430603Y-97191988D01*
X141459085Y-97147687D01*
X141637278Y-96969495D01*
X141698601Y-96936010D01*
X141768293Y-96940994D01*
X141812640Y-96969495D01*
X142043510Y-97200365D01*
X142076995Y-97261688D01*
X142072011Y-97331380D01*
X142043510Y-97375727D01*
X141035176Y-98384061D01*
X141084337Y-98433222D01*
X141089253Y-98437638D01*
X141133308Y-98473140D01*
X141264092Y-98532867D01*
X141406407Y-98553328D01*
X141538707Y-98534307D01*
X141607865Y-98544251D01*
X141644034Y-98569364D01*
X141830670Y-98756000D01*
X141864155Y-98817323D01*
X141859171Y-98887015D01*
X141830670Y-98931362D01*
X140698853Y-100063181D01*
X140637530Y-100096666D01*
X140611172Y-100099500D01*
X136936565Y-100099500D01*
X136915491Y-100106346D01*
X136896586Y-100110885D01*
X136874698Y-100114353D01*
X136854957Y-100124411D01*
X136836987Y-100131854D01*
X136815911Y-100138702D01*
X136797979Y-100151730D01*
X136781400Y-100161889D01*
X136761661Y-100171947D01*
X136761657Y-100171950D01*
X136761658Y-100171950D01*
X136739094Y-100194513D01*
X136739091Y-100194516D01*
X136210614Y-100722993D01*
X135694513Y-101239094D01*
X135671949Y-101261657D01*
X135661892Y-101281396D01*
X135651731Y-101297979D01*
X135638702Y-101315913D01*
X135631854Y-101336987D01*
X135624412Y-101354954D01*
X135614353Y-101374697D01*
X135610886Y-101396582D01*
X135606347Y-101415491D01*
X135599500Y-101436566D01*
X135599500Y-104061988D01*
X135579815Y-104129027D01*
X135533953Y-104171346D01*
X135469375Y-104205863D01*
X135324643Y-104324642D01*
X135318601Y-104332005D01*
X135304545Y-104349133D01*
X135300415Y-104354165D01*
X135242670Y-104393499D01*
X135204562Y-104399500D01*
X132110646Y-104399500D01*
X132043607Y-104379815D01*
X131997852Y-104327011D01*
X131987188Y-104287076D01*
X131986102Y-104275500D01*
X131985146Y-104265301D01*
X131940293Y-104137118D01*
X131940292Y-104137115D01*
X131859650Y-104027849D01*
X131750384Y-103947207D01*
X131622196Y-103902353D01*
X131594651Y-103899770D01*
X131594639Y-103899769D01*
X131591766Y-103899500D01*
X130658234Y-103899500D01*
X130655361Y-103899769D01*
X130655348Y-103899770D01*
X130627803Y-103902353D01*
X130499615Y-103947207D01*
X130390349Y-104027849D01*
X130309707Y-104137115D01*
X130264853Y-104265303D01*
X130262270Y-104292848D01*
X130262269Y-104292861D01*
X130262000Y-104295734D01*
X130262000Y-105704266D01*
X130262269Y-105707139D01*
X130262270Y-105707151D01*
X130264853Y-105734696D01*
X130309707Y-105862884D01*
X130390349Y-105972150D01*
X130499615Y-106052792D01*
X130499618Y-106052793D01*
X130627801Y-106097646D01*
X130658234Y-106100500D01*
X130661127Y-106100500D01*
X131588873Y-106100500D01*
X131591766Y-106100500D01*
X131622199Y-106097646D01*
X131750382Y-106052793D01*
X131750382Y-106052792D01*
X131750384Y-106052792D01*
X131859650Y-105972150D01*
X131940292Y-105862884D01*
X131940293Y-105862882D01*
X131985146Y-105734699D01*
X131987188Y-105712923D01*
X132013045Y-105648015D01*
X132069890Y-105607389D01*
X132110646Y-105600500D01*
X135204562Y-105600500D01*
X135271601Y-105620185D01*
X135300414Y-105645834D01*
X135324643Y-105675357D01*
X135469375Y-105794136D01*
X135634499Y-105882396D01*
X135813669Y-105936747D01*
X136000000Y-105955099D01*
X136186331Y-105936747D01*
X136365501Y-105882396D01*
X136530625Y-105794136D01*
X136675357Y-105675357D01*
X136794136Y-105530625D01*
X136882396Y-105365501D01*
X136936747Y-105186331D01*
X136955099Y-105000000D01*
X136936747Y-104813669D01*
X136882396Y-104634499D01*
X136794136Y-104469375D01*
X136675357Y-104324643D01*
X136530625Y-104205864D01*
X136514610Y-104197304D01*
X136466047Y-104171346D01*
X136416202Y-104122384D01*
X136400500Y-104061988D01*
X136400500Y-101717255D01*
X136420185Y-101650216D01*
X136436819Y-101629574D01*
X137129574Y-100936819D01*
X137190897Y-100903334D01*
X137217255Y-100900500D01*
X140693542Y-100900500D01*
X140760581Y-100920185D01*
X140806336Y-100972989D01*
X140816280Y-101042147D01*
X140787255Y-101105703D01*
X140781223Y-101112181D01*
X139494516Y-102398889D01*
X139494513Y-102398892D01*
X139471949Y-102421455D01*
X139461892Y-102441194D01*
X139451731Y-102457777D01*
X139438702Y-102475711D01*
X139431854Y-102496785D01*
X139424412Y-102514752D01*
X139414353Y-102534495D01*
X139410886Y-102556380D01*
X139406347Y-102575289D01*
X139399500Y-102596364D01*
X139399500Y-104061988D01*
X139379815Y-104129027D01*
X139333953Y-104171346D01*
X139269376Y-104205863D01*
X139124643Y-104324643D01*
X139005863Y-104469375D01*
X138917603Y-104634499D01*
X138863253Y-104813667D01*
X138844901Y-105000000D01*
X138863253Y-105186332D01*
X138917603Y-105365500D01*
X139005863Y-105530624D01*
X139018331Y-105545816D01*
X139124643Y-105675357D01*
X139269375Y-105794136D01*
X139434499Y-105882396D01*
X139613669Y-105936747D01*
X139800000Y-105955099D01*
X139986331Y-105936747D01*
X140165501Y-105882396D01*
X140330625Y-105794136D01*
X140475357Y-105675357D01*
X140499585Y-105645834D01*
X140557330Y-105606501D01*
X140595438Y-105600500D01*
X143451854Y-105600500D01*
X143518893Y-105620185D01*
X143564648Y-105672989D01*
X143575312Y-105712924D01*
X143577353Y-105734696D01*
X143622207Y-105862884D01*
X143702849Y-105972150D01*
X143812115Y-106052792D01*
X143812118Y-106052793D01*
X143940301Y-106097646D01*
X143970734Y-106100500D01*
X143973627Y-106100500D01*
X144901373Y-106100500D01*
X144904266Y-106100500D01*
X144934699Y-106097646D01*
X145062882Y-106052793D01*
X145062882Y-106052792D01*
X145062884Y-106052792D01*
X145172150Y-105972150D01*
X145252792Y-105862884D01*
X145252793Y-105862882D01*
X145297646Y-105734699D01*
X145300500Y-105704266D01*
X145300500Y-105250000D01*
X146400001Y-105250000D01*
X146400001Y-105696829D01*
X146400321Y-105703111D01*
X146410493Y-105802695D01*
X146465642Y-105969122D01*
X146557683Y-106118345D01*
X146681654Y-106242316D01*
X146830877Y-106334357D01*
X146997303Y-106389506D01*
X147096890Y-106399680D01*
X147103168Y-106399999D01*
X147312499Y-106399999D01*
X147312500Y-106399998D01*
X147312500Y-105250000D01*
X147812500Y-105250000D01*
X147812500Y-106399999D01*
X148021829Y-106399999D01*
X148028111Y-106399678D01*
X148127695Y-106389506D01*
X148294122Y-106334357D01*
X148443345Y-106242316D01*
X148567316Y-106118345D01*
X148659357Y-105969122D01*
X148714506Y-105802696D01*
X148724680Y-105703109D01*
X148725000Y-105696831D01*
X148725000Y-105250000D01*
X147812500Y-105250000D01*
X147312500Y-105250000D01*
X146400001Y-105250000D01*
X145300500Y-105250000D01*
X145300500Y-104750000D01*
X146400000Y-104750000D01*
X147312500Y-104750000D01*
X147312500Y-103600000D01*
X147812500Y-103600000D01*
X147812500Y-104750000D01*
X148724999Y-104750000D01*
X148724999Y-104303170D01*
X148724678Y-104296888D01*
X148714506Y-104197304D01*
X148659357Y-104030877D01*
X148567316Y-103881654D01*
X148443345Y-103757683D01*
X148294122Y-103665642D01*
X148127696Y-103610493D01*
X148028109Y-103600319D01*
X148021832Y-103600000D01*
X147812500Y-103600000D01*
X147312500Y-103600000D01*
X147103171Y-103600000D01*
X147096888Y-103600321D01*
X146997304Y-103610493D01*
X146830877Y-103665642D01*
X146681654Y-103757683D01*
X146557683Y-103881654D01*
X146465642Y-104030877D01*
X146410493Y-104197303D01*
X146400319Y-104296890D01*
X146400000Y-104303168D01*
X146400000Y-104750000D01*
X145300500Y-104750000D01*
X145300500Y-104295734D01*
X145297646Y-104265301D01*
X145252793Y-104137118D01*
X145252792Y-104137115D01*
X145172150Y-104027849D01*
X145062884Y-103947207D01*
X144934696Y-103902353D01*
X144907151Y-103899770D01*
X144907139Y-103899769D01*
X144904266Y-103899500D01*
X143970734Y-103899500D01*
X143967861Y-103899769D01*
X143967848Y-103899770D01*
X143940303Y-103902353D01*
X143812115Y-103947207D01*
X143702849Y-104027849D01*
X143622207Y-104137115D01*
X143577353Y-104265303D01*
X143575312Y-104287076D01*
X143549455Y-104351985D01*
X143492610Y-104392611D01*
X143451854Y-104399500D01*
X140595438Y-104399500D01*
X140528399Y-104379815D01*
X140499585Y-104354165D01*
X140495455Y-104349133D01*
X140475357Y-104324643D01*
X140448792Y-104302841D01*
X140330624Y-104205863D01*
X140266047Y-104171346D01*
X140216202Y-104122384D01*
X140200500Y-104061988D01*
X140200500Y-102877052D01*
X140220185Y-102810013D01*
X140236814Y-102789376D01*
X143043233Y-99982956D01*
X143104554Y-99949473D01*
X143106639Y-99949038D01*
X143181695Y-99934110D01*
X143231275Y-99900982D01*
X144390574Y-98741683D01*
X144396898Y-98732218D01*
X144450507Y-98687413D01*
X144519832Y-98678704D01*
X144582860Y-98708857D01*
X144603099Y-98732215D01*
X144609426Y-98741683D01*
X144609427Y-98741684D01*
X145768725Y-99900982D01*
X145818303Y-99934109D01*
X145818305Y-99934110D01*
X145896536Y-99949670D01*
X145974768Y-99934110D01*
X146024347Y-99900982D01*
X146441184Y-99484145D01*
X146474312Y-99434566D01*
X146474312Y-99434563D01*
X146487101Y-99415424D01*
X146521314Y-99381211D01*
X146540450Y-99368424D01*
X146540453Y-99368424D01*
X146590032Y-99335296D01*
X147006869Y-98918459D01*
X147039997Y-98868880D01*
X147039997Y-98868877D01*
X147052784Y-98849741D01*
X147086997Y-98815528D01*
X147106136Y-98802739D01*
X147106139Y-98802739D01*
X147155718Y-98769611D01*
X147572555Y-98352774D01*
X147605683Y-98303195D01*
X147605683Y-98303192D01*
X147618471Y-98284055D01*
X147652684Y-98249842D01*
X147671821Y-98237054D01*
X147671824Y-98237054D01*
X147721403Y-98203926D01*
X148138240Y-97787089D01*
X148171368Y-97737510D01*
X148171367Y-97737510D01*
X148184158Y-97718369D01*
X148218369Y-97684158D01*
X148287090Y-97638239D01*
X148690315Y-97235014D01*
X148751638Y-97201529D01*
X148821329Y-97206513D01*
X148865677Y-97235014D01*
X149063181Y-97432518D01*
X149096666Y-97493841D01*
X149099500Y-97520199D01*
X149099500Y-98493419D01*
X149079815Y-98560458D01*
X149073876Y-98568905D01*
X148975463Y-98697159D01*
X148914956Y-98843237D01*
X148894317Y-99000000D01*
X148914956Y-99156762D01*
X148975463Y-99302840D01*
X149071717Y-99428282D01*
X149144520Y-99484145D01*
X149197159Y-99524536D01*
X149343238Y-99585044D01*
X149500000Y-99605682D01*
X149656762Y-99585044D01*
X149802841Y-99524536D01*
X149900013Y-99449973D01*
X149965183Y-99424779D01*
X150033628Y-99438817D01*
X150083617Y-99487631D01*
X150099500Y-99548349D01*
X150099500Y-99993419D01*
X150079815Y-100060458D01*
X150073876Y-100068905D01*
X149975463Y-100197159D01*
X149914956Y-100343237D01*
X149894317Y-100500000D01*
X149914956Y-100656762D01*
X149975462Y-100802838D01*
X149975463Y-100802840D01*
X149975464Y-100802841D01*
X150071718Y-100928282D01*
X150071720Y-100928283D01*
X150073876Y-100931093D01*
X150099070Y-100996263D01*
X150099500Y-101006580D01*
X150099500Y-106782745D01*
X150079815Y-106849784D01*
X150063181Y-106870426D01*
X149370426Y-107563181D01*
X149309103Y-107596666D01*
X149282745Y-107599500D01*
X141936567Y-107599500D01*
X141915491Y-107606347D01*
X141896582Y-107610886D01*
X141874697Y-107614353D01*
X141854954Y-107624412D01*
X141836987Y-107631854D01*
X141815913Y-107638702D01*
X141797979Y-107651731D01*
X141781396Y-107661892D01*
X141761657Y-107671949D01*
X141739095Y-107694512D01*
X140154513Y-109279094D01*
X140131949Y-109301657D01*
X140121892Y-109321396D01*
X140111731Y-109337979D01*
X140098702Y-109355913D01*
X140091854Y-109376987D01*
X140084412Y-109394954D01*
X140074353Y-109414697D01*
X140070886Y-109436582D01*
X140066347Y-109455491D01*
X140059500Y-109476566D01*
X140059500Y-112285500D01*
X140039815Y-112352539D01*
X139987011Y-112398294D01*
X139935500Y-112409500D01*
X139590251Y-112409500D01*
X139531769Y-112421132D01*
X139465447Y-112465447D01*
X139421132Y-112531769D01*
X139409500Y-112590251D01*
X139409500Y-114329748D01*
X139421132Y-114388230D01*
X139465447Y-114454552D01*
X139531769Y-114498867D01*
X139590251Y-114510500D01*
X139590252Y-114510500D01*
X141329749Y-114510500D01*
X141368388Y-114502814D01*
X141388231Y-114498867D01*
X141454552Y-114454552D01*
X141498867Y-114388231D01*
X141510500Y-114329748D01*
X141510500Y-112590252D01*
X141498867Y-112531769D01*
X141468598Y-112486469D01*
X141454552Y-112465447D01*
X141388230Y-112421132D01*
X141329749Y-112409500D01*
X141329748Y-112409500D01*
X140984500Y-112409500D01*
X140917461Y-112389815D01*
X140871706Y-112337011D01*
X140860500Y-112285500D01*
X140860500Y-109757255D01*
X140880185Y-109690216D01*
X140896819Y-109669574D01*
X142129574Y-108436819D01*
X142190897Y-108403334D01*
X142217255Y-108400500D01*
X149563433Y-108400500D01*
X149584499Y-108393655D01*
X149603414Y-108389112D01*
X149625304Y-108385646D01*
X149645042Y-108375587D01*
X149663016Y-108368142D01*
X149684090Y-108361296D01*
X149702021Y-108348267D01*
X149718598Y-108338109D01*
X149738342Y-108328050D01*
X149746674Y-108319717D01*
X149746680Y-108319713D01*
X150819713Y-107246681D01*
X150819717Y-107246673D01*
X150828050Y-107238342D01*
X150838108Y-107218600D01*
X150848267Y-107202021D01*
X150861297Y-107184089D01*
X150861297Y-107184086D01*
X150872843Y-107168197D01*
X150875139Y-107169865D01*
X150897002Y-107137890D01*
X150961359Y-107110689D01*
X151030206Y-107122600D01*
X151081684Y-107169842D01*
X151099500Y-107233880D01*
X151099500Y-112340490D01*
X151079815Y-112407529D01*
X151027011Y-112453284D01*
X150957853Y-112463228D01*
X150939505Y-112459151D01*
X150825932Y-112424699D01*
X150620000Y-112404417D01*
X150414067Y-112424699D01*
X150216043Y-112484769D01*
X150033551Y-112582314D01*
X149873589Y-112713589D01*
X149742314Y-112873551D01*
X149644769Y-113056043D01*
X149584699Y-113254067D01*
X149564417Y-113459999D01*
X149584699Y-113665932D01*
X149584700Y-113665934D01*
X149644768Y-113863954D01*
X149742315Y-114046450D01*
X149765907Y-114075197D01*
X149873589Y-114206410D01*
X149931078Y-114253589D01*
X150033550Y-114337685D01*
X150216046Y-114435232D01*
X150282553Y-114455406D01*
X150340990Y-114493703D01*
X150369446Y-114557515D01*
X150358886Y-114626582D01*
X150312662Y-114678975D01*
X150278650Y-114693841D01*
X150156507Y-114726569D01*
X149942421Y-114826400D01*
X149748921Y-114961890D01*
X149581893Y-115128918D01*
X149451575Y-115315032D01*
X149396998Y-115358656D01*
X149327499Y-115365849D01*
X149265145Y-115334327D01*
X149248425Y-115315032D01*
X149118106Y-115128918D01*
X148951081Y-114961893D01*
X148757576Y-114826399D01*
X148543492Y-114726569D01*
X148421349Y-114693841D01*
X148361689Y-114657476D01*
X148331160Y-114594629D01*
X148339455Y-114525253D01*
X148383940Y-114471375D01*
X148417444Y-114455407D01*
X148483954Y-114435232D01*
X148666450Y-114337685D01*
X148826410Y-114206410D01*
X148957685Y-114046450D01*
X149055232Y-113863954D01*
X149115300Y-113665934D01*
X149135583Y-113460000D01*
X149115300Y-113254066D01*
X149055232Y-113056046D01*
X148957685Y-112873550D01*
X148867854Y-112764090D01*
X148826410Y-112713589D01*
X148701265Y-112610887D01*
X148666450Y-112582315D01*
X148483954Y-112484768D01*
X148380164Y-112453284D01*
X148285932Y-112424699D01*
X148102497Y-112406632D01*
X148080000Y-112404417D01*
X148079999Y-112404417D01*
X147874067Y-112424699D01*
X147676043Y-112484769D01*
X147493551Y-112582314D01*
X147333589Y-112713589D01*
X147202314Y-112873551D01*
X147104769Y-113056043D01*
X147044699Y-113254067D01*
X147024417Y-113459999D01*
X147044699Y-113665932D01*
X147044700Y-113665934D01*
X147104768Y-113863954D01*
X147202315Y-114046450D01*
X147225907Y-114075197D01*
X147333589Y-114206410D01*
X147391078Y-114253589D01*
X147493550Y-114337685D01*
X147676046Y-114435232D01*
X147742553Y-114455406D01*
X147800990Y-114493703D01*
X147829446Y-114557515D01*
X147818886Y-114626582D01*
X147772662Y-114678975D01*
X147738650Y-114693841D01*
X147616507Y-114726569D01*
X147402421Y-114826400D01*
X147208921Y-114961890D01*
X147041893Y-115128918D01*
X146911575Y-115315032D01*
X146856998Y-115358656D01*
X146787499Y-115365849D01*
X146725145Y-115334327D01*
X146708425Y-115315032D01*
X146578106Y-115128918D01*
X146411081Y-114961893D01*
X146217576Y-114826399D01*
X146003492Y-114726569D01*
X145881349Y-114693841D01*
X145821689Y-114657476D01*
X145791160Y-114594629D01*
X145799455Y-114525253D01*
X145843940Y-114471375D01*
X145877444Y-114455407D01*
X145943954Y-114435232D01*
X146126450Y-114337685D01*
X146286410Y-114206410D01*
X146417685Y-114046450D01*
X146515232Y-113863954D01*
X146575300Y-113665934D01*
X146595583Y-113460000D01*
X146575300Y-113254066D01*
X146515232Y-113056046D01*
X146417685Y-112873550D01*
X146327854Y-112764090D01*
X146286410Y-112713589D01*
X146161265Y-112610887D01*
X146126450Y-112582315D01*
X145943954Y-112484768D01*
X145840164Y-112453284D01*
X145745932Y-112424699D01*
X145540000Y-112404417D01*
X145334067Y-112424699D01*
X145136043Y-112484769D01*
X144953551Y-112582314D01*
X144793589Y-112713589D01*
X144662314Y-112873551D01*
X144564769Y-113056043D01*
X144504699Y-113254067D01*
X144484417Y-113460000D01*
X144504699Y-113665932D01*
X144504700Y-113665934D01*
X144564768Y-113863954D01*
X144662315Y-114046450D01*
X144685907Y-114075197D01*
X144793589Y-114206410D01*
X144851078Y-114253589D01*
X144953550Y-114337685D01*
X145136046Y-114435232D01*
X145202553Y-114455406D01*
X145260990Y-114493703D01*
X145289446Y-114557515D01*
X145278886Y-114626582D01*
X145232662Y-114678975D01*
X145198650Y-114693841D01*
X145076507Y-114726569D01*
X144862421Y-114826400D01*
X144668921Y-114961890D01*
X144501893Y-115128918D01*
X144371575Y-115315032D01*
X144316998Y-115358656D01*
X144247499Y-115365849D01*
X144185145Y-115334327D01*
X144168425Y-115315032D01*
X144038106Y-115128918D01*
X143871081Y-114961893D01*
X143677576Y-114826399D01*
X143463492Y-114726569D01*
X143341349Y-114693841D01*
X143281689Y-114657476D01*
X143251160Y-114594629D01*
X143259455Y-114525253D01*
X143303940Y-114471375D01*
X143337444Y-114455407D01*
X143403954Y-114435232D01*
X143586450Y-114337685D01*
X143746410Y-114206410D01*
X143877685Y-114046450D01*
X143975232Y-113863954D01*
X144035300Y-113665934D01*
X144055583Y-113460000D01*
X144035300Y-113254066D01*
X143975232Y-113056046D01*
X143877685Y-112873550D01*
X143787854Y-112764090D01*
X143746410Y-112713589D01*
X143621265Y-112610887D01*
X143586450Y-112582315D01*
X143403954Y-112484768D01*
X143300164Y-112453284D01*
X143205932Y-112424699D01*
X143000000Y-112404417D01*
X142794067Y-112424699D01*
X142596043Y-112484769D01*
X142413551Y-112582314D01*
X142253589Y-112713589D01*
X142122314Y-112873551D01*
X142024769Y-113056043D01*
X141964699Y-113254067D01*
X141944417Y-113460000D01*
X141964699Y-113665932D01*
X141964700Y-113665934D01*
X142024768Y-113863954D01*
X142122315Y-114046450D01*
X142145907Y-114075197D01*
X142253589Y-114206410D01*
X142311078Y-114253589D01*
X142413550Y-114337685D01*
X142596046Y-114435232D01*
X142662553Y-114455406D01*
X142720990Y-114493703D01*
X142749446Y-114557515D01*
X142738886Y-114626582D01*
X142692662Y-114678975D01*
X142658650Y-114693841D01*
X142536507Y-114726569D01*
X142322421Y-114826400D01*
X142128921Y-114961890D01*
X141961890Y-115128921D01*
X141826400Y-115322421D01*
X141726569Y-115536507D01*
X141693841Y-115658650D01*
X141657476Y-115718310D01*
X141594628Y-115748839D01*
X141525253Y-115740544D01*
X141471375Y-115696059D01*
X141455407Y-115662555D01*
X141435232Y-115596046D01*
X141337685Y-115413550D01*
X141256834Y-115315032D01*
X141206410Y-115253589D01*
X141054499Y-115128921D01*
X141046450Y-115122315D01*
X140863954Y-115024768D01*
X140764944Y-114994734D01*
X140665932Y-114964699D01*
X140460000Y-114944417D01*
X140254067Y-114964699D01*
X140056043Y-115024769D01*
X139873551Y-115122314D01*
X139713589Y-115253589D01*
X139582314Y-115413551D01*
X139484769Y-115596043D01*
X139424699Y-115794067D01*
X139404417Y-116000000D01*
X139424699Y-116205932D01*
X139438067Y-116250000D01*
X139484768Y-116403954D01*
X139582315Y-116586450D01*
X139621462Y-116634151D01*
X139713589Y-116746410D01*
X139738608Y-116766942D01*
X139873550Y-116877685D01*
X140056046Y-116975232D01*
X140254066Y-117035300D01*
X140460000Y-117055583D01*
X140665934Y-117035300D01*
X140863954Y-116975232D01*
X141046450Y-116877685D01*
X141206410Y-116746410D01*
X141337685Y-116586450D01*
X141435232Y-116403954D01*
X141455406Y-116337446D01*
X141493702Y-116279010D01*
X141557514Y-116250553D01*
X141626581Y-116261112D01*
X141678975Y-116307336D01*
X141693841Y-116341349D01*
X141726569Y-116463492D01*
X141826399Y-116677576D01*
X141961893Y-116871081D01*
X142128918Y-117038106D01*
X142322423Y-117173600D01*
X142536509Y-117273430D01*
X142750000Y-117330634D01*
X142750000Y-116435501D01*
X142857685Y-116484680D01*
X142964237Y-116500000D01*
X143035763Y-116500000D01*
X143142315Y-116484680D01*
X143250000Y-116435501D01*
X143250000Y-117330633D01*
X143463490Y-117273430D01*
X143677576Y-117173600D01*
X143871081Y-117038106D01*
X144038106Y-116871081D01*
X144168425Y-116684968D01*
X144223002Y-116641344D01*
X144292501Y-116634151D01*
X144354855Y-116665673D01*
X144371575Y-116684968D01*
X144501893Y-116871081D01*
X144668918Y-117038106D01*
X144862423Y-117173600D01*
X145076509Y-117273430D01*
X145290000Y-117330634D01*
X145290000Y-116435501D01*
X145397685Y-116484680D01*
X145504237Y-116500000D01*
X145575763Y-116500000D01*
X145682315Y-116484680D01*
X145790000Y-116435501D01*
X145790000Y-117330633D01*
X146003490Y-117273430D01*
X146217576Y-117173600D01*
X146411081Y-117038106D01*
X146578106Y-116871081D01*
X146708425Y-116684968D01*
X146763002Y-116641344D01*
X146832501Y-116634151D01*
X146894855Y-116665673D01*
X146911575Y-116684968D01*
X147041893Y-116871081D01*
X147208918Y-117038106D01*
X147402423Y-117173600D01*
X147616509Y-117273430D01*
X147830000Y-117330634D01*
X147830000Y-116435501D01*
X147937685Y-116484680D01*
X148044237Y-116500000D01*
X148115763Y-116500000D01*
X148222315Y-116484680D01*
X148330000Y-116435501D01*
X148330000Y-117330633D01*
X148543490Y-117273430D01*
X148757576Y-117173600D01*
X148951081Y-117038106D01*
X149118106Y-116871081D01*
X149248425Y-116684968D01*
X149303002Y-116641344D01*
X149372501Y-116634151D01*
X149434855Y-116665673D01*
X149451575Y-116684968D01*
X149581893Y-116871081D01*
X149748918Y-117038106D01*
X149942423Y-117173600D01*
X150156509Y-117273430D01*
X150370000Y-117330634D01*
X150370000Y-116435501D01*
X150477685Y-116484680D01*
X150584237Y-116500000D01*
X150655763Y-116500000D01*
X150762315Y-116484680D01*
X150870000Y-116435501D01*
X150870000Y-117330633D01*
X151083490Y-117273430D01*
X151297576Y-117173600D01*
X151491081Y-117038106D01*
X151658106Y-116871081D01*
X151793600Y-116677576D01*
X151893430Y-116463492D01*
X151950636Y-116250000D01*
X151053686Y-116250000D01*
X151079493Y-116209844D01*
X151120000Y-116071889D01*
X151120000Y-115928111D01*
X151079493Y-115790156D01*
X151053686Y-115750000D01*
X151950636Y-115750000D01*
X151950635Y-115749999D01*
X151893430Y-115536507D01*
X151793599Y-115322421D01*
X151658109Y-115128921D01*
X151491081Y-114961893D01*
X151297576Y-114826399D01*
X151083492Y-114726569D01*
X150961349Y-114693841D01*
X150901689Y-114657476D01*
X150871160Y-114594629D01*
X150879455Y-114525253D01*
X150923940Y-114471375D01*
X150957444Y-114455407D01*
X151023954Y-114435232D01*
X151206450Y-114337685D01*
X151366410Y-114206410D01*
X151497685Y-114046450D01*
X151595232Y-113863954D01*
X151655300Y-113665934D01*
X151675583Y-113460000D01*
X151655300Y-113254066D01*
X151615668Y-113123418D01*
X151615046Y-113053552D01*
X151646647Y-112999745D01*
X151805484Y-112840909D01*
X151805484Y-112840908D01*
X151819713Y-112826680D01*
X151819717Y-112826674D01*
X151828050Y-112818342D01*
X151838109Y-112798598D01*
X151848267Y-112782021D01*
X151861296Y-112764090D01*
X151868142Y-112743016D01*
X151875587Y-112725042D01*
X151885646Y-112705304D01*
X151889112Y-112683414D01*
X151893655Y-112664499D01*
X151900500Y-112643433D01*
X151900500Y-107548349D01*
X151920185Y-107481310D01*
X151972989Y-107435555D01*
X152042147Y-107425611D01*
X152099986Y-107449973D01*
X152197158Y-107524536D01*
X152197159Y-107524536D01*
X152343238Y-107585044D01*
X152500000Y-107605682D01*
X152656762Y-107585044D01*
X152802841Y-107524536D01*
X152900014Y-107449973D01*
X152931095Y-107426124D01*
X152996264Y-107400930D01*
X153006581Y-107400500D01*
X157282745Y-107400500D01*
X157349784Y-107420185D01*
X157370426Y-107436819D01*
X158943181Y-109009573D01*
X158976666Y-109070896D01*
X158979500Y-109097254D01*
X158979500Y-113948599D01*
X158959815Y-114015638D01*
X158913954Y-114057957D01*
X158793549Y-114122315D01*
X158633589Y-114253589D01*
X158502314Y-114413551D01*
X158404769Y-114596043D01*
X158344699Y-114794067D01*
X158324417Y-115000000D01*
X158344699Y-115205932D01*
X158404769Y-115403956D01*
X158446202Y-115481470D01*
X158502315Y-115586450D01*
X158553608Y-115648952D01*
X158633589Y-115746410D01*
X158707372Y-115806961D01*
X158793550Y-115877685D01*
X158976046Y-115975232D01*
X159174066Y-116035300D01*
X159380000Y-116055583D01*
X159585934Y-116035300D01*
X159783954Y-115975232D01*
X159966450Y-115877685D01*
X160126410Y-115746410D01*
X160257685Y-115586450D01*
X160355232Y-115403954D01*
X160415300Y-115205934D01*
X160435583Y-115000000D01*
X160415300Y-114794066D01*
X160355232Y-114596046D01*
X160257685Y-114413550D01*
X160182462Y-114321890D01*
X160126410Y-114253589D01*
X159966450Y-114122315D01*
X159846046Y-114057957D01*
X159796202Y-114008994D01*
X159780500Y-113948599D01*
X159780500Y-108839677D01*
X159780499Y-108839661D01*
X159780499Y-108816568D01*
X159780499Y-108816567D01*
X159773652Y-108795498D01*
X159769111Y-108776578D01*
X159765646Y-108754697D01*
X159765646Y-108754696D01*
X159755584Y-108734949D01*
X159748141Y-108716979D01*
X159741296Y-108695910D01*
X159728276Y-108677990D01*
X159718104Y-108661392D01*
X159708050Y-108641658D01*
X159618342Y-108551950D01*
X158113350Y-107046957D01*
X157754690Y-106688296D01*
X157754675Y-106688283D01*
X157738342Y-106671950D01*
X157738341Y-106671949D01*
X157738339Y-106671947D01*
X157718599Y-106661889D01*
X157702014Y-106651726D01*
X157684090Y-106638704D01*
X157663020Y-106631858D01*
X157645044Y-106624412D01*
X157625302Y-106614353D01*
X157603418Y-106610886D01*
X157584507Y-106606346D01*
X157563435Y-106599500D01*
X157563433Y-106599500D01*
X157531519Y-106599500D01*
X153006581Y-106599500D01*
X152939542Y-106579815D01*
X152931095Y-106573876D01*
X152802840Y-106475463D01*
X152656762Y-106414956D01*
X152500000Y-106394317D01*
X152343237Y-106414956D01*
X152197159Y-106475463D01*
X152099986Y-106550026D01*
X152034816Y-106575220D01*
X151966372Y-106561181D01*
X151916382Y-106512367D01*
X151900500Y-106451650D01*
X151900500Y-105548349D01*
X151920185Y-105481310D01*
X151972989Y-105435555D01*
X152042147Y-105425611D01*
X152099986Y-105449973D01*
X152197158Y-105524536D01*
X152197159Y-105524536D01*
X152343238Y-105585044D01*
X152500000Y-105605682D01*
X152656762Y-105585044D01*
X152802841Y-105524536D01*
X152903233Y-105447503D01*
X152931095Y-105426124D01*
X152996264Y-105400930D01*
X153006581Y-105400500D01*
X159782745Y-105400500D01*
X159849784Y-105420185D01*
X159870426Y-105436819D01*
X161483182Y-107049575D01*
X161516666Y-107110896D01*
X161519500Y-107137254D01*
X161519500Y-113948599D01*
X161499815Y-114015638D01*
X161453954Y-114057957D01*
X161333549Y-114122315D01*
X161173589Y-114253589D01*
X161042314Y-114413551D01*
X160944769Y-114596043D01*
X160884699Y-114794067D01*
X160864417Y-115000000D01*
X160884699Y-115205932D01*
X160944769Y-115403956D01*
X160986202Y-115481470D01*
X161042315Y-115586450D01*
X161093609Y-115648952D01*
X161173589Y-115746410D01*
X161247372Y-115806961D01*
X161333550Y-115877685D01*
X161516046Y-115975232D01*
X161714066Y-116035300D01*
X161920000Y-116055583D01*
X162125934Y-116035300D01*
X162323954Y-115975232D01*
X162506450Y-115877685D01*
X162666410Y-115746410D01*
X162797685Y-115586450D01*
X162895232Y-115403954D01*
X162955300Y-115205934D01*
X162975583Y-115000000D01*
X162955300Y-114794066D01*
X162895232Y-114596046D01*
X162797685Y-114413550D01*
X162722462Y-114321890D01*
X162666410Y-114253589D01*
X162506450Y-114122315D01*
X162386046Y-114057957D01*
X162336202Y-114008994D01*
X162320500Y-113948599D01*
X162320500Y-106856566D01*
X162313653Y-106835494D01*
X162309112Y-106816580D01*
X162305646Y-106794696D01*
X162295588Y-106774958D01*
X162288140Y-106756976D01*
X162282086Y-106738342D01*
X162281296Y-106735910D01*
X162268271Y-106717982D01*
X162258106Y-106701394D01*
X162255948Y-106697159D01*
X162248050Y-106681658D01*
X162234168Y-106667776D01*
X162234166Y-106667773D01*
X160254690Y-104688296D01*
X160254675Y-104688283D01*
X160238342Y-104671950D01*
X160238341Y-104671949D01*
X160238339Y-104671947D01*
X160218599Y-104661889D01*
X160202014Y-104651726D01*
X160184090Y-104638704D01*
X160163020Y-104631858D01*
X160145044Y-104624412D01*
X160125302Y-104614353D01*
X160103418Y-104610886D01*
X160084507Y-104606346D01*
X160063435Y-104599500D01*
X160063433Y-104599500D01*
X160031519Y-104599500D01*
X153006581Y-104599500D01*
X152939542Y-104579815D01*
X152931095Y-104573876D01*
X152802840Y-104475463D01*
X152656762Y-104414956D01*
X152500000Y-104394317D01*
X152343237Y-104414956D01*
X152197159Y-104475463D01*
X152099986Y-104550026D01*
X152034816Y-104575220D01*
X151966372Y-104561181D01*
X151916382Y-104512367D01*
X151900500Y-104451650D01*
X151900500Y-101048349D01*
X151920185Y-100981310D01*
X151972989Y-100935555D01*
X152042147Y-100925611D01*
X152099986Y-100949973D01*
X152157564Y-100994154D01*
X152197159Y-101024536D01*
X152343238Y-101085044D01*
X152500000Y-101105682D01*
X152656762Y-101085044D01*
X152802841Y-101024536D01*
X152900501Y-100949599D01*
X152931095Y-100926124D01*
X152996264Y-100900930D01*
X153006581Y-100900500D01*
X192563433Y-100900500D01*
X192584499Y-100893655D01*
X192603414Y-100889112D01*
X192625304Y-100885646D01*
X192645042Y-100875587D01*
X192663016Y-100868142D01*
X192684090Y-100861296D01*
X192702021Y-100848267D01*
X192718598Y-100838109D01*
X192738342Y-100828050D01*
X192746674Y-100819717D01*
X192746680Y-100819713D01*
X193709574Y-99856819D01*
X193770897Y-99823334D01*
X193797255Y-99820500D01*
X207448600Y-99820500D01*
X207515639Y-99840185D01*
X207557957Y-99886046D01*
X207622315Y-100006450D01*
X207658077Y-100050026D01*
X207753589Y-100166410D01*
X207833569Y-100232047D01*
X207913550Y-100297685D01*
X208096046Y-100395232D01*
X208162553Y-100415406D01*
X208220990Y-100453703D01*
X208249446Y-100517515D01*
X208238886Y-100586582D01*
X208192662Y-100638975D01*
X208158650Y-100653841D01*
X208036507Y-100686569D01*
X207822421Y-100786400D01*
X207628921Y-100921890D01*
X207461890Y-101088921D01*
X207326400Y-101282421D01*
X207226569Y-101496507D01*
X207169364Y-101709999D01*
X207169364Y-101710000D01*
X208066314Y-101710000D01*
X208040507Y-101750156D01*
X208000000Y-101888111D01*
X208000000Y-102031889D01*
X208040507Y-102169844D01*
X208066314Y-102210000D01*
X207169364Y-102210000D01*
X207226569Y-102423492D01*
X207326399Y-102637576D01*
X207461893Y-102831081D01*
X207628918Y-102998106D01*
X207822423Y-103133600D01*
X208036508Y-103233430D01*
X208158649Y-103266158D01*
X208218310Y-103302523D01*
X208248839Y-103365370D01*
X208240544Y-103434745D01*
X208196059Y-103488623D01*
X208162552Y-103504593D01*
X208096047Y-103524767D01*
X207913551Y-103622314D01*
X207753589Y-103753589D01*
X207622314Y-103913551D01*
X207524769Y-104096043D01*
X207524768Y-104096045D01*
X207524768Y-104096046D01*
X207465070Y-104292848D01*
X207461155Y-104305753D01*
X207458365Y-104304906D01*
X207439164Y-104352449D01*
X207382126Y-104392803D01*
X207341928Y-104399500D01*
X203133755Y-104399500D01*
X203066716Y-104379815D01*
X203033984Y-104349133D01*
X203017657Y-104327011D01*
X202992444Y-104292848D01*
X202972148Y-104265347D01*
X202862884Y-104184707D01*
X202734696Y-104139853D01*
X202707151Y-104137270D01*
X202707139Y-104137269D01*
X202704266Y-104137000D01*
X201295734Y-104137000D01*
X201292861Y-104137269D01*
X201292848Y-104137270D01*
X201265303Y-104139853D01*
X201137115Y-104184707D01*
X201027851Y-104265347D01*
X200966016Y-104349133D01*
X200910368Y-104391384D01*
X200866245Y-104399500D01*
X197124500Y-104399500D01*
X197057461Y-104379815D01*
X197011706Y-104327011D01*
X197000500Y-104275500D01*
X197000500Y-104180251D01*
X196988867Y-104121769D01*
X196944552Y-104055447D01*
X196878230Y-104011132D01*
X196819749Y-103999500D01*
X196819748Y-103999500D01*
X196368481Y-103999500D01*
X196301442Y-103979815D01*
X196255687Y-103927011D01*
X196245743Y-103857853D01*
X196274768Y-103794297D01*
X196333546Y-103756523D01*
X196336387Y-103755725D01*
X196446326Y-103726266D01*
X196652480Y-103630134D01*
X196725472Y-103579025D01*
X196044401Y-102897953D01*
X196125148Y-102885165D01*
X196238045Y-102827641D01*
X196327641Y-102738045D01*
X196385165Y-102625148D01*
X196397953Y-102544399D01*
X197079025Y-103225472D01*
X197130134Y-103152480D01*
X197226266Y-102946326D01*
X197285141Y-102726602D01*
X197304966Y-102500000D01*
X197285141Y-102273397D01*
X197245378Y-102125000D01*
X200600001Y-102125000D01*
X200600001Y-102334329D01*
X200600321Y-102340611D01*
X200610493Y-102440195D01*
X200665642Y-102606622D01*
X200757683Y-102755845D01*
X200881654Y-102879816D01*
X201030877Y-102971857D01*
X201197303Y-103027006D01*
X201296890Y-103037180D01*
X201303168Y-103037499D01*
X201749999Y-103037499D01*
X201750000Y-103037498D01*
X201750000Y-102125000D01*
X202250000Y-102125000D01*
X202250000Y-103037499D01*
X202696829Y-103037499D01*
X202703111Y-103037178D01*
X202802695Y-103027006D01*
X202969122Y-102971857D01*
X203118345Y-102879816D01*
X203242316Y-102755845D01*
X203334357Y-102606622D01*
X203389506Y-102440196D01*
X203399680Y-102340609D01*
X203400000Y-102334331D01*
X203400000Y-102125000D01*
X202250000Y-102125000D01*
X201750000Y-102125000D01*
X200600001Y-102125000D01*
X197245378Y-102125000D01*
X197226266Y-102053673D01*
X197130133Y-101847515D01*
X197079025Y-101774526D01*
X196397953Y-102455598D01*
X196385165Y-102374852D01*
X196327641Y-102261955D01*
X196238045Y-102172359D01*
X196125148Y-102114835D01*
X196044400Y-102102046D01*
X196521446Y-101625000D01*
X200600000Y-101625000D01*
X201750000Y-101625000D01*
X201750000Y-100712500D01*
X202250000Y-100712500D01*
X202250000Y-101625000D01*
X203399999Y-101625000D01*
X203399999Y-101415670D01*
X203399678Y-101409388D01*
X203389506Y-101309804D01*
X203334357Y-101143377D01*
X203242316Y-100994154D01*
X203118345Y-100870183D01*
X202969122Y-100778142D01*
X202802696Y-100722993D01*
X202703109Y-100712819D01*
X202696832Y-100712500D01*
X202250000Y-100712500D01*
X201750000Y-100712500D01*
X201303171Y-100712500D01*
X201296888Y-100712821D01*
X201197304Y-100722993D01*
X201030877Y-100778142D01*
X200881654Y-100870183D01*
X200757683Y-100994154D01*
X200665642Y-101143377D01*
X200610493Y-101309803D01*
X200600319Y-101409390D01*
X200600000Y-101415668D01*
X200600000Y-101625000D01*
X196521446Y-101625000D01*
X196725472Y-101420974D01*
X196725471Y-101420972D01*
X196652484Y-101369866D01*
X196446326Y-101273733D01*
X196226602Y-101214858D01*
X196000000Y-101195033D01*
X195773397Y-101214858D01*
X195553672Y-101273733D01*
X195347516Y-101369865D01*
X195274527Y-101420973D01*
X195274526Y-101420973D01*
X195955600Y-102102046D01*
X195874852Y-102114835D01*
X195761955Y-102172359D01*
X195672359Y-102261955D01*
X195614835Y-102374852D01*
X195602046Y-102455599D01*
X194920973Y-101774526D01*
X194920973Y-101774527D01*
X194869865Y-101847516D01*
X194773733Y-102053672D01*
X194714858Y-102273397D01*
X194695033Y-102500000D01*
X194714858Y-102726602D01*
X194773733Y-102946326D01*
X194869866Y-103152484D01*
X194920972Y-103225471D01*
X194920974Y-103225472D01*
X195602046Y-102544399D01*
X195614835Y-102625148D01*
X195672359Y-102738045D01*
X195761955Y-102827641D01*
X195874852Y-102885165D01*
X195955599Y-102897953D01*
X195274526Y-103579025D01*
X195274526Y-103579026D01*
X195347515Y-103630133D01*
X195553673Y-103726266D01*
X195663613Y-103755725D01*
X195723273Y-103792090D01*
X195753802Y-103854937D01*
X195745507Y-103924313D01*
X195701022Y-103978191D01*
X195634470Y-103999465D01*
X195631519Y-103999500D01*
X195180251Y-103999500D01*
X195121769Y-104011132D01*
X195055447Y-104055447D01*
X195011132Y-104121769D01*
X194999500Y-104180251D01*
X194999500Y-105819748D01*
X195011132Y-105878230D01*
X195055447Y-105944552D01*
X195121769Y-105988867D01*
X195180251Y-106000500D01*
X195180252Y-106000500D01*
X195275500Y-106000500D01*
X195342539Y-106020185D01*
X195388294Y-106072989D01*
X195399500Y-106124500D01*
X195399500Y-116699903D01*
X195379815Y-116766942D01*
X195363181Y-116787584D01*
X193787584Y-118363181D01*
X193726261Y-118396666D01*
X193699903Y-118399500D01*
X165800097Y-118399500D01*
X165733058Y-118379815D01*
X165712416Y-118363181D01*
X165096819Y-117747584D01*
X165063334Y-117686261D01*
X165060500Y-117659903D01*
X165060500Y-115924802D01*
X165080185Y-115857763D01*
X165105836Y-115828948D01*
X165206410Y-115746410D01*
X165337685Y-115586450D01*
X165416643Y-115438730D01*
X165465604Y-115388888D01*
X165533742Y-115373427D01*
X165599421Y-115397259D01*
X165641790Y-115452816D01*
X165650000Y-115497185D01*
X165650000Y-115894518D01*
X165650354Y-115901132D01*
X165656400Y-115957371D01*
X165706647Y-116092089D01*
X165792811Y-116207188D01*
X165907910Y-116293352D01*
X166042628Y-116343599D01*
X166098867Y-116349645D01*
X166105482Y-116350000D01*
X166750000Y-116350000D01*
X166750000Y-115435501D01*
X166857685Y-115484680D01*
X166964237Y-115500000D01*
X167035763Y-115500000D01*
X167142315Y-115484680D01*
X167250000Y-115435501D01*
X167250000Y-116350000D01*
X167894518Y-116350000D01*
X167901132Y-116349645D01*
X167957371Y-116343599D01*
X168092089Y-116293352D01*
X168207188Y-116207188D01*
X168293352Y-116092089D01*
X168343599Y-115957371D01*
X168349645Y-115901132D01*
X168350000Y-115894518D01*
X168350000Y-115250000D01*
X167433686Y-115250000D01*
X167459493Y-115209844D01*
X167500000Y-115071889D01*
X167500000Y-114928111D01*
X167459493Y-114790156D01*
X167433686Y-114750000D01*
X168350000Y-114750000D01*
X168350000Y-114105481D01*
X168349645Y-114098867D01*
X168343599Y-114042628D01*
X168293352Y-113907910D01*
X168207188Y-113792811D01*
X168092089Y-113706647D01*
X167957371Y-113656400D01*
X167901132Y-113650354D01*
X167894518Y-113650000D01*
X167250000Y-113650000D01*
X167250000Y-114564498D01*
X167142315Y-114515320D01*
X167035763Y-114500000D01*
X166964237Y-114500000D01*
X166857685Y-114515320D01*
X166750000Y-114564498D01*
X166750000Y-113650000D01*
X166105482Y-113650000D01*
X166098867Y-113650354D01*
X166042628Y-113656400D01*
X165907910Y-113706647D01*
X165792811Y-113792811D01*
X165706647Y-113907910D01*
X165656400Y-114042628D01*
X165650354Y-114098867D01*
X165650000Y-114105481D01*
X165650000Y-114502814D01*
X165630315Y-114569853D01*
X165577511Y-114615608D01*
X165508353Y-114625552D01*
X165444797Y-114596527D01*
X165416642Y-114561267D01*
X165337685Y-114413550D01*
X165262462Y-114321890D01*
X165206410Y-114253589D01*
X165088424Y-114156762D01*
X165046450Y-114122315D01*
X164891255Y-114039361D01*
X164863956Y-114024769D01*
X164863955Y-114024768D01*
X164863954Y-114024768D01*
X164764944Y-113994734D01*
X164665932Y-113964699D01*
X164460000Y-113944417D01*
X164254067Y-113964699D01*
X164056043Y-114024769D01*
X163873551Y-114122314D01*
X163713589Y-114253589D01*
X163582314Y-114413551D01*
X163484769Y-114596043D01*
X163424699Y-114794067D01*
X163404417Y-114999999D01*
X163424699Y-115205932D01*
X163484769Y-115403956D01*
X163526202Y-115481470D01*
X163582315Y-115586450D01*
X163713590Y-115746410D01*
X163751712Y-115777696D01*
X163814164Y-115828948D01*
X163853499Y-115886694D01*
X163859500Y-115924802D01*
X163859500Y-117912511D01*
X163858439Y-117928696D01*
X163854317Y-117959999D01*
X163859500Y-117999360D01*
X163874956Y-118116762D01*
X163935463Y-118262840D01*
X164031716Y-118388281D01*
X164056768Y-118407503D01*
X164068964Y-118418199D01*
X165041799Y-119391034D01*
X165052494Y-119403229D01*
X165071717Y-119428282D01*
X165160129Y-119496122D01*
X165197159Y-119524536D01*
X165343238Y-119585044D01*
X165468698Y-119601561D01*
X165499999Y-119605682D01*
X165499999Y-119605681D01*
X165500000Y-119605682D01*
X165531302Y-119601560D01*
X165547487Y-119600500D01*
X193952513Y-119600500D01*
X193968697Y-119601560D01*
X194000000Y-119605682D01*
X194156762Y-119585044D01*
X194302841Y-119524536D01*
X194302840Y-119524535D01*
X194321781Y-119516690D01*
X194326117Y-119508401D01*
X194339859Y-119496129D01*
X194428282Y-119428282D01*
X194447509Y-119403223D01*
X194458190Y-119391043D01*
X196391043Y-117458190D01*
X196403223Y-117447509D01*
X196428282Y-117428282D01*
X196524536Y-117302841D01*
X196585044Y-117156762D01*
X196600500Y-117039361D01*
X196605682Y-117000000D01*
X196601561Y-116968696D01*
X196600500Y-116952511D01*
X196600500Y-106124500D01*
X196620185Y-106057461D01*
X196672989Y-106011706D01*
X196724500Y-106000500D01*
X196819749Y-106000500D01*
X196848989Y-105994683D01*
X196878231Y-105988867D01*
X196944552Y-105944552D01*
X196988867Y-105878231D01*
X197000500Y-105819748D01*
X197000500Y-105724499D01*
X197020185Y-105657461D01*
X197072989Y-105611706D01*
X197124500Y-105600500D01*
X200866245Y-105600500D01*
X200933284Y-105620185D01*
X200966014Y-105650866D01*
X200982342Y-105672989D01*
X201027851Y-105734652D01*
X201137115Y-105815292D01*
X201137118Y-105815293D01*
X201265301Y-105860146D01*
X201295734Y-105863000D01*
X201298627Y-105863000D01*
X202701373Y-105863000D01*
X202704266Y-105863000D01*
X202734699Y-105860146D01*
X202862882Y-105815293D01*
X202862882Y-105815292D01*
X202862884Y-105815292D01*
X202972148Y-105734652D01*
X202972148Y-105734650D01*
X202972150Y-105734650D01*
X203033984Y-105650866D01*
X203089632Y-105608616D01*
X203133755Y-105600500D01*
X207952513Y-105600500D01*
X207968697Y-105601560D01*
X208000000Y-105605682D01*
X208156762Y-105585044D01*
X208251468Y-105545815D01*
X208311067Y-105536974D01*
X208500000Y-105555583D01*
X208705934Y-105535300D01*
X208903954Y-105475232D01*
X209086450Y-105377685D01*
X209246410Y-105246410D01*
X209328949Y-105145835D01*
X209386696Y-105106501D01*
X209424803Y-105100500D01*
X211452513Y-105100500D01*
X211468697Y-105101560D01*
X211500000Y-105105682D01*
X211656762Y-105085044D01*
X211802841Y-105024536D01*
X211844477Y-104992587D01*
X211886114Y-104960639D01*
X211904422Y-104946590D01*
X211928282Y-104928282D01*
X211947509Y-104903223D01*
X211958190Y-104891043D01*
X212391043Y-104458190D01*
X212403223Y-104447509D01*
X212428282Y-104428282D01*
X212524536Y-104302841D01*
X212585044Y-104156762D01*
X212600500Y-104039361D01*
X212605682Y-104000000D01*
X212601561Y-103968696D01*
X212600500Y-103952511D01*
X212600500Y-102300096D01*
X212620185Y-102233057D01*
X212636814Y-102212420D01*
X213212415Y-101636819D01*
X213273739Y-101603334D01*
X213300097Y-101600500D01*
X213960639Y-101600500D01*
X215825500Y-101600500D01*
X215892539Y-101620185D01*
X215938294Y-101672989D01*
X215949500Y-101724500D01*
X215949500Y-101869748D01*
X215961132Y-101928230D01*
X216005447Y-101994552D01*
X216071769Y-102038867D01*
X216130251Y-102050500D01*
X216440543Y-102050500D01*
X216507582Y-102070185D01*
X216553337Y-102122989D01*
X216563281Y-102192147D01*
X216534256Y-102255703D01*
X216492948Y-102286882D01*
X216322421Y-102366400D01*
X216128921Y-102501890D01*
X215961890Y-102668921D01*
X215826400Y-102862421D01*
X215726569Y-103076507D01*
X215669364Y-103289999D01*
X215669364Y-103290000D01*
X216566314Y-103290000D01*
X216540507Y-103330156D01*
X216500000Y-103468111D01*
X216500000Y-103611889D01*
X216540507Y-103749844D01*
X216566314Y-103790000D01*
X215669364Y-103790000D01*
X215726569Y-104003492D01*
X215826399Y-104217576D01*
X215961893Y-104411081D01*
X216128918Y-104578106D01*
X216322423Y-104713600D01*
X216536509Y-104813430D01*
X216750000Y-104870634D01*
X216750000Y-103975501D01*
X216857685Y-104024680D01*
X216964237Y-104040000D01*
X217035763Y-104040000D01*
X217142315Y-104024680D01*
X217250000Y-103975501D01*
X217250000Y-104870633D01*
X217463490Y-104813430D01*
X217677576Y-104713600D01*
X217871081Y-104578106D01*
X218038106Y-104411081D01*
X218173600Y-104217576D01*
X218273430Y-104003492D01*
X218330636Y-103790000D01*
X217433686Y-103790000D01*
X217459493Y-103749844D01*
X217500000Y-103611889D01*
X217500000Y-103468111D01*
X217459493Y-103330156D01*
X217433686Y-103290000D01*
X218330636Y-103290000D01*
X218330635Y-103289999D01*
X218273430Y-103076507D01*
X218173599Y-102862421D01*
X218038109Y-102668921D01*
X217871081Y-102501893D01*
X217677576Y-102366399D01*
X217507053Y-102286882D01*
X217454614Y-102240709D01*
X217435462Y-102173516D01*
X217455678Y-102106635D01*
X217508843Y-102061300D01*
X217559458Y-102050500D01*
X217869749Y-102050500D01*
X217925747Y-102039361D01*
X217928231Y-102038867D01*
X217994552Y-101994552D01*
X218038867Y-101928231D01*
X218050500Y-101869748D01*
X218050500Y-100130252D01*
X218047337Y-100114353D01*
X218038867Y-100071769D01*
X217994552Y-100005447D01*
X217928230Y-99961132D01*
X217869749Y-99949500D01*
X217869748Y-99949500D01*
X216130252Y-99949500D01*
X216130251Y-99949500D01*
X216071769Y-99961132D01*
X216005447Y-100005447D01*
X215961132Y-100071769D01*
X215949500Y-100130251D01*
X215949500Y-100275500D01*
X215929815Y-100342539D01*
X215877011Y-100388294D01*
X215825500Y-100399500D01*
X214524500Y-100399500D01*
X214457461Y-100379815D01*
X214411706Y-100327011D01*
X214400500Y-100275500D01*
X214400500Y-96244500D01*
X214420185Y-96177461D01*
X214472989Y-96131706D01*
X214524500Y-96120500D01*
X214736000Y-96120500D01*
X214803039Y-96140185D01*
X214848794Y-96192989D01*
X214860000Y-96244500D01*
X214860000Y-96270000D01*
X216061000Y-96270000D01*
X216128039Y-96289685D01*
X216173794Y-96342489D01*
X216185000Y-96394000D01*
X216185000Y-96646000D01*
X216165315Y-96713039D01*
X216112511Y-96758794D01*
X216061000Y-96770000D01*
X214860000Y-96770000D01*
X214860000Y-96864518D01*
X214860354Y-96871132D01*
X214866400Y-96927371D01*
X214916647Y-97062089D01*
X214993798Y-97165149D01*
X215018215Y-97230614D01*
X215008936Y-97278275D01*
X215010572Y-97278699D01*
X214981753Y-97389999D01*
X214981753Y-97390000D01*
X215783889Y-97390000D01*
X215744390Y-97414457D01*
X215676799Y-97503962D01*
X215646105Y-97611840D01*
X215656454Y-97723521D01*
X215706448Y-97823922D01*
X215778931Y-97890000D01*
X214976634Y-97890000D01*
X214976932Y-97891948D01*
X215047564Y-98082663D01*
X215155145Y-98255263D01*
X215295266Y-98402669D01*
X215462194Y-98518855D01*
X215649092Y-98599059D01*
X215848311Y-98640000D01*
X216250000Y-98640000D01*
X216250000Y-97940000D01*
X216750000Y-97940000D01*
X216750000Y-98640000D01*
X217097570Y-98640000D01*
X217103835Y-98639682D01*
X217252339Y-98624580D01*
X217446389Y-98563696D01*
X217624214Y-98464996D01*
X217778531Y-98332520D01*
X217903021Y-98171692D01*
X217992589Y-97989094D01*
X218018246Y-97890000D01*
X217216111Y-97890000D01*
X217255610Y-97865543D01*
X217323201Y-97776038D01*
X217353895Y-97668160D01*
X217343546Y-97556479D01*
X217293552Y-97456078D01*
X217221069Y-97390000D01*
X218023366Y-97390000D01*
X218023067Y-97388051D01*
X217952435Y-97197336D01*
X217844854Y-97024736D01*
X217704733Y-96877330D01*
X217537805Y-96761144D01*
X217507355Y-96748077D01*
X217453511Y-96703550D01*
X217432288Y-96636982D01*
X217450423Y-96569507D01*
X217457872Y-96558650D01*
X217502698Y-96500233D01*
X217560687Y-96360236D01*
X217580466Y-96210000D01*
X217578226Y-96192989D01*
X217560687Y-96059764D01*
X217527122Y-95978732D01*
X217502698Y-95919767D01*
X217410451Y-95799549D01*
X217290233Y-95707302D01*
X217290018Y-95707213D01*
X217243064Y-95687764D01*
X217150236Y-95649313D01*
X217069653Y-95638704D01*
X217041739Y-95635029D01*
X217041737Y-95635028D01*
X217037720Y-95634500D01*
X216962280Y-95634500D01*
X216958266Y-95635028D01*
X216958257Y-95635029D01*
X216850684Y-95649191D01*
X216781649Y-95638425D01*
X216729394Y-95592045D01*
X216710500Y-95526252D01*
X216710500Y-95400249D01*
X216699349Y-95344190D01*
X216699349Y-95295807D01*
X216704835Y-95268230D01*
X216710500Y-95239748D01*
X216710500Y-94900252D01*
X216710500Y-94900251D01*
X216710500Y-94900249D01*
X216699349Y-94844190D01*
X216699349Y-94795807D01*
X216710500Y-94739748D01*
X216710500Y-94400249D01*
X216699349Y-94344190D01*
X216699349Y-94295807D01*
X216710500Y-94239748D01*
X216710500Y-93900249D01*
X216699349Y-93844190D01*
X216699349Y-93795807D01*
X216710500Y-93739748D01*
X216710500Y-93400252D01*
X216710500Y-93400251D01*
X216699348Y-93344187D01*
X216699348Y-93295812D01*
X216710500Y-93239748D01*
X216710500Y-92900252D01*
X216710500Y-92900251D01*
X216710500Y-92900249D01*
X216699349Y-92844190D01*
X216699349Y-92795807D01*
X216700041Y-92792331D01*
X216710500Y-92739748D01*
X216710500Y-92400252D01*
X216699348Y-92344187D01*
X216699348Y-92295812D01*
X216710500Y-92239748D01*
X216710500Y-91900252D01*
X216699348Y-91844187D01*
X216699348Y-91795812D01*
X216710500Y-91739748D01*
X216710500Y-91400252D01*
X216710500Y-91400251D01*
X216710500Y-91400249D01*
X216699349Y-91344190D01*
X216699349Y-91295807D01*
X216710500Y-91239748D01*
X216710500Y-91113747D01*
X216730185Y-91046708D01*
X216782989Y-91000953D01*
X216850684Y-90990808D01*
X216962280Y-91005500D01*
X216966333Y-91005500D01*
X217033667Y-91005500D01*
X217037720Y-91005500D01*
X217150236Y-90990687D01*
X217290233Y-90932698D01*
X217410451Y-90840451D01*
X217502698Y-90720233D01*
X217560687Y-90580236D01*
X217580466Y-90430000D01*
X217560687Y-90279764D01*
X217502698Y-90139767D01*
X217479367Y-90109361D01*
X217457161Y-90080421D01*
X217431967Y-90015252D01*
X217446006Y-89946807D01*
X217494820Y-89896817D01*
X217495360Y-89896516D01*
X217624214Y-89824996D01*
X217778531Y-89692520D01*
X217903021Y-89531692D01*
X217992589Y-89349094D01*
X218018246Y-89250000D01*
X217216111Y-89250000D01*
X217255610Y-89225543D01*
X217323201Y-89136038D01*
X217353895Y-89028160D01*
X217343546Y-88916479D01*
X217293552Y-88816078D01*
X217221069Y-88750000D01*
X218023366Y-88750000D01*
X218023067Y-88748051D01*
X217952435Y-88557336D01*
X217844854Y-88384736D01*
X217704733Y-88237330D01*
X217537805Y-88121144D01*
X217350907Y-88040940D01*
X217151689Y-88000000D01*
X216750000Y-88000000D01*
X216750000Y-88700000D01*
X216250000Y-88700000D01*
X216250000Y-88000000D01*
X215902430Y-88000000D01*
X215896164Y-88000317D01*
X215747660Y-88015419D01*
X215553610Y-88076303D01*
X215375785Y-88175003D01*
X215221468Y-88307479D01*
X215096978Y-88468307D01*
X215007410Y-88650905D01*
X214981753Y-88749999D01*
X214981753Y-88750000D01*
X215783889Y-88750000D01*
X215744390Y-88774457D01*
X215676799Y-88863962D01*
X215646105Y-88971840D01*
X215656454Y-89083521D01*
X215706448Y-89183922D01*
X215778931Y-89250000D01*
X214976634Y-89250000D01*
X214976931Y-89251946D01*
X215014292Y-89352827D01*
X215019115Y-89422530D01*
X214997277Y-89470201D01*
X214916648Y-89577908D01*
X214866400Y-89712628D01*
X214860354Y-89768867D01*
X214860000Y-89775481D01*
X214860000Y-89870000D01*
X216061000Y-89870000D01*
X216128039Y-89889685D01*
X216173794Y-89942489D01*
X216185000Y-89994000D01*
X216185000Y-90246000D01*
X216165315Y-90313039D01*
X216112511Y-90358794D01*
X216061000Y-90370000D01*
X214860000Y-90370000D01*
X214860000Y-90395500D01*
X214840315Y-90462539D01*
X214787511Y-90508294D01*
X214736000Y-90519500D01*
X214516567Y-90519500D01*
X214495491Y-90526347D01*
X214476580Y-90530887D01*
X214454693Y-90534354D01*
X214434952Y-90544412D01*
X214416987Y-90551854D01*
X214395910Y-90558703D01*
X214377982Y-90571728D01*
X214361402Y-90581888D01*
X214341658Y-90591948D01*
X214319095Y-90614512D01*
X213694513Y-91239094D01*
X213671949Y-91261657D01*
X213661892Y-91281396D01*
X213651731Y-91297979D01*
X213638702Y-91315913D01*
X213631854Y-91336987D01*
X213624412Y-91354954D01*
X213614353Y-91374697D01*
X213610886Y-91396582D01*
X213606347Y-91415491D01*
X213599500Y-91436566D01*
X213599500Y-95678724D01*
X213597973Y-95698123D01*
X213594507Y-95719999D01*
X213597973Y-95741875D01*
X213599500Y-95761275D01*
X213599500Y-100275500D01*
X213579815Y-100342539D01*
X213527011Y-100388294D01*
X213475500Y-100399500D01*
X213047494Y-100399500D01*
X213031308Y-100398439D01*
X213000000Y-100394317D01*
X212999999Y-100394317D01*
X212843238Y-100414956D01*
X212697160Y-100475463D01*
X212697158Y-100475464D01*
X212697159Y-100475464D01*
X212571718Y-100571718D01*
X212571716Y-100571719D01*
X212571715Y-100571721D01*
X212552490Y-100596774D01*
X212541798Y-100608965D01*
X211608965Y-101541798D01*
X211596773Y-101552491D01*
X211571718Y-101571717D01*
X211547550Y-101603215D01*
X211475462Y-101697161D01*
X211414956Y-101843237D01*
X211394317Y-101999999D01*
X211398439Y-102031301D01*
X211399500Y-102047487D01*
X211399500Y-103699902D01*
X211379815Y-103766941D01*
X211363182Y-103787582D01*
X211287582Y-103863182D01*
X211226262Y-103896666D01*
X211199903Y-103899500D01*
X209424803Y-103899500D01*
X209357764Y-103879815D01*
X209328950Y-103854165D01*
X209246410Y-103753590D01*
X209213115Y-103726266D01*
X209086450Y-103622315D01*
X209062879Y-103609716D01*
X208903953Y-103524767D01*
X208837447Y-103504593D01*
X208779009Y-103466296D01*
X208750552Y-103402483D01*
X208761113Y-103333416D01*
X208807338Y-103281023D01*
X208841350Y-103266158D01*
X208963491Y-103233430D01*
X209177576Y-103133600D01*
X209371081Y-102998106D01*
X209538106Y-102831081D01*
X209673600Y-102637576D01*
X209773430Y-102423492D01*
X209830636Y-102210000D01*
X208933686Y-102210000D01*
X208959493Y-102169844D01*
X209000000Y-102031889D01*
X209000000Y-101888111D01*
X208959493Y-101750156D01*
X208933686Y-101710000D01*
X209830636Y-101710000D01*
X209830635Y-101709999D01*
X209773430Y-101496507D01*
X209673599Y-101282421D01*
X209538109Y-101088921D01*
X209371081Y-100921893D01*
X209177576Y-100786399D01*
X208963492Y-100686569D01*
X208841349Y-100653841D01*
X208781689Y-100617476D01*
X208751160Y-100554629D01*
X208759455Y-100485253D01*
X208803940Y-100431375D01*
X208837444Y-100415407D01*
X208903954Y-100395232D01*
X209086450Y-100297685D01*
X209246410Y-100166410D01*
X209377685Y-100006450D01*
X209475232Y-99823954D01*
X209535300Y-99625934D01*
X209555583Y-99420000D01*
X209535300Y-99214066D01*
X209475232Y-99016046D01*
X209377685Y-98833550D01*
X209275353Y-98708857D01*
X209246410Y-98673589D01*
X209124907Y-98573876D01*
X209086450Y-98542315D01*
X208903954Y-98444768D01*
X208804944Y-98414733D01*
X208705932Y-98384699D01*
X208500000Y-98364417D01*
X208294067Y-98384699D01*
X208096043Y-98444769D01*
X207913551Y-98542314D01*
X207753589Y-98673589D01*
X207622314Y-98833551D01*
X207557958Y-98953953D01*
X207508996Y-99003797D01*
X207448600Y-99019500D01*
X193516567Y-99019500D01*
X193495491Y-99026347D01*
X193476580Y-99030887D01*
X193454693Y-99034354D01*
X193434952Y-99044412D01*
X193416987Y-99051854D01*
X193395910Y-99058703D01*
X193377982Y-99071728D01*
X193361402Y-99081888D01*
X193341658Y-99091948D01*
X193319095Y-99114512D01*
X192370426Y-100063181D01*
X192309103Y-100096666D01*
X192282745Y-100099500D01*
X153006581Y-100099500D01*
X152939542Y-100079815D01*
X152931095Y-100073876D01*
X152802840Y-99975463D01*
X152656762Y-99914956D01*
X152500000Y-99894317D01*
X152343237Y-99914956D01*
X152197159Y-99975463D01*
X152099986Y-100050026D01*
X152034816Y-100075220D01*
X151966372Y-100061181D01*
X151916382Y-100012367D01*
X151900500Y-99951650D01*
X151900500Y-99548349D01*
X151920185Y-99481310D01*
X151972989Y-99435555D01*
X152042147Y-99425611D01*
X152099986Y-99449973D01*
X152144520Y-99484145D01*
X152197159Y-99524536D01*
X152343238Y-99585044D01*
X152500000Y-99605682D01*
X152656762Y-99585044D01*
X152802841Y-99524536D01*
X152900014Y-99449973D01*
X152931095Y-99426124D01*
X152996264Y-99400930D01*
X153006581Y-99400500D01*
X191063433Y-99400500D01*
X191084499Y-99393655D01*
X191103414Y-99389112D01*
X191125304Y-99385646D01*
X191145042Y-99375587D01*
X191163016Y-99368142D01*
X191184090Y-99361296D01*
X191202021Y-99348267D01*
X191218598Y-99338109D01*
X191238342Y-99328050D01*
X191246674Y-99319717D01*
X191246680Y-99319713D01*
X193249574Y-97316819D01*
X193310897Y-97283334D01*
X193337255Y-97280500D01*
X207448600Y-97280500D01*
X207515639Y-97300185D01*
X207557957Y-97346046D01*
X207622315Y-97466450D01*
X207644794Y-97493841D01*
X207753589Y-97626410D01*
X207827332Y-97686928D01*
X207913550Y-97757685D01*
X208096046Y-97855232D01*
X208294066Y-97915300D01*
X208500000Y-97935583D01*
X208705934Y-97915300D01*
X208903954Y-97855232D01*
X209086450Y-97757685D01*
X209246410Y-97626410D01*
X209377685Y-97466450D01*
X209475232Y-97283954D01*
X209535300Y-97085934D01*
X209555583Y-96880000D01*
X209535300Y-96674066D01*
X209475232Y-96476046D01*
X209377685Y-96293550D01*
X209295157Y-96192989D01*
X209246410Y-96133589D01*
X209148952Y-96053608D01*
X209086450Y-96002315D01*
X208903954Y-95904768D01*
X208804944Y-95874733D01*
X208705932Y-95844699D01*
X208522497Y-95826632D01*
X208500000Y-95824417D01*
X208499999Y-95824417D01*
X208294067Y-95844699D01*
X208130499Y-95894317D01*
X208113413Y-95899500D01*
X208096043Y-95904769D01*
X207913551Y-96002314D01*
X207753589Y-96133589D01*
X207622314Y-96293551D01*
X207557958Y-96413953D01*
X207508996Y-96463797D01*
X207448600Y-96479500D01*
X193056567Y-96479500D01*
X193035491Y-96486347D01*
X193016580Y-96490887D01*
X192994693Y-96494354D01*
X192974952Y-96504412D01*
X192956987Y-96511854D01*
X192935910Y-96518703D01*
X192917982Y-96531728D01*
X192901402Y-96541888D01*
X192881658Y-96551948D01*
X192859095Y-96574512D01*
X190870426Y-98563181D01*
X190809103Y-98596666D01*
X190782745Y-98599500D01*
X153006581Y-98599500D01*
X152939542Y-98579815D01*
X152931095Y-98573876D01*
X152802840Y-98475463D01*
X152656762Y-98414956D01*
X152500000Y-98394317D01*
X152343237Y-98414956D01*
X152197159Y-98475463D01*
X152099986Y-98550026D01*
X152034816Y-98575220D01*
X151966372Y-98561181D01*
X151916382Y-98512367D01*
X151900500Y-98451650D01*
X151900500Y-96976768D01*
X151893654Y-96955699D01*
X151889112Y-96936779D01*
X151885646Y-96914901D01*
X151885646Y-96914898D01*
X151875582Y-96895147D01*
X151868144Y-96877189D01*
X151861296Y-96856113D01*
X151858747Y-96852605D01*
X151848274Y-96838189D01*
X151838109Y-96821602D01*
X151828050Y-96801860D01*
X151814168Y-96787978D01*
X151814166Y-96787975D01*
X150482958Y-95456767D01*
X150449473Y-95395444D01*
X150449021Y-95393275D01*
X150446378Y-95379985D01*
X150434110Y-95318305D01*
X150421755Y-95299815D01*
X150400982Y-95268725D01*
X149241684Y-94109427D01*
X149241683Y-94109426D01*
X149232218Y-94103101D01*
X149187413Y-94049493D01*
X149178704Y-93980168D01*
X149208857Y-93917140D01*
X149232218Y-93896898D01*
X149241683Y-93890574D01*
X150400982Y-92731275D01*
X150434110Y-92681695D01*
X150449022Y-92606720D01*
X150481405Y-92544811D01*
X150482900Y-92543289D01*
X151009644Y-92016545D01*
X151070965Y-91983062D01*
X151140657Y-91988046D01*
X151172809Y-92005852D01*
X151192899Y-92021267D01*
X151197159Y-92024536D01*
X151343238Y-92085044D01*
X151500000Y-92105682D01*
X151656762Y-92085044D01*
X151802841Y-92024536D01*
X151928282Y-91928282D01*
X152024536Y-91802841D01*
X152085044Y-91656762D01*
X152105682Y-91500000D01*
X152105681Y-91499997D01*
X152106144Y-91496485D01*
X152134410Y-91432589D01*
X152141389Y-91425002D01*
X152629573Y-90936819D01*
X152690897Y-90903334D01*
X152717255Y-90900500D01*
X166282745Y-90900500D01*
X166349784Y-90920185D01*
X166370426Y-90936819D01*
X167247770Y-91814163D01*
X167247776Y-91814168D01*
X167261658Y-91828050D01*
X167281397Y-91838107D01*
X167297982Y-91848271D01*
X167315910Y-91861297D01*
X167336978Y-91868142D01*
X167354955Y-91875588D01*
X167374692Y-91885644D01*
X167374696Y-91885646D01*
X167396585Y-91889112D01*
X167415489Y-91893651D01*
X167436567Y-91900500D01*
X167468481Y-91900500D01*
X205282745Y-91900500D01*
X205349784Y-91920185D01*
X205370426Y-91936819D01*
X207413181Y-93979573D01*
X207446666Y-94040896D01*
X207449500Y-94067254D01*
X207449500Y-95209748D01*
X207461132Y-95268230D01*
X207505447Y-95334552D01*
X207571769Y-95378867D01*
X207630251Y-95390500D01*
X207630252Y-95390500D01*
X209369749Y-95390500D01*
X209422610Y-95379985D01*
X209428231Y-95378867D01*
X209494552Y-95334552D01*
X209538867Y-95268231D01*
X209550500Y-95209748D01*
X209550500Y-93470252D01*
X209538867Y-93411769D01*
X209531337Y-93400500D01*
X209494552Y-93345447D01*
X209428230Y-93301132D01*
X209369749Y-93289500D01*
X209369748Y-93289500D01*
X207907255Y-93289500D01*
X207840216Y-93269815D01*
X207819574Y-93253181D01*
X205754690Y-91188296D01*
X205754675Y-91188283D01*
X205738342Y-91171950D01*
X205738341Y-91171949D01*
X205738339Y-91171947D01*
X205718599Y-91161889D01*
X205702014Y-91151726D01*
X205684090Y-91138704D01*
X205663020Y-91131858D01*
X205645044Y-91124412D01*
X205625302Y-91114353D01*
X205603418Y-91110886D01*
X205584507Y-91106346D01*
X205563435Y-91099500D01*
X205563433Y-91099500D01*
X205531519Y-91099500D01*
X167717255Y-91099500D01*
X167650216Y-91079815D01*
X167629574Y-91063181D01*
X166754690Y-90188296D01*
X166754675Y-90188283D01*
X166738342Y-90171950D01*
X166738341Y-90171949D01*
X166738339Y-90171947D01*
X166718599Y-90161889D01*
X166702014Y-90151726D01*
X166684090Y-90138704D01*
X166663020Y-90131858D01*
X166645044Y-90124412D01*
X166625302Y-90114353D01*
X166603418Y-90110886D01*
X166584507Y-90106346D01*
X166563435Y-90099500D01*
X166563433Y-90099500D01*
X166531519Y-90099500D01*
X152563433Y-90099500D01*
X152436567Y-90099500D01*
X152436565Y-90099500D01*
X152415491Y-90106346D01*
X152396586Y-90110885D01*
X152374698Y-90114353D01*
X152354957Y-90124411D01*
X152336987Y-90131854D01*
X152315911Y-90138702D01*
X152297979Y-90151730D01*
X152281400Y-90161889D01*
X152261661Y-90171947D01*
X152261657Y-90171950D01*
X152261658Y-90171950D01*
X152239094Y-90194513D01*
X152239091Y-90194516D01*
X151575008Y-90858597D01*
X151513685Y-90892082D01*
X151503513Y-90893855D01*
X151343237Y-90914956D01*
X151197159Y-90975463D01*
X151068905Y-91073876D01*
X151003736Y-91099070D01*
X150993419Y-91099500D01*
X150896365Y-91099500D01*
X150875289Y-91106347D01*
X150856378Y-91110887D01*
X150834491Y-91114354D01*
X150814750Y-91124412D01*
X150796785Y-91131854D01*
X150775708Y-91138703D01*
X150757780Y-91151728D01*
X150741200Y-91161888D01*
X150721456Y-91171948D01*
X150698893Y-91194512D01*
X150698889Y-91194516D01*
X149997047Y-91896356D01*
X149935724Y-91929841D01*
X149866032Y-91924857D01*
X149821685Y-91896356D01*
X149418460Y-91493131D01*
X149349741Y-91447214D01*
X149315530Y-91413003D01*
X149269610Y-91344280D01*
X148866385Y-90941055D01*
X148832900Y-90879732D01*
X148837884Y-90810040D01*
X148866385Y-90765693D01*
X149900183Y-89731895D01*
X150937459Y-88694618D01*
X150998780Y-88661135D01*
X151068472Y-88666119D01*
X151124405Y-88707991D01*
X151142180Y-88741347D01*
X151184707Y-88862884D01*
X151265349Y-88972150D01*
X151374615Y-89052792D01*
X151374618Y-89052793D01*
X151502801Y-89097646D01*
X151533234Y-89100500D01*
X151536127Y-89100500D01*
X152463873Y-89100500D01*
X152466766Y-89100500D01*
X152497199Y-89097646D01*
X152625382Y-89052793D01*
X152625382Y-89052792D01*
X152625384Y-89052792D01*
X152734650Y-88972150D01*
X152815292Y-88862884D01*
X152824040Y-88837884D01*
X152860146Y-88734699D01*
X152863000Y-88704266D01*
X152863000Y-88250000D01*
X153962501Y-88250000D01*
X153962501Y-88696829D01*
X153962821Y-88703111D01*
X153972993Y-88802695D01*
X154028142Y-88969122D01*
X154120183Y-89118345D01*
X154244154Y-89242316D01*
X154393377Y-89334357D01*
X154559803Y-89389506D01*
X154659390Y-89399680D01*
X154665668Y-89399999D01*
X154874999Y-89399999D01*
X154875000Y-89399998D01*
X154875000Y-88250000D01*
X155375000Y-88250000D01*
X155375000Y-89399999D01*
X155584329Y-89399999D01*
X155590611Y-89399678D01*
X155690195Y-89389506D01*
X155856622Y-89334357D01*
X156005845Y-89242316D01*
X156129816Y-89118345D01*
X156221857Y-88969122D01*
X156277006Y-88802696D01*
X156287180Y-88703109D01*
X156287500Y-88696831D01*
X156287500Y-88250000D01*
X155375000Y-88250000D01*
X154875000Y-88250000D01*
X153962501Y-88250000D01*
X152863000Y-88250000D01*
X152863000Y-87750000D01*
X153962500Y-87750000D01*
X154875000Y-87750000D01*
X154875000Y-86600000D01*
X155375000Y-86600000D01*
X155375000Y-87750000D01*
X156287499Y-87750000D01*
X156287499Y-87303170D01*
X156287178Y-87296888D01*
X156277006Y-87197304D01*
X156221857Y-87030877D01*
X156129816Y-86881654D01*
X156005845Y-86757683D01*
X155856622Y-86665642D01*
X155690196Y-86610493D01*
X155590609Y-86600319D01*
X155584332Y-86600000D01*
X155375000Y-86600000D01*
X154875000Y-86600000D01*
X154665671Y-86600000D01*
X154659388Y-86600321D01*
X154559804Y-86610493D01*
X154393377Y-86665642D01*
X154244154Y-86757683D01*
X154120183Y-86881654D01*
X154028142Y-87030877D01*
X153972993Y-87197303D01*
X153962819Y-87296890D01*
X153962500Y-87303168D01*
X153962500Y-87750000D01*
X152863000Y-87750000D01*
X152863000Y-87295734D01*
X152860146Y-87265301D01*
X152815293Y-87137118D01*
X152815292Y-87137115D01*
X152734650Y-87027849D01*
X152625384Y-86947207D01*
X152497196Y-86902353D01*
X152469651Y-86899770D01*
X152469639Y-86899769D01*
X152466766Y-86899500D01*
X151533234Y-86899500D01*
X151530361Y-86899769D01*
X151530348Y-86899770D01*
X151502803Y-86902353D01*
X151374615Y-86947207D01*
X151265349Y-87027849D01*
X151184707Y-87137115D01*
X151139853Y-87265303D01*
X151137270Y-87292848D01*
X151137269Y-87292861D01*
X151137000Y-87295734D01*
X151137000Y-87298625D01*
X151137000Y-87298626D01*
X151137000Y-87475500D01*
X151117315Y-87542539D01*
X151064511Y-87588294D01*
X151013000Y-87599500D01*
X151002251Y-87599500D01*
X150981177Y-87606346D01*
X150962272Y-87610885D01*
X150940384Y-87614353D01*
X150920643Y-87624411D01*
X150902673Y-87631854D01*
X150881597Y-87638702D01*
X150863665Y-87651730D01*
X150847086Y-87661889D01*
X150827347Y-87671947D01*
X150827343Y-87671950D01*
X150827344Y-87671950D01*
X150804780Y-87694513D01*
X150804777Y-87694516D01*
X148511769Y-89987521D01*
X148450446Y-90021006D01*
X148380754Y-90016022D01*
X148336407Y-89987521D01*
X148318376Y-89969490D01*
X148318375Y-89969490D01*
X147222361Y-91065506D01*
X146479898Y-91807967D01*
X146529049Y-91857119D01*
X146533975Y-91861544D01*
X146578030Y-91897046D01*
X146708814Y-91956773D01*
X146851129Y-91977234D01*
X146983429Y-91958213D01*
X147052587Y-91968157D01*
X147088756Y-91993270D01*
X147289004Y-92193518D01*
X147357722Y-92239434D01*
X147391934Y-92273645D01*
X147437853Y-92342367D01*
X147841079Y-92745593D01*
X147874564Y-92806916D01*
X147869580Y-92876608D01*
X147841079Y-92920955D01*
X146698853Y-94063181D01*
X146637530Y-94096666D01*
X146611172Y-94099500D01*
X144436567Y-94099500D01*
X144415491Y-94106347D01*
X144396580Y-94110887D01*
X144374693Y-94114354D01*
X144354952Y-94124412D01*
X144336987Y-94131854D01*
X144315910Y-94138703D01*
X144297982Y-94151728D01*
X144281402Y-94161888D01*
X144261658Y-94171948D01*
X144239095Y-94194512D01*
X144239091Y-94194516D01*
X142821457Y-95612148D01*
X142760134Y-95645633D01*
X142695457Y-95642398D01*
X142684091Y-95638704D01*
X142684090Y-95638704D01*
X142663014Y-95631856D01*
X142645044Y-95624412D01*
X142625302Y-95614353D01*
X142603418Y-95610886D01*
X142584507Y-95606346D01*
X142563435Y-95599500D01*
X142563433Y-95599500D01*
X142531519Y-95599500D01*
X142063433Y-95599500D01*
X141950853Y-95599500D01*
X141883814Y-95579815D01*
X141838059Y-95527011D01*
X141831362Y-95512347D01*
X141795859Y-95468290D01*
X141791434Y-95463364D01*
X141742283Y-95414213D01*
X141742282Y-95414213D01*
X140999821Y-96156675D01*
X140999821Y-96208039D01*
X140996508Y-96208039D01*
X140993335Y-96252643D01*
X140964818Y-96297035D01*
X140786627Y-96475226D01*
X140725304Y-96508711D01*
X140697631Y-96506731D01*
X140697631Y-96510229D01*
X140646268Y-96510229D01*
X139903805Y-97252690D01*
X139903805Y-97252691D01*
X139921835Y-97270721D01*
X139955320Y-97332044D01*
X139950336Y-97401736D01*
X139921835Y-97446083D01*
X138804740Y-98563181D01*
X138743417Y-98596666D01*
X138717059Y-98599500D01*
X132506581Y-98599500D01*
X132439542Y-98579815D01*
X132431095Y-98573876D01*
X132302840Y-98475463D01*
X132156762Y-98414956D01*
X132000000Y-98394317D01*
X131972163Y-98397982D01*
X131968697Y-98398439D01*
X131952513Y-98399500D01*
X125547487Y-98399500D01*
X125531302Y-98398439D01*
X125527376Y-98397922D01*
X125499999Y-98394317D01*
X125464741Y-98398959D01*
X125460639Y-98399500D01*
X125436568Y-98402669D01*
X125343237Y-98414956D01*
X125197161Y-98475462D01*
X125149066Y-98512367D01*
X125071718Y-98571718D01*
X125071716Y-98571719D01*
X125071715Y-98571721D01*
X125052490Y-98596774D01*
X125041798Y-98608965D01*
X123648965Y-100001798D01*
X123636773Y-100012491D01*
X123611717Y-100031717D01*
X123529626Y-100138703D01*
X123515462Y-100157161D01*
X123454956Y-100303237D01*
X123434317Y-100459998D01*
X123438439Y-100491307D01*
X123439499Y-100507489D01*
X123439499Y-114075197D01*
X123419814Y-114142236D01*
X123394164Y-114171050D01*
X123293590Y-114253589D01*
X123162314Y-114413551D01*
X123064769Y-114596043D01*
X123004699Y-114794067D01*
X122984417Y-114999999D01*
X122555583Y-114999999D01*
X122535300Y-114794066D01*
X122475232Y-114596046D01*
X122377685Y-114413550D01*
X122302462Y-114321890D01*
X122246410Y-114253589D01*
X122128424Y-114156762D01*
X122086450Y-114122315D01*
X121931255Y-114039361D01*
X121903956Y-114024769D01*
X121903955Y-114024768D01*
X121903954Y-114024768D01*
X121804944Y-113994734D01*
X121705932Y-113964699D01*
X121500000Y-113944417D01*
X121294067Y-113964699D01*
X121096043Y-114024769D01*
X120913551Y-114122314D01*
X120753589Y-114253589D01*
X120622314Y-114413551D01*
X120524769Y-114596043D01*
X120464699Y-114794067D01*
X120444417Y-114999999D01*
X120015583Y-114999999D01*
X119995300Y-114794066D01*
X119935232Y-114596046D01*
X119837685Y-114413550D01*
X119762462Y-114321890D01*
X119706410Y-114253589D01*
X119588424Y-114156762D01*
X119546450Y-114122315D01*
X119391255Y-114039361D01*
X119363956Y-114024769D01*
X119363955Y-114024768D01*
X119363954Y-114024768D01*
X119264943Y-113994734D01*
X119165932Y-113964699D01*
X118960000Y-113944417D01*
X118754067Y-113964699D01*
X118556043Y-114024769D01*
X118373551Y-114122314D01*
X118213589Y-114253589D01*
X118082314Y-114413551D01*
X117984769Y-114596043D01*
X117924699Y-114794067D01*
X117904417Y-115000000D01*
X84350500Y-115000000D01*
X84350500Y-114320734D01*
X84347646Y-114290301D01*
X84302793Y-114162118D01*
X84302792Y-114162115D01*
X84222150Y-114052849D01*
X84112882Y-113972206D01*
X83983545Y-113926949D01*
X83926769Y-113886228D01*
X83901022Y-113821275D01*
X83900500Y-113809908D01*
X83900500Y-113717255D01*
X83920185Y-113650216D01*
X83936819Y-113629574D01*
X84129574Y-113436819D01*
X84190897Y-113403334D01*
X84217255Y-113400500D01*
X85988045Y-113400500D01*
X86055084Y-113420185D01*
X86100839Y-113472989D01*
X86110783Y-113542147D01*
X86081758Y-113605703D01*
X86027049Y-113642206D01*
X85880877Y-113690642D01*
X85731654Y-113782683D01*
X85607683Y-113906654D01*
X85515642Y-114055877D01*
X85460493Y-114222303D01*
X85450319Y-114321890D01*
X85450000Y-114328168D01*
X85450000Y-114750000D01*
X87749999Y-114750000D01*
X87749999Y-114328170D01*
X87749678Y-114321888D01*
X87739506Y-114222304D01*
X87684357Y-114055877D01*
X87592316Y-113906654D01*
X87468345Y-113782683D01*
X87319122Y-113690642D01*
X87172952Y-113642206D01*
X87115507Y-113602433D01*
X87088684Y-113537917D01*
X87100999Y-113469142D01*
X87148542Y-113417942D01*
X87211956Y-113400500D01*
X87563433Y-113400500D01*
X87584499Y-113393655D01*
X87603414Y-113389112D01*
X87625304Y-113385646D01*
X87645042Y-113375587D01*
X87663016Y-113368142D01*
X87684090Y-113361296D01*
X87702021Y-113348267D01*
X87718598Y-113338109D01*
X87738342Y-113328050D01*
X87746674Y-113319717D01*
X87746680Y-113319713D01*
X88819713Y-112246681D01*
X88819717Y-112246673D01*
X88828050Y-112238342D01*
X88838108Y-112218600D01*
X88848267Y-112202021D01*
X88861297Y-112184089D01*
X88868144Y-112163011D01*
X88875591Y-112145037D01*
X88885645Y-112125306D01*
X88885645Y-112125305D01*
X88885646Y-112125304D01*
X88889112Y-112103416D01*
X88893651Y-112084510D01*
X88900500Y-112063433D01*
X88900500Y-111936567D01*
X88900500Y-111936566D01*
X88900500Y-98717254D01*
X88920185Y-98650215D01*
X88936814Y-98629578D01*
X89629574Y-97936818D01*
X89690897Y-97903334D01*
X89717255Y-97900500D01*
X138235006Y-97900500D01*
X138256072Y-97893655D01*
X138274987Y-97889112D01*
X138296877Y-97885646D01*
X138316615Y-97875587D01*
X138334589Y-97868142D01*
X138355663Y-97861296D01*
X138373594Y-97848267D01*
X138390171Y-97838109D01*
X138409915Y-97828050D01*
X138418247Y-97819717D01*
X138418253Y-97819713D01*
X138626126Y-97611840D01*
X139356860Y-96881104D01*
X139418181Y-96847621D01*
X139487872Y-96852605D01*
X139532220Y-96881106D01*
X139550252Y-96899138D01*
X140646268Y-95803123D01*
X141388730Y-95060660D01*
X141339569Y-95011500D01*
X141334653Y-95007084D01*
X141290598Y-94971582D01*
X141159814Y-94911855D01*
X141017498Y-94891394D01*
X140885200Y-94910415D01*
X140816041Y-94900471D01*
X140779873Y-94875358D01*
X140579626Y-94675111D01*
X140510902Y-94629191D01*
X140476690Y-94594979D01*
X140463904Y-94575843D01*
X140463904Y-94575842D01*
X140430776Y-94526263D01*
X140430774Y-94526261D01*
X140430773Y-94526259D01*
X140013940Y-94109426D01*
X140004475Y-94103102D01*
X139959670Y-94049490D01*
X139950963Y-93980165D01*
X139981117Y-93917138D01*
X140004475Y-93896898D01*
X140013940Y-93890573D01*
X140417166Y-93487347D01*
X140478489Y-93453862D01*
X140548180Y-93458846D01*
X140592525Y-93487345D01*
X141022318Y-93917138D01*
X141419343Y-94314163D01*
X141419349Y-94314168D01*
X141433231Y-94328050D01*
X141452973Y-94338109D01*
X141469561Y-94348274D01*
X141487484Y-94361296D01*
X141508560Y-94368144D01*
X141526518Y-94375582D01*
X141546269Y-94385646D01*
X141556098Y-94387202D01*
X141568150Y-94389112D01*
X141587070Y-94393654D01*
X141608140Y-94400500D01*
X141640054Y-94400500D01*
X142493419Y-94400500D01*
X142560458Y-94420185D01*
X142568905Y-94426124D01*
X142697158Y-94524536D01*
X142697159Y-94524536D01*
X142843238Y-94585044D01*
X143000000Y-94605682D01*
X143156762Y-94585044D01*
X143302841Y-94524536D01*
X143428282Y-94428282D01*
X143524536Y-94302841D01*
X143585044Y-94156762D01*
X143605682Y-94000000D01*
X143585044Y-93843238D01*
X143524536Y-93697159D01*
X143524535Y-93697159D01*
X143449973Y-93599986D01*
X143424779Y-93534817D01*
X143438817Y-93466372D01*
X143487631Y-93416383D01*
X143548349Y-93400500D01*
X143993419Y-93400500D01*
X144060458Y-93420185D01*
X144068905Y-93426124D01*
X144130956Y-93473737D01*
X144197159Y-93524536D01*
X144343238Y-93585044D01*
X144500000Y-93605682D01*
X144656762Y-93585044D01*
X144802841Y-93524536D01*
X144928282Y-93428282D01*
X145024536Y-93302841D01*
X145085044Y-93156762D01*
X145105682Y-93000000D01*
X145085044Y-92843238D01*
X145024536Y-92697159D01*
X144993648Y-92656905D01*
X144928282Y-92571717D01*
X144802840Y-92475463D01*
X144656762Y-92414956D01*
X144500000Y-92394317D01*
X144343237Y-92414956D01*
X144197159Y-92475463D01*
X144068905Y-92573876D01*
X144003736Y-92599070D01*
X143993419Y-92599500D01*
X142020199Y-92599500D01*
X141953160Y-92579815D01*
X141932518Y-92563181D01*
X141724606Y-92355269D01*
X141691121Y-92293946D01*
X141696105Y-92224254D01*
X141724606Y-92179907D01*
X142127831Y-91776682D01*
X142173750Y-91707961D01*
X142207961Y-91673750D01*
X142237445Y-91654048D01*
X142276681Y-91627832D01*
X142693518Y-91210995D01*
X142726646Y-91161416D01*
X142726646Y-91161413D01*
X142739434Y-91142276D01*
X142773647Y-91108063D01*
X142792784Y-91095275D01*
X142792787Y-91095275D01*
X142842366Y-91062147D01*
X143259203Y-90645310D01*
X143292331Y-90595731D01*
X143292331Y-90595728D01*
X143305118Y-90576592D01*
X143339331Y-90542379D01*
X143358470Y-90529590D01*
X143358473Y-90529590D01*
X143408052Y-90496462D01*
X143824889Y-90079625D01*
X143858017Y-90030046D01*
X143858017Y-90030043D01*
X143870806Y-90010904D01*
X143905019Y-89976691D01*
X143924155Y-89963904D01*
X143924158Y-89963904D01*
X143973737Y-89930776D01*
X144390574Y-89513939D01*
X144396897Y-89504475D01*
X144450510Y-89459670D01*
X144519835Y-89450963D01*
X144582862Y-89481117D01*
X144603102Y-89504475D01*
X144609426Y-89513940D01*
X145026259Y-89930773D01*
X145026262Y-89930775D01*
X145026263Y-89930776D01*
X145075842Y-89963904D01*
X145075843Y-89963904D01*
X145094979Y-89976690D01*
X145129191Y-90010902D01*
X145175111Y-90079626D01*
X145591946Y-90496461D01*
X145660669Y-90542381D01*
X145694880Y-90576592D01*
X145740797Y-90645311D01*
X145941044Y-90845557D01*
X145974529Y-90906880D01*
X145976101Y-90950884D01*
X145957079Y-91083184D01*
X145977540Y-91225499D01*
X146037267Y-91356283D01*
X146072769Y-91400338D01*
X146077194Y-91405264D01*
X146126345Y-91454415D01*
X147222361Y-90358400D01*
X147964823Y-89615937D01*
X147915662Y-89566777D01*
X147910746Y-89562361D01*
X147866691Y-89526859D01*
X147735907Y-89467132D01*
X147593592Y-89446671D01*
X147461292Y-89465693D01*
X147392134Y-89455749D01*
X147355965Y-89430636D01*
X147155719Y-89230389D01*
X147086995Y-89184469D01*
X147052783Y-89150257D01*
X147039997Y-89131121D01*
X147039997Y-89131120D01*
X147006869Y-89081541D01*
X147006868Y-89081540D01*
X147006866Y-89081537D01*
X146590033Y-88664704D01*
X146521314Y-88618787D01*
X146487103Y-88584576D01*
X146441183Y-88515853D01*
X146024348Y-88099018D01*
X145974768Y-88065890D01*
X145896536Y-88050330D01*
X145818303Y-88065890D01*
X145768725Y-88099017D01*
X144609426Y-89258316D01*
X144603102Y-89267782D01*
X144549490Y-89312587D01*
X144480165Y-89321294D01*
X144417138Y-89291140D01*
X144396898Y-89267782D01*
X144390574Y-89258317D01*
X143231275Y-88099018D01*
X143231274Y-88099017D01*
X143181696Y-88065890D01*
X143142579Y-88058110D01*
X143103464Y-88050330D01*
X143103463Y-88050330D01*
X143025231Y-88065890D01*
X142975651Y-88099018D01*
X142558816Y-88515853D01*
X142512897Y-88584576D01*
X142478686Y-88618787D01*
X142409966Y-88664704D01*
X142112181Y-88962490D01*
X142050858Y-88995975D01*
X141981166Y-88990991D01*
X141925233Y-88949119D01*
X141900816Y-88883655D01*
X141900500Y-88874809D01*
X141900500Y-87936566D01*
X141893654Y-87915497D01*
X141889112Y-87896577D01*
X141885646Y-87874699D01*
X141885646Y-87874696D01*
X141875582Y-87854945D01*
X141868144Y-87836987D01*
X141861296Y-87815911D01*
X141848274Y-87797987D01*
X141838109Y-87781400D01*
X141828049Y-87761657D01*
X141814168Y-87747776D01*
X141814166Y-87747773D01*
X141641402Y-87575009D01*
X141607917Y-87513686D01*
X141606144Y-87503513D01*
X141605681Y-87500001D01*
X141605682Y-87500000D01*
X141585044Y-87343238D01*
X141524536Y-87197159D01*
X141497646Y-87162115D01*
X141428282Y-87071717D01*
X141302840Y-86975463D01*
X141156762Y-86914956D01*
X141000000Y-86894317D01*
X140843237Y-86914956D01*
X140697159Y-86975463D01*
X140571717Y-87071717D01*
X140475463Y-87197159D01*
X140414956Y-87343237D01*
X140413743Y-87352451D01*
X140385474Y-87416346D01*
X140327148Y-87454815D01*
X140257283Y-87455644D01*
X140243352Y-87450822D01*
X140156762Y-87414956D01*
X140000000Y-87394317D01*
X139843237Y-87414956D01*
X139697159Y-87475463D01*
X139571717Y-87571717D01*
X139475463Y-87697159D01*
X139414956Y-87843237D01*
X139394317Y-88000000D01*
X139396355Y-88015475D01*
X139385589Y-88084510D01*
X139339209Y-88136766D01*
X139271940Y-88155651D01*
X139205140Y-88135170D01*
X139185735Y-88119341D01*
X138754690Y-87688296D01*
X138754675Y-87688283D01*
X138738342Y-87671950D01*
X138738341Y-87671949D01*
X138738339Y-87671947D01*
X138718599Y-87661889D01*
X138702014Y-87651726D01*
X138684090Y-87638704D01*
X138678289Y-87636819D01*
X138663019Y-87631857D01*
X138645044Y-87624412D01*
X138625302Y-87614353D01*
X138603418Y-87610886D01*
X138584507Y-87606346D01*
X138544757Y-87593432D01*
X138545547Y-87590998D01*
X138507461Y-87579815D01*
X138461706Y-87527011D01*
X138450500Y-87475500D01*
X138450500Y-87323626D01*
X138450500Y-87320734D01*
X138447646Y-87290301D01*
X138402793Y-87162118D01*
X138402792Y-87162115D01*
X138322150Y-87052849D01*
X138212882Y-86972206D01*
X138083545Y-86926949D01*
X138026769Y-86886228D01*
X138001022Y-86821275D01*
X138000500Y-86809908D01*
X138000500Y-84714360D01*
X138020185Y-84647321D01*
X138072989Y-84601566D01*
X138108311Y-84591422D01*
X138156762Y-84585044D01*
X138302841Y-84524536D01*
X138428282Y-84428282D01*
X138524536Y-84302841D01*
X138585044Y-84156762D01*
X138605682Y-84000000D01*
X138585044Y-83843238D01*
X138524536Y-83697159D01*
X138524535Y-83697159D01*
X138428282Y-83571717D01*
X138302840Y-83475463D01*
X138156762Y-83414956D01*
X138000000Y-83394317D01*
X137843237Y-83414956D01*
X137697159Y-83475463D01*
X137571717Y-83571717D01*
X137475463Y-83697159D01*
X137414956Y-83843237D01*
X137393855Y-84003513D01*
X137365588Y-84067409D01*
X137358598Y-84075008D01*
X137294516Y-84139091D01*
X137294514Y-84139093D01*
X137271949Y-84161657D01*
X137261892Y-84181396D01*
X137251731Y-84197979D01*
X137238702Y-84215913D01*
X137231854Y-84236987D01*
X137224412Y-84254954D01*
X137214353Y-84274697D01*
X137210886Y-84296582D01*
X137206347Y-84315491D01*
X137199500Y-84336566D01*
X137199500Y-86809908D01*
X137179815Y-86876947D01*
X137127011Y-86922702D01*
X137116455Y-86926949D01*
X136987117Y-86972206D01*
X136877849Y-87052849D01*
X136797207Y-87162115D01*
X136752353Y-87290303D01*
X136749770Y-87317848D01*
X136749769Y-87317861D01*
X136749500Y-87320734D01*
X136749500Y-88679266D01*
X136749769Y-88682139D01*
X136749770Y-88682151D01*
X136752353Y-88709696D01*
X136797207Y-88837884D01*
X136877849Y-88947150D01*
X136987115Y-89027792D01*
X136987118Y-89027793D01*
X137115301Y-89072646D01*
X137115302Y-89072646D01*
X137116454Y-89073049D01*
X137173230Y-89113771D01*
X137198978Y-89178723D01*
X137199500Y-89190091D01*
X137199500Y-89493419D01*
X137179815Y-89560458D01*
X137173876Y-89568905D01*
X137075463Y-89697159D01*
X137014956Y-89843237D01*
X136994317Y-90000000D01*
X137014956Y-90156762D01*
X137075463Y-90302840D01*
X137171717Y-90428282D01*
X137260568Y-90496459D01*
X137297159Y-90524536D01*
X137443238Y-90585044D01*
X137600000Y-90605682D01*
X137756762Y-90585044D01*
X137902841Y-90524536D01*
X138028282Y-90428282D01*
X138124536Y-90302841D01*
X138185044Y-90156762D01*
X138205682Y-90000000D01*
X138185044Y-89843238D01*
X138124536Y-89697159D01*
X138109920Y-89678111D01*
X138026124Y-89568905D01*
X138000930Y-89503736D01*
X138000500Y-89493419D01*
X138000500Y-89190091D01*
X138020185Y-89123052D01*
X138072989Y-89077297D01*
X138083546Y-89073049D01*
X138084697Y-89072646D01*
X138084699Y-89072646D01*
X138212882Y-89027793D01*
X138212882Y-89027792D01*
X138212884Y-89027792D01*
X138322150Y-88947150D01*
X138402792Y-88837884D01*
X138403106Y-88836987D01*
X138433185Y-88751024D01*
X138473905Y-88694250D01*
X138538857Y-88668502D01*
X138607419Y-88681958D01*
X138637907Y-88704299D01*
X139563181Y-89629573D01*
X139596666Y-89690896D01*
X139599500Y-89717254D01*
X139599500Y-90129120D01*
X139606346Y-90150193D01*
X139610886Y-90169104D01*
X139614353Y-90190988D01*
X139624412Y-90210730D01*
X139631858Y-90228706D01*
X139638704Y-90249776D01*
X139651726Y-90267700D01*
X139661889Y-90284285D01*
X139671947Y-90304025D01*
X139671949Y-90304027D01*
X139671950Y-90304028D01*
X139688283Y-90320361D01*
X139688296Y-90320376D01*
X140133614Y-90765693D01*
X140167099Y-90827016D01*
X140162115Y-90896707D01*
X140133614Y-90941055D01*
X139730389Y-91344280D01*
X139684470Y-91413003D01*
X139650259Y-91447214D01*
X139581539Y-91493131D01*
X139158213Y-91916457D01*
X139096890Y-91949942D01*
X139027198Y-91944958D01*
X138982851Y-91916457D01*
X138754690Y-91688296D01*
X138754675Y-91688283D01*
X138738342Y-91671950D01*
X138738341Y-91671949D01*
X138738339Y-91671947D01*
X138718599Y-91661889D01*
X138702014Y-91651726D01*
X138684090Y-91638704D01*
X138663020Y-91631858D01*
X138645044Y-91624412D01*
X138625302Y-91614353D01*
X138603418Y-91610886D01*
X138584507Y-91606346D01*
X138563435Y-91599500D01*
X138563433Y-91599500D01*
X138531519Y-91599500D01*
X132548349Y-91599500D01*
X132481310Y-91579815D01*
X132435555Y-91527011D01*
X132425611Y-91457853D01*
X132449973Y-91400014D01*
X132483117Y-91356819D01*
X132524536Y-91302841D01*
X132585044Y-91156762D01*
X132605682Y-91000000D01*
X132585044Y-90843238D01*
X132524536Y-90697159D01*
X132461119Y-90614512D01*
X132426124Y-90568905D01*
X132400930Y-90503736D01*
X132400500Y-90493419D01*
X132400500Y-89217255D01*
X132420185Y-89150216D01*
X132436819Y-89129574D01*
X133129574Y-88436819D01*
X133190897Y-88403334D01*
X133217255Y-88400500D01*
X133525500Y-88400500D01*
X133592539Y-88420185D01*
X133638294Y-88472989D01*
X133649500Y-88524499D01*
X133649500Y-88679266D01*
X133649769Y-88682139D01*
X133649770Y-88682151D01*
X133652353Y-88709696D01*
X133697207Y-88837884D01*
X133777849Y-88947150D01*
X133887115Y-89027792D01*
X133887118Y-89027793D01*
X134015301Y-89072646D01*
X134045734Y-89075500D01*
X134048627Y-89075500D01*
X134951373Y-89075500D01*
X134954266Y-89075500D01*
X134984699Y-89072646D01*
X135112882Y-89027793D01*
X135112882Y-89027792D01*
X135112884Y-89027792D01*
X135222150Y-88947150D01*
X135302792Y-88837884D01*
X135303106Y-88836987D01*
X135347646Y-88709699D01*
X135350500Y-88679266D01*
X135350500Y-87320734D01*
X135347646Y-87290301D01*
X135302793Y-87162118D01*
X135302792Y-87162115D01*
X135222150Y-87052849D01*
X135112884Y-86972207D01*
X134984696Y-86927353D01*
X134957151Y-86924770D01*
X134957139Y-86924769D01*
X134954266Y-86924500D01*
X134045734Y-86924500D01*
X134042861Y-86924769D01*
X134042848Y-86924770D01*
X134015303Y-86927353D01*
X133887115Y-86972207D01*
X133777849Y-87052849D01*
X133697207Y-87162115D01*
X133652353Y-87290303D01*
X133649770Y-87317848D01*
X133649769Y-87317861D01*
X133649500Y-87320734D01*
X133649500Y-87323626D01*
X133649500Y-87475500D01*
X133629815Y-87542539D01*
X133577011Y-87588294D01*
X133525500Y-87599500D01*
X132936565Y-87599500D01*
X132915491Y-87606346D01*
X132896586Y-87610885D01*
X132874698Y-87614353D01*
X132854957Y-87624411D01*
X132836987Y-87631854D01*
X132815911Y-87638702D01*
X132797979Y-87651730D01*
X132781400Y-87661889D01*
X132761661Y-87671947D01*
X132761657Y-87671950D01*
X132761658Y-87671950D01*
X132739094Y-87694513D01*
X132739091Y-87694516D01*
X132211304Y-88222303D01*
X131694513Y-88739094D01*
X131671949Y-88761657D01*
X131661892Y-88781396D01*
X131651731Y-88797979D01*
X131638702Y-88815913D01*
X131631854Y-88836987D01*
X131624412Y-88854954D01*
X131614353Y-88874697D01*
X131610886Y-88896582D01*
X131606347Y-88915492D01*
X131599500Y-88936567D01*
X131599497Y-89019824D01*
X131599499Y-89019843D01*
X131599499Y-90493420D01*
X131579814Y-90560459D01*
X131573875Y-90568906D01*
X131475463Y-90697159D01*
X131414956Y-90843237D01*
X131394317Y-91000000D01*
X131414956Y-91156762D01*
X131475463Y-91302840D01*
X131550027Y-91400014D01*
X131575221Y-91465183D01*
X131561183Y-91533628D01*
X131512369Y-91583617D01*
X131451651Y-91599500D01*
X84717255Y-91599500D01*
X84650216Y-91579815D01*
X84629574Y-91563181D01*
X83936819Y-90870426D01*
X83903334Y-90809103D01*
X83900500Y-90782745D01*
X83900500Y-90155100D01*
X83920185Y-90088061D01*
X83972989Y-90042306D01*
X83983546Y-90038058D01*
X84006443Y-90030046D01*
X84012882Y-90027793D01*
X84012882Y-90027792D01*
X84012884Y-90027792D01*
X84122150Y-89947150D01*
X84202792Y-89837884D01*
X84216589Y-89798454D01*
X84247646Y-89709699D01*
X84250500Y-89679266D01*
X84250500Y-89250000D01*
X85350001Y-89250000D01*
X85350001Y-89671829D01*
X85350321Y-89678111D01*
X85360493Y-89777695D01*
X85415642Y-89944122D01*
X85507683Y-90093345D01*
X85631654Y-90217316D01*
X85780877Y-90309357D01*
X85947303Y-90364506D01*
X86046890Y-90374680D01*
X86053168Y-90374999D01*
X86249999Y-90374999D01*
X86250000Y-90374998D01*
X86250000Y-89250000D01*
X86750000Y-89250000D01*
X86750000Y-90374999D01*
X86946829Y-90374999D01*
X86953111Y-90374678D01*
X87052695Y-90364506D01*
X87219122Y-90309357D01*
X87368345Y-90217316D01*
X87492316Y-90093345D01*
X87584357Y-89944122D01*
X87639506Y-89777696D01*
X87649680Y-89678109D01*
X87650000Y-89671831D01*
X87650000Y-89250000D01*
X86750000Y-89250000D01*
X86250000Y-89250000D01*
X85350001Y-89250000D01*
X84250500Y-89250000D01*
X84250500Y-88750000D01*
X85350000Y-88750000D01*
X86250000Y-88750000D01*
X86250000Y-87625000D01*
X86750000Y-87625000D01*
X86750000Y-88750000D01*
X87649999Y-88750000D01*
X87649999Y-88328170D01*
X87649678Y-88321888D01*
X87639506Y-88222304D01*
X87584357Y-88055877D01*
X87492316Y-87906654D01*
X87368345Y-87782683D01*
X87219122Y-87690642D01*
X87052696Y-87635493D01*
X86953109Y-87625319D01*
X86946832Y-87625000D01*
X86750000Y-87625000D01*
X86250000Y-87625000D01*
X86053171Y-87625000D01*
X86046888Y-87625321D01*
X85947304Y-87635493D01*
X85780877Y-87690642D01*
X85631654Y-87782683D01*
X85507683Y-87906654D01*
X85415642Y-88055877D01*
X85360493Y-88222303D01*
X85350319Y-88321890D01*
X85350000Y-88328168D01*
X85350000Y-88750000D01*
X84250500Y-88750000D01*
X84250500Y-88320734D01*
X84247646Y-88290301D01*
X84202793Y-88162118D01*
X84202792Y-88162115D01*
X84122150Y-88052849D01*
X84012884Y-87972207D01*
X83884696Y-87927353D01*
X83857151Y-87924770D01*
X83857139Y-87924769D01*
X83854266Y-87924500D01*
X82945734Y-87924500D01*
X82942861Y-87924769D01*
X82942848Y-87924770D01*
X82915303Y-87927353D01*
X82787115Y-87972207D01*
X82677849Y-88052849D01*
X82597207Y-88162115D01*
X82547352Y-88304597D01*
X82545881Y-88304082D01*
X82526798Y-88351987D01*
X82469952Y-88392611D01*
X82429198Y-88399500D01*
X82047487Y-88399500D01*
X82031302Y-88398439D01*
X82027376Y-88397922D01*
X81999999Y-88394317D01*
X81964741Y-88398959D01*
X81960639Y-88399500D01*
X81931517Y-88403334D01*
X81843237Y-88414956D01*
X81697161Y-88475462D01*
X81671597Y-88495078D01*
X81571718Y-88571718D01*
X81571716Y-88571719D01*
X81571715Y-88571721D01*
X81552490Y-88596774D01*
X81541798Y-88608965D01*
X79287584Y-90863181D01*
X79226261Y-90896666D01*
X79199903Y-90899500D01*
X78612621Y-90899500D01*
X78545582Y-90879815D01*
X78513667Y-90850227D01*
X78510140Y-90845557D01*
X78449830Y-90765693D01*
X78390980Y-90687762D01*
X78226562Y-90537875D01*
X78037404Y-90420754D01*
X77972216Y-90395500D01*
X77829940Y-90340382D01*
X77611243Y-90299500D01*
X77388757Y-90299500D01*
X77170060Y-90340381D01*
X77170060Y-90340382D01*
X76962595Y-90420754D01*
X76773437Y-90537875D01*
X76609019Y-90687762D01*
X76503861Y-90827016D01*
X76489860Y-90845557D01*
X76486333Y-90850227D01*
X76430224Y-90891863D01*
X76387379Y-90899500D01*
X72112621Y-90899500D01*
X72045582Y-90879815D01*
X72013667Y-90850227D01*
X72010140Y-90845557D01*
X71949830Y-90765693D01*
X71890980Y-90687762D01*
X71726562Y-90537875D01*
X71537404Y-90420754D01*
X71472216Y-90395500D01*
X71329940Y-90340382D01*
X71111243Y-90299500D01*
X70888757Y-90299500D01*
X70670059Y-90340381D01*
X70670060Y-90340382D01*
X70462595Y-90420754D01*
X70273437Y-90537875D01*
X70109019Y-90687762D01*
X69974941Y-90865311D01*
X69875769Y-91064473D01*
X69814885Y-91278462D01*
X69800603Y-91432589D01*
X69794357Y-91500000D01*
X69800903Y-91570639D01*
X69814885Y-91721537D01*
X69875769Y-91935526D01*
X69974941Y-92134688D01*
X70109019Y-92312237D01*
X70273437Y-92462124D01*
X70462595Y-92579245D01*
X70462597Y-92579245D01*
X70462599Y-92579247D01*
X70670060Y-92659618D01*
X70888757Y-92700500D01*
X70888759Y-92700500D01*
X71111241Y-92700500D01*
X71111243Y-92700500D01*
X71329940Y-92659618D01*
X71537401Y-92579247D01*
X71726562Y-92462124D01*
X71890981Y-92312236D01*
X72013667Y-92149772D01*
X72069776Y-92108137D01*
X72112621Y-92100500D01*
X76387379Y-92100500D01*
X76454418Y-92120185D01*
X76486333Y-92149773D01*
X76609019Y-92312237D01*
X76773437Y-92462124D01*
X76962595Y-92579245D01*
X76962597Y-92579245D01*
X76962599Y-92579247D01*
X77170060Y-92659618D01*
X77388757Y-92700500D01*
X77388759Y-92700500D01*
X77611241Y-92700500D01*
X77611243Y-92700500D01*
X77829940Y-92659618D01*
X78037401Y-92579247D01*
X78226562Y-92462124D01*
X78390981Y-92312236D01*
X78513667Y-92149772D01*
X78569776Y-92108137D01*
X78612621Y-92100500D01*
X79452513Y-92100500D01*
X79468697Y-92101560D01*
X79500000Y-92105682D01*
X79656762Y-92085044D01*
X79802841Y-92024536D01*
X79823725Y-92008511D01*
X79928282Y-91928282D01*
X79947509Y-91903223D01*
X79958190Y-91891043D01*
X82212415Y-89636819D01*
X82273739Y-89603334D01*
X82300097Y-89600500D01*
X82429198Y-89600500D01*
X82496237Y-89620185D01*
X82541992Y-89672989D01*
X82549993Y-89702952D01*
X82597207Y-89837884D01*
X82677849Y-89947150D01*
X82787115Y-90027792D01*
X82787118Y-90027793D01*
X82915301Y-90072646D01*
X82945734Y-90075500D01*
X82975500Y-90075500D01*
X83042539Y-90095185D01*
X83088294Y-90147989D01*
X83099500Y-90199500D01*
X83099500Y-91063434D01*
X83106346Y-91084507D01*
X83110886Y-91103418D01*
X83114353Y-91125302D01*
X83124412Y-91145044D01*
X83131857Y-91163019D01*
X83138704Y-91184090D01*
X83151726Y-91202014D01*
X83161889Y-91218599D01*
X83171947Y-91238339D01*
X83171949Y-91238341D01*
X83171950Y-91238342D01*
X83188283Y-91254675D01*
X83188296Y-91254690D01*
X84247770Y-92314163D01*
X84247776Y-92314168D01*
X84261658Y-92328050D01*
X84281397Y-92338107D01*
X84297982Y-92348271D01*
X84315910Y-92361297D01*
X84336978Y-92368142D01*
X84354955Y-92375588D01*
X84374692Y-92385644D01*
X84374696Y-92385646D01*
X84396585Y-92389112D01*
X84415489Y-92393651D01*
X84436567Y-92400500D01*
X84468481Y-92400500D01*
X138282745Y-92400500D01*
X138349784Y-92420185D01*
X138370426Y-92436819D01*
X138527022Y-92593415D01*
X138560507Y-92654738D01*
X138560958Y-92656905D01*
X138565888Y-92681693D01*
X138599018Y-92731275D01*
X139758316Y-93890573D01*
X139767782Y-93896898D01*
X139812587Y-93950510D01*
X139821294Y-94019835D01*
X139791140Y-94082862D01*
X139767782Y-94103102D01*
X139758316Y-94109426D01*
X138599020Y-95268722D01*
X138565889Y-95318306D01*
X138560959Y-95343094D01*
X138528573Y-95405004D01*
X138527023Y-95406582D01*
X137870426Y-96063181D01*
X137809103Y-96096666D01*
X137782745Y-96099500D01*
X88958224Y-96099500D01*
X88958212Y-96099501D01*
X88936567Y-96099501D01*
X88915499Y-96106346D01*
X88896583Y-96110887D01*
X88874695Y-96114354D01*
X88854951Y-96124413D01*
X88836984Y-96131855D01*
X88815910Y-96138703D01*
X88797984Y-96151727D01*
X88781398Y-96161891D01*
X88761658Y-96171949D01*
X88739091Y-96194517D01*
X87194516Y-97739091D01*
X87194513Y-97739094D01*
X87171949Y-97761657D01*
X87161892Y-97781396D01*
X87151732Y-97797976D01*
X87146277Y-97805486D01*
X87138702Y-97815913D01*
X87131854Y-97836987D01*
X87124412Y-97854954D01*
X87114353Y-97874697D01*
X87110886Y-97896582D01*
X87106347Y-97915492D01*
X87099500Y-97936567D01*
X87099497Y-98019816D01*
X87099500Y-98019844D01*
X87099500Y-106282745D01*
X87079815Y-106349784D01*
X87063181Y-106370426D01*
X85870426Y-107563181D01*
X85809103Y-107596666D01*
X85782745Y-107599500D01*
X83936567Y-107599500D01*
X83915491Y-107606347D01*
X83896580Y-107610887D01*
X83874693Y-107614354D01*
X83854952Y-107624412D01*
X83836987Y-107631854D01*
X83815910Y-107638703D01*
X83797982Y-107651728D01*
X83781402Y-107661888D01*
X83761658Y-107671948D01*
X83739095Y-107694512D01*
X83194513Y-108239094D01*
X83171949Y-108261657D01*
X83161892Y-108281396D01*
X83151732Y-108297976D01*
X83146277Y-108305486D01*
X83138702Y-108315913D01*
X83131854Y-108336987D01*
X83124412Y-108354954D01*
X83114353Y-108374697D01*
X83110886Y-108396582D01*
X83106347Y-108415492D01*
X83099500Y-108436567D01*
X83099498Y-108493137D01*
X83099500Y-108493146D01*
X83099500Y-109800500D01*
X83079815Y-109867539D01*
X83027011Y-109913294D01*
X82975500Y-109924500D01*
X82945734Y-109924500D01*
X82942861Y-109924769D01*
X82942848Y-109924770D01*
X82915303Y-109927353D01*
X82787115Y-109972207D01*
X82677849Y-110052849D01*
X82597207Y-110162115D01*
X82547352Y-110304597D01*
X82545881Y-110304082D01*
X82526798Y-110351987D01*
X82469952Y-110392611D01*
X82429198Y-110399500D01*
X81800097Y-110399500D01*
X81733058Y-110379815D01*
X81712416Y-110363181D01*
X80636819Y-109287584D01*
X80603334Y-109226261D01*
X80600500Y-109199903D01*
X80600500Y-103047487D01*
X80601561Y-103031301D01*
X80605682Y-103000000D01*
X80585044Y-102843238D01*
X80534425Y-102721035D01*
X80526957Y-102651567D01*
X80558232Y-102589088D01*
X80618321Y-102553436D01*
X80688146Y-102555930D01*
X80736668Y-102585903D01*
X82421447Y-104270682D01*
X82454932Y-104332005D01*
X82457169Y-104370516D01*
X82444416Y-104499999D01*
X82464699Y-104705932D01*
X82464700Y-104705934D01*
X82524768Y-104903954D01*
X82622315Y-105086450D01*
X82671051Y-105145835D01*
X82753589Y-105246410D01*
X82757964Y-105250000D01*
X82913550Y-105377685D01*
X83096046Y-105475232D01*
X83294066Y-105535300D01*
X83500000Y-105555583D01*
X83705934Y-105535300D01*
X83903954Y-105475232D01*
X84086450Y-105377685D01*
X84246410Y-105246410D01*
X84377685Y-105086450D01*
X84475232Y-104903954D01*
X84535300Y-104705934D01*
X84555583Y-104500000D01*
X84535300Y-104294066D01*
X84475232Y-104096046D01*
X84377685Y-103913550D01*
X84312047Y-103833570D01*
X84246410Y-103753589D01*
X84139244Y-103665642D01*
X84086450Y-103622315D01*
X84062879Y-103609715D01*
X83903953Y-103524767D01*
X83837447Y-103504593D01*
X83779009Y-103466296D01*
X83750552Y-103402483D01*
X83761113Y-103333416D01*
X83807338Y-103281023D01*
X83841350Y-103266158D01*
X83963491Y-103233430D01*
X84177576Y-103133600D01*
X84371081Y-102998106D01*
X84538106Y-102831081D01*
X84673600Y-102637576D01*
X84773430Y-102423492D01*
X84830636Y-102210000D01*
X83933686Y-102210000D01*
X83959493Y-102169844D01*
X84000000Y-102031889D01*
X84000000Y-101888111D01*
X83959493Y-101750156D01*
X83933686Y-101710000D01*
X84830636Y-101710000D01*
X84830635Y-101709999D01*
X84773430Y-101496507D01*
X84673599Y-101282421D01*
X84538109Y-101088921D01*
X84371081Y-100921893D01*
X84177576Y-100786399D01*
X83963492Y-100686569D01*
X83841349Y-100653841D01*
X83781689Y-100617476D01*
X83751160Y-100554629D01*
X83759455Y-100485253D01*
X83803940Y-100431375D01*
X83837444Y-100415407D01*
X83903954Y-100395232D01*
X84086450Y-100297685D01*
X84246410Y-100166410D01*
X84377685Y-100006450D01*
X84475232Y-99823954D01*
X84535300Y-99625934D01*
X84555583Y-99420000D01*
X84535300Y-99214066D01*
X84475232Y-99016046D01*
X84377685Y-98833550D01*
X84275353Y-98708857D01*
X84246410Y-98673589D01*
X84124907Y-98573876D01*
X84086450Y-98542315D01*
X83903954Y-98444768D01*
X83804944Y-98414734D01*
X83705932Y-98384699D01*
X83522497Y-98366632D01*
X83500000Y-98364417D01*
X83499999Y-98364417D01*
X83294067Y-98384699D01*
X83096043Y-98444769D01*
X82913551Y-98542314D01*
X82753589Y-98673589D01*
X82622314Y-98833551D01*
X82524769Y-99016043D01*
X82464699Y-99214067D01*
X82444417Y-99419999D01*
X82464699Y-99625932D01*
X82464700Y-99625934D01*
X82524768Y-99823954D01*
X82622315Y-100006450D01*
X82658077Y-100050026D01*
X82753589Y-100166410D01*
X82833570Y-100232047D01*
X82913550Y-100297685D01*
X83096046Y-100395232D01*
X83162553Y-100415406D01*
X83220990Y-100453703D01*
X83249446Y-100517515D01*
X83238886Y-100586582D01*
X83192662Y-100638975D01*
X83158650Y-100653841D01*
X83036507Y-100686569D01*
X82822421Y-100786400D01*
X82628921Y-100921890D01*
X82461890Y-101088921D01*
X82326400Y-101282421D01*
X82226569Y-101496507D01*
X82169364Y-101709999D01*
X82169364Y-101710000D01*
X83066314Y-101710000D01*
X83040507Y-101750156D01*
X83000000Y-101888111D01*
X83000000Y-102031889D01*
X83040507Y-102169844D01*
X83066314Y-102210000D01*
X82110598Y-102210000D01*
X82043559Y-102190315D01*
X82022917Y-102173681D01*
X81136819Y-101287583D01*
X81103334Y-101226260D01*
X81100500Y-101199902D01*
X81100500Y-97547494D01*
X81101561Y-97531308D01*
X81105683Y-97500000D01*
X81085044Y-97343238D01*
X81024536Y-97197159D01*
X81010818Y-97179281D01*
X80997473Y-97161889D01*
X80928282Y-97071717D01*
X80903229Y-97052494D01*
X80891034Y-97041799D01*
X80729235Y-96880000D01*
X82444417Y-96880000D01*
X82464699Y-97085932D01*
X82484065Y-97149773D01*
X82524040Y-97281555D01*
X82524769Y-97283956D01*
X82562963Y-97355412D01*
X82622315Y-97466450D01*
X82644794Y-97493841D01*
X82753589Y-97626410D01*
X82827332Y-97686928D01*
X82913550Y-97757685D01*
X83096046Y-97855232D01*
X83294066Y-97915300D01*
X83500000Y-97935583D01*
X83705934Y-97915300D01*
X83903954Y-97855232D01*
X84086450Y-97757685D01*
X84246410Y-97626410D01*
X84377685Y-97466450D01*
X84475232Y-97283954D01*
X84535300Y-97085934D01*
X84555583Y-96880000D01*
X84535300Y-96674066D01*
X84475232Y-96476046D01*
X84377685Y-96293550D01*
X84295157Y-96192989D01*
X84246410Y-96133589D01*
X84148952Y-96053608D01*
X84086450Y-96002315D01*
X83903954Y-95904768D01*
X83804944Y-95874734D01*
X83705932Y-95844699D01*
X83522497Y-95826632D01*
X83500000Y-95824417D01*
X83499999Y-95824417D01*
X83294067Y-95844699D01*
X83130499Y-95894317D01*
X83113413Y-95899500D01*
X83096043Y-95904769D01*
X82913551Y-96002314D01*
X82753589Y-96133589D01*
X82622314Y-96293551D01*
X82524769Y-96476043D01*
X82464699Y-96674067D01*
X82444417Y-96880000D01*
X80729235Y-96880000D01*
X79958199Y-96108964D01*
X79947503Y-96096768D01*
X79928281Y-96071716D01*
X79802840Y-95975463D01*
X79656762Y-95914956D01*
X79539361Y-95899500D01*
X79500000Y-95894317D01*
X79472163Y-95897982D01*
X79468697Y-95898439D01*
X79452513Y-95899500D01*
X78612621Y-95899500D01*
X78545582Y-95879815D01*
X78513667Y-95850227D01*
X78509492Y-95844699D01*
X78480634Y-95806484D01*
X78390980Y-95687762D01*
X78226562Y-95537875D01*
X78037404Y-95420754D01*
X77929281Y-95378867D01*
X77829940Y-95340382D01*
X77611243Y-95299500D01*
X77388757Y-95299500D01*
X77170060Y-95340381D01*
X77170060Y-95340382D01*
X76962595Y-95420754D01*
X76773437Y-95537875D01*
X76609019Y-95687762D01*
X76486333Y-95850227D01*
X76430224Y-95891863D01*
X76387379Y-95899500D01*
X72112621Y-95899500D01*
X72045582Y-95879815D01*
X72013667Y-95850227D01*
X72009492Y-95844699D01*
X71980634Y-95806484D01*
X71890980Y-95687762D01*
X71726562Y-95537875D01*
X71537404Y-95420754D01*
X71429281Y-95378867D01*
X71329940Y-95340382D01*
X71111243Y-95299500D01*
X70888757Y-95299500D01*
X70670059Y-95340381D01*
X70670060Y-95340382D01*
X70462595Y-95420754D01*
X70273437Y-95537875D01*
X70109019Y-95687762D01*
X69986333Y-95850227D01*
X69930224Y-95891863D01*
X69887379Y-95899500D01*
X69224500Y-95899500D01*
X69157461Y-95879815D01*
X69111706Y-95827011D01*
X69100500Y-95775500D01*
X69100500Y-95209748D01*
X82449500Y-95209748D01*
X82461132Y-95268230D01*
X82505447Y-95334552D01*
X82571769Y-95378867D01*
X82630251Y-95390500D01*
X82630252Y-95390500D01*
X84369749Y-95390500D01*
X84422610Y-95379985D01*
X84428231Y-95378867D01*
X84494552Y-95334552D01*
X84538867Y-95268231D01*
X84550500Y-95209748D01*
X84550500Y-93470252D01*
X84538867Y-93411769D01*
X84531337Y-93400500D01*
X84494552Y-93345447D01*
X84428230Y-93301132D01*
X84369749Y-93289500D01*
X84369748Y-93289500D01*
X82630252Y-93289500D01*
X82630251Y-93289500D01*
X82571769Y-93301132D01*
X82505447Y-93345447D01*
X82461132Y-93411769D01*
X82449500Y-93470251D01*
X82449500Y-95209748D01*
X69100500Y-95209748D01*
X69100500Y-88300097D01*
X69120185Y-88233058D01*
X69136819Y-88212416D01*
X69712416Y-87636819D01*
X69773739Y-87603334D01*
X69800097Y-87600500D01*
X69887379Y-87600500D01*
X69954418Y-87620185D01*
X69986333Y-87649773D01*
X70109019Y-87812237D01*
X70273437Y-87962124D01*
X70462595Y-88079245D01*
X70462597Y-88079245D01*
X70462599Y-88079247D01*
X70670060Y-88159618D01*
X70888757Y-88200500D01*
X70888759Y-88200500D01*
X71111241Y-88200500D01*
X71111243Y-88200500D01*
X71329940Y-88159618D01*
X71537401Y-88079247D01*
X71726562Y-87962124D01*
X71767537Y-87924770D01*
X71890980Y-87812237D01*
X71929176Y-87761658D01*
X72013667Y-87649772D01*
X72069776Y-87608137D01*
X72112621Y-87600500D01*
X76387379Y-87600500D01*
X76454418Y-87620185D01*
X76486333Y-87649773D01*
X76609019Y-87812237D01*
X76773437Y-87962124D01*
X76962595Y-88079245D01*
X76962597Y-88079245D01*
X76962599Y-88079247D01*
X77170060Y-88159618D01*
X77388757Y-88200500D01*
X77388759Y-88200500D01*
X77611241Y-88200500D01*
X77611243Y-88200500D01*
X77829940Y-88159618D01*
X78037401Y-88079247D01*
X78226562Y-87962124D01*
X78267537Y-87924770D01*
X78390980Y-87812237D01*
X78414267Y-87781400D01*
X78525058Y-87634689D01*
X78624229Y-87435528D01*
X78630083Y-87414956D01*
X78661888Y-87303170D01*
X78685115Y-87221536D01*
X78705643Y-87000000D01*
X78705643Y-86999999D01*
X121894317Y-86999999D01*
X121914956Y-87156762D01*
X121975463Y-87302840D01*
X122071717Y-87428282D01*
X122165183Y-87500000D01*
X122197159Y-87524536D01*
X122343238Y-87585044D01*
X122500000Y-87605682D01*
X122656762Y-87585044D01*
X122802841Y-87524536D01*
X122928282Y-87428282D01*
X123024536Y-87302841D01*
X123085044Y-87156762D01*
X123105682Y-87000000D01*
X123085044Y-86843238D01*
X123024536Y-86697159D01*
X122956863Y-86608965D01*
X122926124Y-86568905D01*
X122900930Y-86503736D01*
X122900500Y-86493419D01*
X122900500Y-85506580D01*
X122920185Y-85439541D01*
X122926124Y-85431093D01*
X122928279Y-85428283D01*
X122928282Y-85428282D01*
X123024536Y-85302841D01*
X123085044Y-85156762D01*
X123105682Y-85000000D01*
X123085044Y-84843238D01*
X123024536Y-84697159D01*
X122954293Y-84605616D01*
X122928282Y-84571717D01*
X122802840Y-84475463D01*
X122656762Y-84414956D01*
X122500000Y-84394317D01*
X122343237Y-84414956D01*
X122197159Y-84475463D01*
X122071717Y-84571717D01*
X121975463Y-84697159D01*
X121914956Y-84843237D01*
X121894317Y-84999999D01*
X121914956Y-85156762D01*
X121975463Y-85302840D01*
X122073875Y-85431094D01*
X122099069Y-85496263D01*
X122099499Y-85506580D01*
X122099500Y-86493419D01*
X122079816Y-86560458D01*
X122073876Y-86568905D01*
X121975463Y-86697159D01*
X121914956Y-86843237D01*
X121894317Y-86999999D01*
X78705643Y-86999999D01*
X78685115Y-86778464D01*
X78661982Y-86697159D01*
X78624230Y-86564473D01*
X78525058Y-86365311D01*
X78390980Y-86187762D01*
X78226562Y-86037875D01*
X78037404Y-85920754D01*
X77976174Y-85897033D01*
X77829940Y-85840382D01*
X77611243Y-85799500D01*
X77388757Y-85799500D01*
X77170060Y-85840382D01*
X76962595Y-85920754D01*
X76773437Y-86037875D01*
X76609019Y-86187762D01*
X76486333Y-86350227D01*
X76430224Y-86391863D01*
X76387379Y-86399500D01*
X72112621Y-86399500D01*
X72045582Y-86379815D01*
X72013667Y-86350227D01*
X71890980Y-86187762D01*
X71726562Y-86037875D01*
X71537404Y-85920754D01*
X71476174Y-85897033D01*
X71329940Y-85840382D01*
X71111243Y-85799500D01*
X70888757Y-85799500D01*
X70670059Y-85840382D01*
X70670060Y-85840382D01*
X70462595Y-85920754D01*
X70273437Y-86037875D01*
X70109019Y-86187762D01*
X69986333Y-86350227D01*
X69930224Y-86391863D01*
X69887379Y-86399500D01*
X69547494Y-86399500D01*
X69531308Y-86398439D01*
X69500000Y-86394317D01*
X69499999Y-86394317D01*
X69295011Y-86421305D01*
X69272467Y-86443583D01*
X69261144Y-86448960D01*
X69197160Y-86475463D01*
X69165798Y-86499527D01*
X69071718Y-86571718D01*
X69071716Y-86571719D01*
X69071715Y-86571721D01*
X69052490Y-86596774D01*
X69041798Y-86608965D01*
X68108965Y-87541798D01*
X68096774Y-87552490D01*
X68071721Y-87571715D01*
X68071719Y-87571716D01*
X68071718Y-87571718D01*
X67985492Y-87684090D01*
X67982279Y-87688277D01*
X67975463Y-87697159D01*
X67914955Y-87843239D01*
X67894317Y-87999999D01*
X67898439Y-88031301D01*
X67899500Y-88047487D01*
X67899500Y-96452511D01*
X67898439Y-96468696D01*
X67894317Y-96499999D01*
X67898439Y-96531301D01*
X67899500Y-96547487D01*
X67899500Y-104952511D01*
X67898439Y-104968696D01*
X67894317Y-104999999D01*
X67500500Y-104999999D01*
X67500500Y-80000000D01*
X68494389Y-80000000D01*
X68514804Y-80285429D01*
X68575629Y-80565041D01*
X68675634Y-80833163D01*
X68812772Y-81084313D01*
X68898517Y-81198855D01*
X68984261Y-81313395D01*
X69186605Y-81515739D01*
X69358414Y-81644354D01*
X69415686Y-81687227D01*
X69555435Y-81763535D01*
X69666839Y-81824367D01*
X69934954Y-81924369D01*
X69934957Y-81924369D01*
X69934958Y-81924370D01*
X69987217Y-81935738D01*
X70214572Y-81985196D01*
X70500000Y-82005610D01*
X70785428Y-81985196D01*
X71065046Y-81924369D01*
X71333161Y-81824367D01*
X71584315Y-81687226D01*
X71813395Y-81515739D01*
X72015739Y-81313395D01*
X72187226Y-81084315D01*
X72324367Y-80833161D01*
X72424369Y-80565046D01*
X72485196Y-80285428D01*
X72505610Y-80000000D01*
X216994389Y-80000000D01*
X217014804Y-80285429D01*
X217075629Y-80565041D01*
X217175634Y-80833163D01*
X217312772Y-81084313D01*
X217398517Y-81198855D01*
X217484261Y-81313395D01*
X217686605Y-81515739D01*
X217858415Y-81644354D01*
X217915686Y-81687227D01*
X218055435Y-81763535D01*
X218166839Y-81824367D01*
X218434954Y-81924369D01*
X218434957Y-81924369D01*
X218434958Y-81924370D01*
X218487217Y-81935738D01*
X218714572Y-81985196D01*
X219000000Y-82005610D01*
X219285428Y-81985196D01*
X219565046Y-81924369D01*
X219833161Y-81824367D01*
X220084315Y-81687226D01*
X220313395Y-81515739D01*
X220515739Y-81313395D01*
X220687226Y-81084315D01*
X220824367Y-80833161D01*
X220924369Y-80565046D01*
X220985196Y-80285428D01*
X221005610Y-80000000D01*
X220985196Y-79714572D01*
X220924369Y-79434954D01*
X220824367Y-79166839D01*
X220763535Y-79055435D01*
X220687227Y-78915686D01*
X220644354Y-78858414D01*
X220515739Y-78686605D01*
X220313395Y-78484261D01*
X220198854Y-78398517D01*
X220084313Y-78312772D01*
X219833163Y-78175634D01*
X219833162Y-78175633D01*
X219833161Y-78175633D01*
X219658123Y-78110347D01*
X219565041Y-78075629D01*
X219285429Y-78014804D01*
X219000000Y-77994389D01*
X218714570Y-78014804D01*
X218434958Y-78075629D01*
X218166836Y-78175634D01*
X217915686Y-78312772D01*
X217686602Y-78484263D01*
X217484263Y-78686602D01*
X217312772Y-78915686D01*
X217175634Y-79166836D01*
X217075629Y-79434958D01*
X217014804Y-79714570D01*
X216994389Y-80000000D01*
X72505610Y-80000000D01*
X72485196Y-79714572D01*
X72424369Y-79434954D01*
X72324367Y-79166839D01*
X72263535Y-79055435D01*
X72187227Y-78915686D01*
X72144354Y-78858415D01*
X72015739Y-78686605D01*
X71813395Y-78484261D01*
X71698855Y-78398517D01*
X71584313Y-78312772D01*
X71333163Y-78175634D01*
X71333162Y-78175633D01*
X71333161Y-78175633D01*
X71158123Y-78110347D01*
X71065041Y-78075629D01*
X70785429Y-78014804D01*
X70500000Y-77994389D01*
X70214570Y-78014804D01*
X69934958Y-78075629D01*
X69666836Y-78175634D01*
X69415686Y-78312772D01*
X69186602Y-78484263D01*
X68984263Y-78686602D01*
X68812772Y-78915686D01*
X68675634Y-79166836D01*
X68575629Y-79434958D01*
X68514804Y-79714570D01*
X68494389Y-80000000D01*
X67500500Y-80000000D01*
X67500500Y-77124500D01*
X67520185Y-77057461D01*
X67572989Y-77011706D01*
X67624500Y-77000500D01*
X221875500Y-77000500D01*
X221942539Y-77020185D01*
G37*
%TD.AperFunction*%
%TD*%
M02*
