%TF.GenerationSoftware,KiCad,Pcbnew,7.0.2*%
%TF.CreationDate,2024-10-16T20:37:04+05:30*%
%TF.ProjectId,digitalClock,64696769-7461-46c4-936c-6f636b2e6b69,rev?*%
%TF.SameCoordinates,Original*%
%TF.FileFunction,Soldermask,Bot*%
%TF.FilePolarity,Negative*%
%FSLAX46Y46*%
G04 Gerber Fmt 4.6, Leading zero omitted, Abs format (unit mm)*
G04 Created by KiCad (PCBNEW 7.0.2) date 2024-10-16 20:37:04*
%MOMM*%
%LPD*%
G01*
G04 APERTURE LIST*
%ADD10C,2.000000*%
%ADD11C,0.650000*%
%ADD12O,2.004000X1.204000*%
%ADD13O,2.304000X1.204000*%
%ADD14R,1.700000X1.700000*%
%ADD15O,1.700000X1.700000*%
%ADD16C,1.500000*%
%ADD17R,1.600000X1.600000*%
%ADD18C,1.600000*%
%ADD19R,1.000000X0.750000*%
G04 APERTURE END LIST*
D10*
%TO.C,SW3*%
X77500000Y-110500000D03*
X71000000Y-110500000D03*
X77500000Y-106000000D03*
X71000000Y-106000000D03*
%TD*%
D11*
%TO.C,J7*%
X217000000Y-96210000D03*
X217000000Y-90430000D03*
D12*
X220680000Y-97640000D03*
X220680000Y-89000000D03*
D13*
X216500000Y-97640000D03*
X216500000Y-89000000D03*
%TD*%
D14*
%TO.C,J5*%
X83500000Y-94340000D03*
D15*
X83500000Y-96880000D03*
X83500000Y-99420000D03*
X83500000Y-101960000D03*
X83500000Y-104500000D03*
%TD*%
D10*
%TO.C,SW2*%
X77500000Y-101000000D03*
X71000000Y-101000000D03*
X77500000Y-96500000D03*
X71000000Y-96500000D03*
%TD*%
D16*
%TO.C,Y1*%
X139800000Y-105000000D03*
X136000000Y-105000000D03*
%TD*%
D14*
%TO.C,J3*%
X208500000Y-94340000D03*
D15*
X208500000Y-96880000D03*
X208500000Y-99420000D03*
X208500000Y-101960000D03*
X208500000Y-104500000D03*
%TD*%
D10*
%TO.C,SW1*%
X77500000Y-91500000D03*
X71000000Y-91500000D03*
X77500000Y-87000000D03*
X71000000Y-87000000D03*
%TD*%
D17*
%TO.C,C5*%
X196000000Y-105000000D03*
D18*
X196000000Y-102500000D03*
%TD*%
D14*
%TO.C,J1*%
X217000000Y-101000000D03*
D15*
X217000000Y-103540000D03*
%TD*%
D14*
%TO.C,J6*%
X140460000Y-113460000D03*
D15*
X140460000Y-116000000D03*
X143000000Y-113460000D03*
X143000000Y-116000000D03*
X145540000Y-113460000D03*
X145540000Y-116000000D03*
X148080000Y-113460000D03*
X148080000Y-116000000D03*
X150620000Y-113460000D03*
X150620000Y-116000000D03*
%TD*%
D14*
%TO.C,J4*%
X167000000Y-115000000D03*
D15*
X164460000Y-115000000D03*
X161920000Y-115000000D03*
X159380000Y-115000000D03*
%TD*%
D14*
%TO.C,J2*%
X126580000Y-115000000D03*
D15*
X124040000Y-115000000D03*
X121500000Y-115000000D03*
X118960000Y-115000000D03*
%TD*%
D19*
%TO.C,SW4*%
X147500000Y-80250000D03*
X141500000Y-80250000D03*
X147500000Y-84000000D03*
X141500000Y-84000000D03*
%TD*%
M02*
