%TF.GenerationSoftware,KiCad,Pcbnew,7.0.2*%
%TF.CreationDate,2024-10-16T20:37:04+05:30*%
%TF.ProjectId,digitalClock,64696769-7461-46c4-936c-6f636b2e6b69,rev?*%
%TF.SameCoordinates,Original*%
%TF.FileFunction,Legend,Top*%
%TF.FilePolarity,Positive*%
%FSLAX46Y46*%
G04 Gerber Fmt 4.6, Leading zero omitted, Abs format (unit mm)*
G04 Created by KiCad (PCBNEW 7.0.2) date 2024-10-16 20:37:04*
%MOMM*%
%LPD*%
G01*
G04 APERTURE LIST*
%ADD10C,0.187500*%
%ADD11C,0.300000*%
%ADD12C,0.150000*%
%ADD13C,0.120000*%
%ADD14C,0.127000*%
%ADD15C,0.200000*%
G04 APERTURE END LIST*
D10*
X69330357Y-117887857D02*
X70044642Y-117887857D01*
X69133928Y-118316428D02*
X69821428Y-116816428D01*
X69821428Y-116816428D02*
X70133928Y-118316428D01*
X72535714Y-117316428D02*
X72383928Y-118530714D01*
X72383928Y-118530714D02*
X72294643Y-118673571D01*
X72294643Y-118673571D02*
X72214285Y-118745000D01*
X72214285Y-118745000D02*
X72062500Y-118816428D01*
X72062500Y-118816428D02*
X71848214Y-118816428D01*
X71848214Y-118816428D02*
X71714285Y-118745000D01*
X72419643Y-118245000D02*
X72267857Y-118316428D01*
X72267857Y-118316428D02*
X71982143Y-118316428D01*
X71982143Y-118316428D02*
X71848214Y-118245000D01*
X71848214Y-118245000D02*
X71785714Y-118173571D01*
X71785714Y-118173571D02*
X71732143Y-118030714D01*
X71732143Y-118030714D02*
X71785714Y-117602142D01*
X71785714Y-117602142D02*
X71875000Y-117459285D01*
X71875000Y-117459285D02*
X71955357Y-117387857D01*
X71955357Y-117387857D02*
X72107143Y-117316428D01*
X72107143Y-117316428D02*
X72392857Y-117316428D01*
X72392857Y-117316428D02*
X72526785Y-117387857D01*
X73053571Y-118316428D02*
X73178571Y-117316428D01*
X73241071Y-116816428D02*
X73160714Y-116887857D01*
X73160714Y-116887857D02*
X73223214Y-116959285D01*
X73223214Y-116959285D02*
X73303571Y-116887857D01*
X73303571Y-116887857D02*
X73241071Y-116816428D01*
X73241071Y-116816428D02*
X73223214Y-116959285D01*
X73669642Y-117316428D02*
X74241071Y-117316428D01*
X73758928Y-118316428D02*
X73919642Y-117030714D01*
X73919642Y-117030714D02*
X74008928Y-116887857D01*
X74008928Y-116887857D02*
X74160714Y-116816428D01*
X74160714Y-116816428D02*
X74303571Y-116816428D01*
X74517856Y-117316428D02*
X75089285Y-117316428D01*
X74794642Y-116816428D02*
X74633928Y-118102142D01*
X74633928Y-118102142D02*
X74687499Y-118245000D01*
X74687499Y-118245000D02*
X74821428Y-118316428D01*
X74821428Y-118316428D02*
X74964285Y-118316428D01*
X76508927Y-117316428D02*
X77080356Y-117316428D01*
X76598213Y-118316428D02*
X76758927Y-117030714D01*
X76758927Y-117030714D02*
X76848213Y-116887857D01*
X76848213Y-116887857D02*
X76999999Y-116816428D01*
X76999999Y-116816428D02*
X77142856Y-116816428D01*
X77446427Y-118316428D02*
X77571427Y-117316428D01*
X77535713Y-117602142D02*
X77624998Y-117459285D01*
X77624998Y-117459285D02*
X77705355Y-117387857D01*
X77705355Y-117387857D02*
X77857141Y-117316428D01*
X77857141Y-117316428D02*
X77999998Y-117316428D01*
X78580356Y-118316428D02*
X78446427Y-118245000D01*
X78446427Y-118245000D02*
X78383927Y-118173571D01*
X78383927Y-118173571D02*
X78330356Y-118030714D01*
X78330356Y-118030714D02*
X78383927Y-117602142D01*
X78383927Y-117602142D02*
X78473213Y-117459285D01*
X78473213Y-117459285D02*
X78553570Y-117387857D01*
X78553570Y-117387857D02*
X78705356Y-117316428D01*
X78705356Y-117316428D02*
X78919641Y-117316428D01*
X78919641Y-117316428D02*
X79053570Y-117387857D01*
X79053570Y-117387857D02*
X79116070Y-117459285D01*
X79116070Y-117459285D02*
X79169641Y-117602142D01*
X79169641Y-117602142D02*
X79116070Y-118030714D01*
X79116070Y-118030714D02*
X79026784Y-118173571D01*
X79026784Y-118173571D02*
X78946427Y-118245000D01*
X78946427Y-118245000D02*
X78794641Y-118316428D01*
X78794641Y-118316428D02*
X78580356Y-118316428D01*
X79714284Y-118316428D02*
X79839284Y-117316428D01*
X79821427Y-117459285D02*
X79901784Y-117387857D01*
X79901784Y-117387857D02*
X80053570Y-117316428D01*
X80053570Y-117316428D02*
X80267855Y-117316428D01*
X80267855Y-117316428D02*
X80401784Y-117387857D01*
X80401784Y-117387857D02*
X80455355Y-117530714D01*
X80455355Y-117530714D02*
X80357141Y-118316428D01*
X80455355Y-117530714D02*
X80544641Y-117387857D01*
X80544641Y-117387857D02*
X80696427Y-117316428D01*
X80696427Y-117316428D02*
X80910712Y-117316428D01*
X80910712Y-117316428D02*
X81044641Y-117387857D01*
X81044641Y-117387857D02*
X81098212Y-117530714D01*
X81098212Y-117530714D02*
X80999998Y-118316428D01*
X82821426Y-116816428D02*
X83133926Y-118316428D01*
X83133926Y-118316428D02*
X83821426Y-116816428D01*
X84705355Y-118245000D02*
X84553569Y-118316428D01*
X84553569Y-118316428D02*
X84267855Y-118316428D01*
X84267855Y-118316428D02*
X84133926Y-118245000D01*
X84133926Y-118245000D02*
X84080355Y-118102142D01*
X84080355Y-118102142D02*
X84151784Y-117530714D01*
X84151784Y-117530714D02*
X84241069Y-117387857D01*
X84241069Y-117387857D02*
X84392855Y-117316428D01*
X84392855Y-117316428D02*
X84678569Y-117316428D01*
X84678569Y-117316428D02*
X84812498Y-117387857D01*
X84812498Y-117387857D02*
X84866069Y-117530714D01*
X84866069Y-117530714D02*
X84848212Y-117673571D01*
X84848212Y-117673571D02*
X84116069Y-117816428D01*
X86044641Y-118316428D02*
X86232141Y-116816428D01*
X86053570Y-118245000D02*
X85901784Y-118316428D01*
X85901784Y-118316428D02*
X85616070Y-118316428D01*
X85616070Y-118316428D02*
X85482141Y-118245000D01*
X85482141Y-118245000D02*
X85419641Y-118173571D01*
X85419641Y-118173571D02*
X85366070Y-118030714D01*
X85366070Y-118030714D02*
X85419641Y-117602142D01*
X85419641Y-117602142D02*
X85508927Y-117459285D01*
X85508927Y-117459285D02*
X85589284Y-117387857D01*
X85589284Y-117387857D02*
X85741070Y-117316428D01*
X85741070Y-117316428D02*
X86026784Y-117316428D01*
X86026784Y-117316428D02*
X86160712Y-117387857D01*
X87392855Y-118316428D02*
X87491069Y-117530714D01*
X87491069Y-117530714D02*
X87437498Y-117387857D01*
X87437498Y-117387857D02*
X87303569Y-117316428D01*
X87303569Y-117316428D02*
X87017855Y-117316428D01*
X87017855Y-117316428D02*
X86866069Y-117387857D01*
X87401784Y-118245000D02*
X87249998Y-118316428D01*
X87249998Y-118316428D02*
X86892855Y-118316428D01*
X86892855Y-118316428D02*
X86758926Y-118245000D01*
X86758926Y-118245000D02*
X86705355Y-118102142D01*
X86705355Y-118102142D02*
X86723212Y-117959285D01*
X86723212Y-117959285D02*
X86812498Y-117816428D01*
X86812498Y-117816428D02*
X86964284Y-117745000D01*
X86964284Y-117745000D02*
X87321426Y-117745000D01*
X87321426Y-117745000D02*
X87473212Y-117673571D01*
X88223212Y-117316428D02*
X88098212Y-118316428D01*
X88205355Y-117459285D02*
X88285712Y-117387857D01*
X88285712Y-117387857D02*
X88437498Y-117316428D01*
X88437498Y-117316428D02*
X88651783Y-117316428D01*
X88651783Y-117316428D02*
X88785712Y-117387857D01*
X88785712Y-117387857D02*
X88839283Y-117530714D01*
X88839283Y-117530714D02*
X88741069Y-118316428D01*
X89357140Y-117316428D02*
X89928569Y-117316428D01*
X89633926Y-116816428D02*
X89473212Y-118102142D01*
X89473212Y-118102142D02*
X89526783Y-118245000D01*
X89526783Y-118245000D02*
X89660712Y-118316428D01*
X89660712Y-118316428D02*
X89803569Y-118316428D01*
X90312497Y-118173571D02*
X90374997Y-118245000D01*
X90374997Y-118245000D02*
X90294640Y-118316428D01*
X90294640Y-118316428D02*
X90232140Y-118245000D01*
X90232140Y-118245000D02*
X90312497Y-118173571D01*
X90312497Y-118173571D02*
X90294640Y-118316428D01*
X91017854Y-118173571D02*
X91080354Y-118245000D01*
X91080354Y-118245000D02*
X90999997Y-118316428D01*
X90999997Y-118316428D02*
X90937497Y-118245000D01*
X90937497Y-118245000D02*
X91017854Y-118173571D01*
X91017854Y-118173571D02*
X90999997Y-118316428D01*
X91723211Y-118173571D02*
X91785711Y-118245000D01*
X91785711Y-118245000D02*
X91705354Y-118316428D01*
X91705354Y-118316428D02*
X91642854Y-118245000D01*
X91642854Y-118245000D02*
X91723211Y-118173571D01*
X91723211Y-118173571D02*
X91705354Y-118316428D01*
D11*
X140035714Y-78816428D02*
X139883928Y-80030714D01*
X139883928Y-80030714D02*
X139937500Y-80173571D01*
X139937500Y-80173571D02*
X140000000Y-80245000D01*
X140000000Y-80245000D02*
X140133928Y-80316428D01*
X140133928Y-80316428D02*
X140419642Y-80316428D01*
X140419642Y-80316428D02*
X140571428Y-80245000D01*
X140571428Y-80245000D02*
X140651785Y-80173571D01*
X140651785Y-80173571D02*
X140741071Y-80030714D01*
X140741071Y-80030714D02*
X140892857Y-78816428D01*
X141348214Y-80245000D02*
X141553571Y-80316428D01*
X141553571Y-80316428D02*
X141910714Y-80316428D01*
X141910714Y-80316428D02*
X142062500Y-80245000D01*
X142062500Y-80245000D02*
X142142857Y-80173571D01*
X142142857Y-80173571D02*
X142232142Y-80030714D01*
X142232142Y-80030714D02*
X142250000Y-79887857D01*
X142250000Y-79887857D02*
X142196428Y-79745000D01*
X142196428Y-79745000D02*
X142133928Y-79673571D01*
X142133928Y-79673571D02*
X142000000Y-79602142D01*
X142000000Y-79602142D02*
X141723214Y-79530714D01*
X141723214Y-79530714D02*
X141589285Y-79459285D01*
X141589285Y-79459285D02*
X141526785Y-79387857D01*
X141526785Y-79387857D02*
X141473214Y-79245000D01*
X141473214Y-79245000D02*
X141491071Y-79102142D01*
X141491071Y-79102142D02*
X141580357Y-78959285D01*
X141580357Y-78959285D02*
X141660714Y-78887857D01*
X141660714Y-78887857D02*
X141812500Y-78816428D01*
X141812500Y-78816428D02*
X142169642Y-78816428D01*
X142169642Y-78816428D02*
X142375000Y-78887857D01*
X143428571Y-79530714D02*
X143633928Y-79602142D01*
X143633928Y-79602142D02*
X143696428Y-79673571D01*
X143696428Y-79673571D02*
X143750000Y-79816428D01*
X143750000Y-79816428D02*
X143723214Y-80030714D01*
X143723214Y-80030714D02*
X143633928Y-80173571D01*
X143633928Y-80173571D02*
X143553571Y-80245000D01*
X143553571Y-80245000D02*
X143401785Y-80316428D01*
X143401785Y-80316428D02*
X142830357Y-80316428D01*
X142830357Y-80316428D02*
X143017857Y-78816428D01*
X143017857Y-78816428D02*
X143517857Y-78816428D01*
X143517857Y-78816428D02*
X143651785Y-78887857D01*
X143651785Y-78887857D02*
X143714285Y-78959285D01*
X143714285Y-78959285D02*
X143767857Y-79102142D01*
X143767857Y-79102142D02*
X143750000Y-79245000D01*
X143750000Y-79245000D02*
X143660714Y-79387857D01*
X143660714Y-79387857D02*
X143580357Y-79459285D01*
X143580357Y-79459285D02*
X143428571Y-79530714D01*
X143428571Y-79530714D02*
X142928571Y-79530714D01*
X146339285Y-80173571D02*
X146258928Y-80245000D01*
X146258928Y-80245000D02*
X146035713Y-80316428D01*
X146035713Y-80316428D02*
X145892856Y-80316428D01*
X145892856Y-80316428D02*
X145687499Y-80245000D01*
X145687499Y-80245000D02*
X145562499Y-80102142D01*
X145562499Y-80102142D02*
X145508928Y-79959285D01*
X145508928Y-79959285D02*
X145473213Y-79673571D01*
X145473213Y-79673571D02*
X145499999Y-79459285D01*
X145499999Y-79459285D02*
X145607142Y-79173571D01*
X145607142Y-79173571D02*
X145696428Y-79030714D01*
X145696428Y-79030714D02*
X145857142Y-78887857D01*
X145857142Y-78887857D02*
X146080356Y-78816428D01*
X146080356Y-78816428D02*
X146223213Y-78816428D01*
X146223213Y-78816428D02*
X146428571Y-78887857D01*
X146428571Y-78887857D02*
X146491071Y-78959285D01*
X147169642Y-80316428D02*
X147035713Y-80245000D01*
X147035713Y-80245000D02*
X146982142Y-80102142D01*
X146982142Y-80102142D02*
X147142856Y-78816428D01*
X147946428Y-80316428D02*
X147812499Y-80245000D01*
X147812499Y-80245000D02*
X147749999Y-80173571D01*
X147749999Y-80173571D02*
X147696428Y-80030714D01*
X147696428Y-80030714D02*
X147749999Y-79602142D01*
X147749999Y-79602142D02*
X147839285Y-79459285D01*
X147839285Y-79459285D02*
X147919642Y-79387857D01*
X147919642Y-79387857D02*
X148071428Y-79316428D01*
X148071428Y-79316428D02*
X148285713Y-79316428D01*
X148285713Y-79316428D02*
X148419642Y-79387857D01*
X148419642Y-79387857D02*
X148482142Y-79459285D01*
X148482142Y-79459285D02*
X148535713Y-79602142D01*
X148535713Y-79602142D02*
X148482142Y-80030714D01*
X148482142Y-80030714D02*
X148392856Y-80173571D01*
X148392856Y-80173571D02*
X148312499Y-80245000D01*
X148312499Y-80245000D02*
X148160713Y-80316428D01*
X148160713Y-80316428D02*
X147946428Y-80316428D01*
X149732142Y-80245000D02*
X149580356Y-80316428D01*
X149580356Y-80316428D02*
X149294642Y-80316428D01*
X149294642Y-80316428D02*
X149160713Y-80245000D01*
X149160713Y-80245000D02*
X149098213Y-80173571D01*
X149098213Y-80173571D02*
X149044642Y-80030714D01*
X149044642Y-80030714D02*
X149098213Y-79602142D01*
X149098213Y-79602142D02*
X149187499Y-79459285D01*
X149187499Y-79459285D02*
X149267856Y-79387857D01*
X149267856Y-79387857D02*
X149419642Y-79316428D01*
X149419642Y-79316428D02*
X149705356Y-79316428D01*
X149705356Y-79316428D02*
X149839284Y-79387857D01*
X150357142Y-80316428D02*
X150544642Y-78816428D01*
X150571428Y-79745000D02*
X150928570Y-80316428D01*
X151053570Y-79316428D02*
X150410713Y-79887857D01*
D12*
%TO.C,C1*%
X129395833Y-107217380D02*
X129348214Y-107265000D01*
X129348214Y-107265000D02*
X129205357Y-107312619D01*
X129205357Y-107312619D02*
X129110119Y-107312619D01*
X129110119Y-107312619D02*
X128967262Y-107265000D01*
X128967262Y-107265000D02*
X128872024Y-107169761D01*
X128872024Y-107169761D02*
X128824405Y-107074523D01*
X128824405Y-107074523D02*
X128776786Y-106884047D01*
X128776786Y-106884047D02*
X128776786Y-106741190D01*
X128776786Y-106741190D02*
X128824405Y-106550714D01*
X128824405Y-106550714D02*
X128872024Y-106455476D01*
X128872024Y-106455476D02*
X128967262Y-106360238D01*
X128967262Y-106360238D02*
X129110119Y-106312619D01*
X129110119Y-106312619D02*
X129205357Y-106312619D01*
X129205357Y-106312619D02*
X129348214Y-106360238D01*
X129348214Y-106360238D02*
X129395833Y-106407857D01*
X130348214Y-107312619D02*
X129776786Y-107312619D01*
X130062500Y-107312619D02*
X130062500Y-106312619D01*
X130062500Y-106312619D02*
X129967262Y-106455476D01*
X129967262Y-106455476D02*
X129872024Y-106550714D01*
X129872024Y-106550714D02*
X129776786Y-106598333D01*
%TO.C,R2*%
X84783333Y-91282619D02*
X84450000Y-90806428D01*
X84211905Y-91282619D02*
X84211905Y-90282619D01*
X84211905Y-90282619D02*
X84592857Y-90282619D01*
X84592857Y-90282619D02*
X84688095Y-90330238D01*
X84688095Y-90330238D02*
X84735714Y-90377857D01*
X84735714Y-90377857D02*
X84783333Y-90473095D01*
X84783333Y-90473095D02*
X84783333Y-90615952D01*
X84783333Y-90615952D02*
X84735714Y-90711190D01*
X84735714Y-90711190D02*
X84688095Y-90758809D01*
X84688095Y-90758809D02*
X84592857Y-90806428D01*
X84592857Y-90806428D02*
X84211905Y-90806428D01*
X85164286Y-90377857D02*
X85211905Y-90330238D01*
X85211905Y-90330238D02*
X85307143Y-90282619D01*
X85307143Y-90282619D02*
X85545238Y-90282619D01*
X85545238Y-90282619D02*
X85640476Y-90330238D01*
X85640476Y-90330238D02*
X85688095Y-90377857D01*
X85688095Y-90377857D02*
X85735714Y-90473095D01*
X85735714Y-90473095D02*
X85735714Y-90568333D01*
X85735714Y-90568333D02*
X85688095Y-90711190D01*
X85688095Y-90711190D02*
X85116667Y-91282619D01*
X85116667Y-91282619D02*
X85735714Y-91282619D01*
%TO.C,SW3*%
X68915000Y-109333332D02*
X68962619Y-109190475D01*
X68962619Y-109190475D02*
X68962619Y-108952380D01*
X68962619Y-108952380D02*
X68915000Y-108857142D01*
X68915000Y-108857142D02*
X68867380Y-108809523D01*
X68867380Y-108809523D02*
X68772142Y-108761904D01*
X68772142Y-108761904D02*
X68676904Y-108761904D01*
X68676904Y-108761904D02*
X68581666Y-108809523D01*
X68581666Y-108809523D02*
X68534047Y-108857142D01*
X68534047Y-108857142D02*
X68486428Y-108952380D01*
X68486428Y-108952380D02*
X68438809Y-109142856D01*
X68438809Y-109142856D02*
X68391190Y-109238094D01*
X68391190Y-109238094D02*
X68343571Y-109285713D01*
X68343571Y-109285713D02*
X68248333Y-109333332D01*
X68248333Y-109333332D02*
X68153095Y-109333332D01*
X68153095Y-109333332D02*
X68057857Y-109285713D01*
X68057857Y-109285713D02*
X68010238Y-109238094D01*
X68010238Y-109238094D02*
X67962619Y-109142856D01*
X67962619Y-109142856D02*
X67962619Y-108904761D01*
X67962619Y-108904761D02*
X68010238Y-108761904D01*
X67962619Y-108428570D02*
X68962619Y-108190475D01*
X68962619Y-108190475D02*
X68248333Y-107999999D01*
X68248333Y-107999999D02*
X68962619Y-107809523D01*
X68962619Y-107809523D02*
X67962619Y-107571428D01*
X67962619Y-107285713D02*
X67962619Y-106666666D01*
X67962619Y-106666666D02*
X68343571Y-106999999D01*
X68343571Y-106999999D02*
X68343571Y-106857142D01*
X68343571Y-106857142D02*
X68391190Y-106761904D01*
X68391190Y-106761904D02*
X68438809Y-106714285D01*
X68438809Y-106714285D02*
X68534047Y-106666666D01*
X68534047Y-106666666D02*
X68772142Y-106666666D01*
X68772142Y-106666666D02*
X68867380Y-106714285D01*
X68867380Y-106714285D02*
X68915000Y-106761904D01*
X68915000Y-106761904D02*
X68962619Y-106857142D01*
X68962619Y-106857142D02*
X68962619Y-107142856D01*
X68962619Y-107142856D02*
X68915000Y-107238094D01*
X68915000Y-107238094D02*
X68867380Y-107285713D01*
%TO.C,J7*%
X219166666Y-92962619D02*
X219166666Y-93676904D01*
X219166666Y-93676904D02*
X219119047Y-93819761D01*
X219119047Y-93819761D02*
X219023809Y-93915000D01*
X219023809Y-93915000D02*
X218880952Y-93962619D01*
X218880952Y-93962619D02*
X218785714Y-93962619D01*
X219547619Y-92962619D02*
X220214285Y-92962619D01*
X220214285Y-92962619D02*
X219785714Y-93962619D01*
%TO.C,U1*%
X139303270Y-89880766D02*
X139875690Y-90453186D01*
X139875690Y-90453186D02*
X139976705Y-90486857D01*
X139976705Y-90486857D02*
X140044048Y-90486857D01*
X140044048Y-90486857D02*
X140145064Y-90453186D01*
X140145064Y-90453186D02*
X140279751Y-90318499D01*
X140279751Y-90318499D02*
X140313422Y-90217483D01*
X140313422Y-90217483D02*
X140313422Y-90150140D01*
X140313422Y-90150140D02*
X140279751Y-90049125D01*
X140279751Y-90049125D02*
X139707331Y-89476705D01*
X141121544Y-89476705D02*
X140717483Y-89880766D01*
X140919514Y-89678735D02*
X140212407Y-88971629D01*
X140212407Y-88971629D02*
X140246079Y-89139987D01*
X140246079Y-89139987D02*
X140246079Y-89274674D01*
X140246079Y-89274674D02*
X140212407Y-89375690D01*
%TO.C,R4*%
X88333333Y-115462619D02*
X88000000Y-114986428D01*
X87761905Y-115462619D02*
X87761905Y-114462619D01*
X87761905Y-114462619D02*
X88142857Y-114462619D01*
X88142857Y-114462619D02*
X88238095Y-114510238D01*
X88238095Y-114510238D02*
X88285714Y-114557857D01*
X88285714Y-114557857D02*
X88333333Y-114653095D01*
X88333333Y-114653095D02*
X88333333Y-114795952D01*
X88333333Y-114795952D02*
X88285714Y-114891190D01*
X88285714Y-114891190D02*
X88238095Y-114938809D01*
X88238095Y-114938809D02*
X88142857Y-114986428D01*
X88142857Y-114986428D02*
X87761905Y-114986428D01*
X89190476Y-114795952D02*
X89190476Y-115462619D01*
X88952381Y-114415000D02*
X88714286Y-115129285D01*
X88714286Y-115129285D02*
X89333333Y-115129285D01*
%TO.C,J5*%
X83166666Y-106962619D02*
X83166666Y-107676904D01*
X83166666Y-107676904D02*
X83119047Y-107819761D01*
X83119047Y-107819761D02*
X83023809Y-107915000D01*
X83023809Y-107915000D02*
X82880952Y-107962619D01*
X82880952Y-107962619D02*
X82785714Y-107962619D01*
X84119047Y-106962619D02*
X83642857Y-106962619D01*
X83642857Y-106962619D02*
X83595238Y-107438809D01*
X83595238Y-107438809D02*
X83642857Y-107391190D01*
X83642857Y-107391190D02*
X83738095Y-107343571D01*
X83738095Y-107343571D02*
X83976190Y-107343571D01*
X83976190Y-107343571D02*
X84071428Y-107391190D01*
X84071428Y-107391190D02*
X84119047Y-107438809D01*
X84119047Y-107438809D02*
X84166666Y-107534047D01*
X84166666Y-107534047D02*
X84166666Y-107772142D01*
X84166666Y-107772142D02*
X84119047Y-107867380D01*
X84119047Y-107867380D02*
X84071428Y-107915000D01*
X84071428Y-107915000D02*
X83976190Y-107962619D01*
X83976190Y-107962619D02*
X83738095Y-107962619D01*
X83738095Y-107962619D02*
X83642857Y-107915000D01*
X83642857Y-107915000D02*
X83595238Y-107867380D01*
%TO.C,SW2*%
X68915000Y-100333332D02*
X68962619Y-100190475D01*
X68962619Y-100190475D02*
X68962619Y-99952380D01*
X68962619Y-99952380D02*
X68915000Y-99857142D01*
X68915000Y-99857142D02*
X68867380Y-99809523D01*
X68867380Y-99809523D02*
X68772142Y-99761904D01*
X68772142Y-99761904D02*
X68676904Y-99761904D01*
X68676904Y-99761904D02*
X68581666Y-99809523D01*
X68581666Y-99809523D02*
X68534047Y-99857142D01*
X68534047Y-99857142D02*
X68486428Y-99952380D01*
X68486428Y-99952380D02*
X68438809Y-100142856D01*
X68438809Y-100142856D02*
X68391190Y-100238094D01*
X68391190Y-100238094D02*
X68343571Y-100285713D01*
X68343571Y-100285713D02*
X68248333Y-100333332D01*
X68248333Y-100333332D02*
X68153095Y-100333332D01*
X68153095Y-100333332D02*
X68057857Y-100285713D01*
X68057857Y-100285713D02*
X68010238Y-100238094D01*
X68010238Y-100238094D02*
X67962619Y-100142856D01*
X67962619Y-100142856D02*
X67962619Y-99904761D01*
X67962619Y-99904761D02*
X68010238Y-99761904D01*
X67962619Y-99428570D02*
X68962619Y-99190475D01*
X68962619Y-99190475D02*
X68248333Y-98999999D01*
X68248333Y-98999999D02*
X68962619Y-98809523D01*
X68962619Y-98809523D02*
X67962619Y-98571428D01*
X68057857Y-98238094D02*
X68010238Y-98190475D01*
X68010238Y-98190475D02*
X67962619Y-98095237D01*
X67962619Y-98095237D02*
X67962619Y-97857142D01*
X67962619Y-97857142D02*
X68010238Y-97761904D01*
X68010238Y-97761904D02*
X68057857Y-97714285D01*
X68057857Y-97714285D02*
X68153095Y-97666666D01*
X68153095Y-97666666D02*
X68248333Y-97666666D01*
X68248333Y-97666666D02*
X68391190Y-97714285D01*
X68391190Y-97714285D02*
X68962619Y-98285713D01*
X68962619Y-98285713D02*
X68962619Y-97666666D01*
%TO.C,C3*%
X153395833Y-90217380D02*
X153348214Y-90265000D01*
X153348214Y-90265000D02*
X153205357Y-90312619D01*
X153205357Y-90312619D02*
X153110119Y-90312619D01*
X153110119Y-90312619D02*
X152967262Y-90265000D01*
X152967262Y-90265000D02*
X152872024Y-90169761D01*
X152872024Y-90169761D02*
X152824405Y-90074523D01*
X152824405Y-90074523D02*
X152776786Y-89884047D01*
X152776786Y-89884047D02*
X152776786Y-89741190D01*
X152776786Y-89741190D02*
X152824405Y-89550714D01*
X152824405Y-89550714D02*
X152872024Y-89455476D01*
X152872024Y-89455476D02*
X152967262Y-89360238D01*
X152967262Y-89360238D02*
X153110119Y-89312619D01*
X153110119Y-89312619D02*
X153205357Y-89312619D01*
X153205357Y-89312619D02*
X153348214Y-89360238D01*
X153348214Y-89360238D02*
X153395833Y-89407857D01*
X153729167Y-89312619D02*
X154348214Y-89312619D01*
X154348214Y-89312619D02*
X154014881Y-89693571D01*
X154014881Y-89693571D02*
X154157738Y-89693571D01*
X154157738Y-89693571D02*
X154252976Y-89741190D01*
X154252976Y-89741190D02*
X154300595Y-89788809D01*
X154300595Y-89788809D02*
X154348214Y-89884047D01*
X154348214Y-89884047D02*
X154348214Y-90122142D01*
X154348214Y-90122142D02*
X154300595Y-90217380D01*
X154300595Y-90217380D02*
X154252976Y-90265000D01*
X154252976Y-90265000D02*
X154157738Y-90312619D01*
X154157738Y-90312619D02*
X153872024Y-90312619D01*
X153872024Y-90312619D02*
X153776786Y-90265000D01*
X153776786Y-90265000D02*
X153729167Y-90217380D01*
%TO.C,Y1*%
X137423809Y-107836428D02*
X137423809Y-108312619D01*
X137090476Y-107312619D02*
X137423809Y-107836428D01*
X137423809Y-107836428D02*
X137757142Y-107312619D01*
X138614285Y-108312619D02*
X138042857Y-108312619D01*
X138328571Y-108312619D02*
X138328571Y-107312619D01*
X138328571Y-107312619D02*
X138233333Y-107455476D01*
X138233333Y-107455476D02*
X138138095Y-107550714D01*
X138138095Y-107550714D02*
X138042857Y-107598333D01*
%TO.C,R3*%
X88333333Y-111462619D02*
X88000000Y-110986428D01*
X87761905Y-111462619D02*
X87761905Y-110462619D01*
X87761905Y-110462619D02*
X88142857Y-110462619D01*
X88142857Y-110462619D02*
X88238095Y-110510238D01*
X88238095Y-110510238D02*
X88285714Y-110557857D01*
X88285714Y-110557857D02*
X88333333Y-110653095D01*
X88333333Y-110653095D02*
X88333333Y-110795952D01*
X88333333Y-110795952D02*
X88285714Y-110891190D01*
X88285714Y-110891190D02*
X88238095Y-110938809D01*
X88238095Y-110938809D02*
X88142857Y-110986428D01*
X88142857Y-110986428D02*
X87761905Y-110986428D01*
X88666667Y-110462619D02*
X89285714Y-110462619D01*
X89285714Y-110462619D02*
X88952381Y-110843571D01*
X88952381Y-110843571D02*
X89095238Y-110843571D01*
X89095238Y-110843571D02*
X89190476Y-110891190D01*
X89190476Y-110891190D02*
X89238095Y-110938809D01*
X89238095Y-110938809D02*
X89285714Y-111034047D01*
X89285714Y-111034047D02*
X89285714Y-111272142D01*
X89285714Y-111272142D02*
X89238095Y-111367380D01*
X89238095Y-111367380D02*
X89190476Y-111415000D01*
X89190476Y-111415000D02*
X89095238Y-111462619D01*
X89095238Y-111462619D02*
X88809524Y-111462619D01*
X88809524Y-111462619D02*
X88714286Y-111415000D01*
X88714286Y-111415000D02*
X88666667Y-111367380D01*
%TO.C,J3*%
X208166666Y-106962619D02*
X208166666Y-107676904D01*
X208166666Y-107676904D02*
X208119047Y-107819761D01*
X208119047Y-107819761D02*
X208023809Y-107915000D01*
X208023809Y-107915000D02*
X207880952Y-107962619D01*
X207880952Y-107962619D02*
X207785714Y-107962619D01*
X208547619Y-106962619D02*
X209166666Y-106962619D01*
X209166666Y-106962619D02*
X208833333Y-107343571D01*
X208833333Y-107343571D02*
X208976190Y-107343571D01*
X208976190Y-107343571D02*
X209071428Y-107391190D01*
X209071428Y-107391190D02*
X209119047Y-107438809D01*
X209119047Y-107438809D02*
X209166666Y-107534047D01*
X209166666Y-107534047D02*
X209166666Y-107772142D01*
X209166666Y-107772142D02*
X209119047Y-107867380D01*
X209119047Y-107867380D02*
X209071428Y-107915000D01*
X209071428Y-107915000D02*
X208976190Y-107962619D01*
X208976190Y-107962619D02*
X208690476Y-107962619D01*
X208690476Y-107962619D02*
X208595238Y-107915000D01*
X208595238Y-107915000D02*
X208547619Y-107867380D01*
%TO.C,C2*%
X145833333Y-103517380D02*
X145785714Y-103565000D01*
X145785714Y-103565000D02*
X145642857Y-103612619D01*
X145642857Y-103612619D02*
X145547619Y-103612619D01*
X145547619Y-103612619D02*
X145404762Y-103565000D01*
X145404762Y-103565000D02*
X145309524Y-103469761D01*
X145309524Y-103469761D02*
X145261905Y-103374523D01*
X145261905Y-103374523D02*
X145214286Y-103184047D01*
X145214286Y-103184047D02*
X145214286Y-103041190D01*
X145214286Y-103041190D02*
X145261905Y-102850714D01*
X145261905Y-102850714D02*
X145309524Y-102755476D01*
X145309524Y-102755476D02*
X145404762Y-102660238D01*
X145404762Y-102660238D02*
X145547619Y-102612619D01*
X145547619Y-102612619D02*
X145642857Y-102612619D01*
X145642857Y-102612619D02*
X145785714Y-102660238D01*
X145785714Y-102660238D02*
X145833333Y-102707857D01*
X146214286Y-102707857D02*
X146261905Y-102660238D01*
X146261905Y-102660238D02*
X146357143Y-102612619D01*
X146357143Y-102612619D02*
X146595238Y-102612619D01*
X146595238Y-102612619D02*
X146690476Y-102660238D01*
X146690476Y-102660238D02*
X146738095Y-102707857D01*
X146738095Y-102707857D02*
X146785714Y-102803095D01*
X146785714Y-102803095D02*
X146785714Y-102898333D01*
X146785714Y-102898333D02*
X146738095Y-103041190D01*
X146738095Y-103041190D02*
X146166667Y-103612619D01*
X146166667Y-103612619D02*
X146785714Y-103612619D01*
%TO.C,C4*%
X201833333Y-107367380D02*
X201785714Y-107415000D01*
X201785714Y-107415000D02*
X201642857Y-107462619D01*
X201642857Y-107462619D02*
X201547619Y-107462619D01*
X201547619Y-107462619D02*
X201404762Y-107415000D01*
X201404762Y-107415000D02*
X201309524Y-107319761D01*
X201309524Y-107319761D02*
X201261905Y-107224523D01*
X201261905Y-107224523D02*
X201214286Y-107034047D01*
X201214286Y-107034047D02*
X201214286Y-106891190D01*
X201214286Y-106891190D02*
X201261905Y-106700714D01*
X201261905Y-106700714D02*
X201309524Y-106605476D01*
X201309524Y-106605476D02*
X201404762Y-106510238D01*
X201404762Y-106510238D02*
X201547619Y-106462619D01*
X201547619Y-106462619D02*
X201642857Y-106462619D01*
X201642857Y-106462619D02*
X201785714Y-106510238D01*
X201785714Y-106510238D02*
X201833333Y-106557857D01*
X202690476Y-106795952D02*
X202690476Y-107462619D01*
X202452381Y-106415000D02*
X202214286Y-107129285D01*
X202214286Y-107129285D02*
X202833333Y-107129285D01*
%TO.C,SW1*%
X68915000Y-90833332D02*
X68962619Y-90690475D01*
X68962619Y-90690475D02*
X68962619Y-90452380D01*
X68962619Y-90452380D02*
X68915000Y-90357142D01*
X68915000Y-90357142D02*
X68867380Y-90309523D01*
X68867380Y-90309523D02*
X68772142Y-90261904D01*
X68772142Y-90261904D02*
X68676904Y-90261904D01*
X68676904Y-90261904D02*
X68581666Y-90309523D01*
X68581666Y-90309523D02*
X68534047Y-90357142D01*
X68534047Y-90357142D02*
X68486428Y-90452380D01*
X68486428Y-90452380D02*
X68438809Y-90642856D01*
X68438809Y-90642856D02*
X68391190Y-90738094D01*
X68391190Y-90738094D02*
X68343571Y-90785713D01*
X68343571Y-90785713D02*
X68248333Y-90833332D01*
X68248333Y-90833332D02*
X68153095Y-90833332D01*
X68153095Y-90833332D02*
X68057857Y-90785713D01*
X68057857Y-90785713D02*
X68010238Y-90738094D01*
X68010238Y-90738094D02*
X67962619Y-90642856D01*
X67962619Y-90642856D02*
X67962619Y-90404761D01*
X67962619Y-90404761D02*
X68010238Y-90261904D01*
X67962619Y-89928570D02*
X68962619Y-89690475D01*
X68962619Y-89690475D02*
X68248333Y-89499999D01*
X68248333Y-89499999D02*
X68962619Y-89309523D01*
X68962619Y-89309523D02*
X67962619Y-89071428D01*
X68962619Y-88166666D02*
X68962619Y-88738094D01*
X68962619Y-88452380D02*
X67962619Y-88452380D01*
X67962619Y-88452380D02*
X68105476Y-88547618D01*
X68105476Y-88547618D02*
X68200714Y-88642856D01*
X68200714Y-88642856D02*
X68248333Y-88738094D01*
%TO.C,R1*%
X135883333Y-90282619D02*
X135550000Y-89806428D01*
X135311905Y-90282619D02*
X135311905Y-89282619D01*
X135311905Y-89282619D02*
X135692857Y-89282619D01*
X135692857Y-89282619D02*
X135788095Y-89330238D01*
X135788095Y-89330238D02*
X135835714Y-89377857D01*
X135835714Y-89377857D02*
X135883333Y-89473095D01*
X135883333Y-89473095D02*
X135883333Y-89615952D01*
X135883333Y-89615952D02*
X135835714Y-89711190D01*
X135835714Y-89711190D02*
X135788095Y-89758809D01*
X135788095Y-89758809D02*
X135692857Y-89806428D01*
X135692857Y-89806428D02*
X135311905Y-89806428D01*
X136835714Y-90282619D02*
X136264286Y-90282619D01*
X136550000Y-90282619D02*
X136550000Y-89282619D01*
X136550000Y-89282619D02*
X136454762Y-89425476D01*
X136454762Y-89425476D02*
X136359524Y-89520714D01*
X136359524Y-89520714D02*
X136264286Y-89568333D01*
%TO.C,C5*%
X195833333Y-107867380D02*
X195785714Y-107915000D01*
X195785714Y-107915000D02*
X195642857Y-107962619D01*
X195642857Y-107962619D02*
X195547619Y-107962619D01*
X195547619Y-107962619D02*
X195404762Y-107915000D01*
X195404762Y-107915000D02*
X195309524Y-107819761D01*
X195309524Y-107819761D02*
X195261905Y-107724523D01*
X195261905Y-107724523D02*
X195214286Y-107534047D01*
X195214286Y-107534047D02*
X195214286Y-107391190D01*
X195214286Y-107391190D02*
X195261905Y-107200714D01*
X195261905Y-107200714D02*
X195309524Y-107105476D01*
X195309524Y-107105476D02*
X195404762Y-107010238D01*
X195404762Y-107010238D02*
X195547619Y-106962619D01*
X195547619Y-106962619D02*
X195642857Y-106962619D01*
X195642857Y-106962619D02*
X195785714Y-107010238D01*
X195785714Y-107010238D02*
X195833333Y-107057857D01*
X196738095Y-106962619D02*
X196261905Y-106962619D01*
X196261905Y-106962619D02*
X196214286Y-107438809D01*
X196214286Y-107438809D02*
X196261905Y-107391190D01*
X196261905Y-107391190D02*
X196357143Y-107343571D01*
X196357143Y-107343571D02*
X196595238Y-107343571D01*
X196595238Y-107343571D02*
X196690476Y-107391190D01*
X196690476Y-107391190D02*
X196738095Y-107438809D01*
X196738095Y-107438809D02*
X196785714Y-107534047D01*
X196785714Y-107534047D02*
X196785714Y-107772142D01*
X196785714Y-107772142D02*
X196738095Y-107867380D01*
X196738095Y-107867380D02*
X196690476Y-107915000D01*
X196690476Y-107915000D02*
X196595238Y-107962619D01*
X196595238Y-107962619D02*
X196357143Y-107962619D01*
X196357143Y-107962619D02*
X196261905Y-107915000D01*
X196261905Y-107915000D02*
X196214286Y-107867380D01*
%TO.C,J1*%
X216666666Y-105962619D02*
X216666666Y-106676904D01*
X216666666Y-106676904D02*
X216619047Y-106819761D01*
X216619047Y-106819761D02*
X216523809Y-106915000D01*
X216523809Y-106915000D02*
X216380952Y-106962619D01*
X216380952Y-106962619D02*
X216285714Y-106962619D01*
X217666666Y-106962619D02*
X217095238Y-106962619D01*
X217380952Y-106962619D02*
X217380952Y-105962619D01*
X217380952Y-105962619D02*
X217285714Y-106105476D01*
X217285714Y-106105476D02*
X217190476Y-106200714D01*
X217190476Y-106200714D02*
X217095238Y-106248333D01*
D13*
%TO.C,C1*%
X130273752Y-105910000D02*
X128851248Y-105910000D01*
X130273752Y-104090000D02*
X128851248Y-104090000D01*
%TO.C,R2*%
X85677064Y-89910000D02*
X84222936Y-89910000D01*
X85677064Y-88090000D02*
X84222936Y-88090000D01*
%TO.C,SW3*%
X77750000Y-109000000D02*
X77750000Y-107500000D01*
X76500000Y-105000000D02*
X72000000Y-105000000D01*
X72000000Y-111500000D02*
X76500000Y-111500000D01*
X70750000Y-107500000D02*
X70750000Y-109000000D01*
D14*
%TO.C,J7*%
X219460000Y-97790000D02*
X217870000Y-97790000D01*
X223280000Y-97790000D02*
X221900000Y-97790000D01*
X219460000Y-88850000D02*
X217870000Y-88850000D01*
X223280000Y-88850000D02*
X223280000Y-97790000D01*
X223280000Y-88850000D02*
X221900000Y-88850000D01*
D15*
X214780000Y-96520000D02*
G75*
G03*
X214780000Y-96520000I-100000J0D01*
G01*
D12*
%TO.C,U1*%
X139373476Y-94000000D02*
X139532575Y-94159099D01*
X139373476Y-94000000D02*
X139603286Y-93770190D01*
X139532575Y-94159099D02*
X138524948Y-95166726D01*
X144500000Y-99126524D02*
X144270190Y-98896714D01*
X144500000Y-99126524D02*
X144729810Y-98896714D01*
X144500000Y-88873476D02*
X144270190Y-89103286D01*
X144500000Y-88873476D02*
X144729810Y-89103286D01*
X149626524Y-94000000D02*
X149396714Y-94229810D01*
X149626524Y-94000000D02*
X149396714Y-93770190D01*
D13*
%TO.C,R4*%
X85777064Y-115910000D02*
X84322936Y-115910000D01*
X85777064Y-114090000D02*
X84322936Y-114090000D01*
%TO.C,J5*%
X82170000Y-93010000D02*
X83500000Y-93010000D01*
X82170000Y-94340000D02*
X82170000Y-93010000D01*
X82170000Y-95610000D02*
X82170000Y-105830000D01*
X82170000Y-95610000D02*
X84830000Y-95610000D01*
X82170000Y-105830000D02*
X84830000Y-105830000D01*
X84830000Y-95610000D02*
X84830000Y-105830000D01*
%TO.C,SW2*%
X77750000Y-99500000D02*
X77750000Y-98000000D01*
X76500000Y-95500000D02*
X72000000Y-95500000D01*
X72000000Y-102000000D02*
X76500000Y-102000000D01*
X70750000Y-98000000D02*
X70750000Y-99500000D01*
%TO.C,C3*%
X154273752Y-88910000D02*
X152851248Y-88910000D01*
X154273752Y-87090000D02*
X152851248Y-87090000D01*
%TO.C,Y1*%
X140250000Y-106850000D02*
X135550000Y-106850000D01*
X140250000Y-103150000D02*
X135550000Y-103150000D01*
X140250000Y-106850000D02*
G75*
G03*
X140250000Y-103150000I0J1850000D01*
G01*
X135550000Y-103150000D02*
G75*
G03*
X135550000Y-106850000I0J-1850000D01*
G01*
%TO.C,R3*%
X85677064Y-111910000D02*
X84222936Y-111910000D01*
X85677064Y-110090000D02*
X84222936Y-110090000D01*
%TO.C,J3*%
X207170000Y-93010000D02*
X208500000Y-93010000D01*
X207170000Y-94340000D02*
X207170000Y-93010000D01*
X207170000Y-95610000D02*
X207170000Y-105830000D01*
X207170000Y-95610000D02*
X209830000Y-95610000D01*
X207170000Y-105830000D02*
X209830000Y-105830000D01*
X209830000Y-95610000D02*
X209830000Y-105830000D01*
%TO.C,C2*%
X145288748Y-104090000D02*
X146711252Y-104090000D01*
X145288748Y-105910000D02*
X146711252Y-105910000D01*
%TO.C,C4*%
X202910000Y-102726248D02*
X202910000Y-104148752D01*
X201090000Y-102726248D02*
X201090000Y-104148752D01*
%TO.C,SW1*%
X77750000Y-90000000D02*
X77750000Y-88500000D01*
X76500000Y-86000000D02*
X72000000Y-86000000D01*
X72000000Y-92500000D02*
X76500000Y-92500000D01*
X70750000Y-88500000D02*
X70750000Y-90000000D01*
%TO.C,R1*%
X136777064Y-88910000D02*
X135322936Y-88910000D01*
X136777064Y-87090000D02*
X135322936Y-87090000D01*
%TO.C,C5*%
X194525000Y-106554775D02*
X194525000Y-106054775D01*
X194275000Y-106304775D02*
X194775000Y-106304775D01*
X193420000Y-103750000D02*
X198580000Y-103750000D01*
X193420000Y-103710000D02*
X198580000Y-103710000D01*
X193421000Y-103670000D02*
X198579000Y-103670000D01*
X193422000Y-103630000D02*
X198578000Y-103630000D01*
X193424000Y-103590000D02*
X198576000Y-103590000D01*
X193427000Y-103550000D02*
X198573000Y-103550000D01*
X193431000Y-103510000D02*
X194960000Y-103510000D01*
X197040000Y-103510000D02*
X198569000Y-103510000D01*
X193435000Y-103470000D02*
X194960000Y-103470000D01*
X197040000Y-103470000D02*
X198565000Y-103470000D01*
X193439000Y-103430000D02*
X194960000Y-103430000D01*
X197040000Y-103430000D02*
X198561000Y-103430000D01*
X193444000Y-103390000D02*
X194960000Y-103390000D01*
X197040000Y-103390000D02*
X198556000Y-103390000D01*
X193450000Y-103350000D02*
X194960000Y-103350000D01*
X197040000Y-103350000D02*
X198550000Y-103350000D01*
X193457000Y-103310000D02*
X194960000Y-103310000D01*
X197040000Y-103310000D02*
X198543000Y-103310000D01*
X193464000Y-103270000D02*
X194960000Y-103270000D01*
X197040000Y-103270000D02*
X198536000Y-103270000D01*
X193472000Y-103230000D02*
X194960000Y-103230000D01*
X197040000Y-103230000D02*
X198528000Y-103230000D01*
X193480000Y-103190000D02*
X194960000Y-103190000D01*
X197040000Y-103190000D02*
X198520000Y-103190000D01*
X193489000Y-103150000D02*
X194960000Y-103150000D01*
X197040000Y-103150000D02*
X198511000Y-103150000D01*
X193499000Y-103110000D02*
X194960000Y-103110000D01*
X197040000Y-103110000D02*
X198501000Y-103110000D01*
X193509000Y-103070000D02*
X194960000Y-103070000D01*
X197040000Y-103070000D02*
X198491000Y-103070000D01*
X193520000Y-103029000D02*
X194960000Y-103029000D01*
X197040000Y-103029000D02*
X198480000Y-103029000D01*
X193532000Y-102989000D02*
X194960000Y-102989000D01*
X197040000Y-102989000D02*
X198468000Y-102989000D01*
X193545000Y-102949000D02*
X194960000Y-102949000D01*
X197040000Y-102949000D02*
X198455000Y-102949000D01*
X193558000Y-102909000D02*
X194960000Y-102909000D01*
X197040000Y-102909000D02*
X198442000Y-102909000D01*
X193572000Y-102869000D02*
X194960000Y-102869000D01*
X197040000Y-102869000D02*
X198428000Y-102869000D01*
X193586000Y-102829000D02*
X194960000Y-102829000D01*
X197040000Y-102829000D02*
X198414000Y-102829000D01*
X193602000Y-102789000D02*
X194960000Y-102789000D01*
X197040000Y-102789000D02*
X198398000Y-102789000D01*
X193618000Y-102749000D02*
X194960000Y-102749000D01*
X197040000Y-102749000D02*
X198382000Y-102749000D01*
X193635000Y-102709000D02*
X194960000Y-102709000D01*
X197040000Y-102709000D02*
X198365000Y-102709000D01*
X193652000Y-102669000D02*
X194960000Y-102669000D01*
X197040000Y-102669000D02*
X198348000Y-102669000D01*
X193671000Y-102629000D02*
X194960000Y-102629000D01*
X197040000Y-102629000D02*
X198329000Y-102629000D01*
X193690000Y-102589000D02*
X194960000Y-102589000D01*
X197040000Y-102589000D02*
X198310000Y-102589000D01*
X193710000Y-102549000D02*
X194960000Y-102549000D01*
X197040000Y-102549000D02*
X198290000Y-102549000D01*
X193732000Y-102509000D02*
X194960000Y-102509000D01*
X197040000Y-102509000D02*
X198268000Y-102509000D01*
X193753000Y-102469000D02*
X194960000Y-102469000D01*
X197040000Y-102469000D02*
X198247000Y-102469000D01*
X193776000Y-102429000D02*
X194960000Y-102429000D01*
X197040000Y-102429000D02*
X198224000Y-102429000D01*
X193800000Y-102389000D02*
X194960000Y-102389000D01*
X197040000Y-102389000D02*
X198200000Y-102389000D01*
X193825000Y-102349000D02*
X194960000Y-102349000D01*
X197040000Y-102349000D02*
X198175000Y-102349000D01*
X193851000Y-102309000D02*
X194960000Y-102309000D01*
X197040000Y-102309000D02*
X198149000Y-102309000D01*
X193878000Y-102269000D02*
X194960000Y-102269000D01*
X197040000Y-102269000D02*
X198122000Y-102269000D01*
X193905000Y-102229000D02*
X194960000Y-102229000D01*
X197040000Y-102229000D02*
X198095000Y-102229000D01*
X193935000Y-102189000D02*
X194960000Y-102189000D01*
X197040000Y-102189000D02*
X198065000Y-102189000D01*
X193965000Y-102149000D02*
X194960000Y-102149000D01*
X197040000Y-102149000D02*
X198035000Y-102149000D01*
X193996000Y-102109000D02*
X194960000Y-102109000D01*
X197040000Y-102109000D02*
X198004000Y-102109000D01*
X194029000Y-102069000D02*
X194960000Y-102069000D01*
X197040000Y-102069000D02*
X197971000Y-102069000D01*
X194063000Y-102029000D02*
X194960000Y-102029000D01*
X197040000Y-102029000D02*
X197937000Y-102029000D01*
X194099000Y-101989000D02*
X194960000Y-101989000D01*
X197040000Y-101989000D02*
X197901000Y-101989000D01*
X194136000Y-101949000D02*
X194960000Y-101949000D01*
X197040000Y-101949000D02*
X197864000Y-101949000D01*
X194174000Y-101909000D02*
X194960000Y-101909000D01*
X197040000Y-101909000D02*
X197826000Y-101909000D01*
X194215000Y-101869000D02*
X194960000Y-101869000D01*
X197040000Y-101869000D02*
X197785000Y-101869000D01*
X194257000Y-101829000D02*
X194960000Y-101829000D01*
X197040000Y-101829000D02*
X197743000Y-101829000D01*
X194301000Y-101789000D02*
X194960000Y-101789000D01*
X197040000Y-101789000D02*
X197699000Y-101789000D01*
X194347000Y-101749000D02*
X194960000Y-101749000D01*
X197040000Y-101749000D02*
X197653000Y-101749000D01*
X194395000Y-101709000D02*
X194960000Y-101709000D01*
X197040000Y-101709000D02*
X197605000Y-101709000D01*
X194446000Y-101669000D02*
X194960000Y-101669000D01*
X197040000Y-101669000D02*
X197554000Y-101669000D01*
X194500000Y-101629000D02*
X194960000Y-101629000D01*
X197040000Y-101629000D02*
X197500000Y-101629000D01*
X194557000Y-101589000D02*
X194960000Y-101589000D01*
X197040000Y-101589000D02*
X197443000Y-101589000D01*
X194617000Y-101549000D02*
X194960000Y-101549000D01*
X197040000Y-101549000D02*
X197383000Y-101549000D01*
X194681000Y-101509000D02*
X194960000Y-101509000D01*
X197040000Y-101509000D02*
X197319000Y-101509000D01*
X194749000Y-101469000D02*
X194960000Y-101469000D01*
X197040000Y-101469000D02*
X197251000Y-101469000D01*
X194822000Y-101429000D02*
X197178000Y-101429000D01*
X194902000Y-101389000D02*
X197098000Y-101389000D01*
X194989000Y-101349000D02*
X197011000Y-101349000D01*
X195085000Y-101309000D02*
X196915000Y-101309000D01*
X195195000Y-101269000D02*
X196805000Y-101269000D01*
X195323000Y-101229000D02*
X196677000Y-101229000D01*
X195482000Y-101189000D02*
X196518000Y-101189000D01*
X195716000Y-101149000D02*
X196284000Y-101149000D01*
X198620000Y-103750000D02*
G75*
G03*
X198620000Y-103750000I-2620000J0D01*
G01*
%TO.C,J1*%
X215670000Y-99670000D02*
X217000000Y-99670000D01*
X215670000Y-101000000D02*
X215670000Y-99670000D01*
X215670000Y-102270000D02*
X215670000Y-104870000D01*
X215670000Y-102270000D02*
X218330000Y-102270000D01*
X215670000Y-104870000D02*
X218330000Y-104870000D01*
X218330000Y-102270000D02*
X218330000Y-104870000D01*
%TD*%
M02*
